SplineFontDB: 3.0
FontName: HM_FTXfarnaz_Outline
FullName: HM_FTXfarnaz_Outline
FamilyName: HM_FTXfarnaz_Outline
Weight: Outline
Copyright: Copyright (c) Hossein, 2013. All rights reserved.
Version: 0.1
ItalicAngle: 0
UnderlinePosition: -540
UnderlineWidth: 60
Ascent: 1638
Descent: 410
sfntRevision: 0x00010000
LayerCount: 2
Layer: 0 1 "Back"  1
Layer: 1 1 "Fore"  0
XUID: [1021 102 1371595031 6992056]
FSType: 0
OS2Version: 2
OS2_WeightWidthSlopeOnly: 0
OS2_UseTypoMetrics: 1
CreationTime: 1194658560
ModificationTime: 1360912365
PfmFamily: 17
TTFWeight: 400
TTFWidth: 5
LineGap: 0
VLineGap: 0
Panose: 2 0 5 3 8 0 0 2 0 3
OS2TypoAscent: 2100
OS2TypoAOffset: 0
OS2TypoDescent: -1000
OS2TypoDOffset: 0
OS2TypoLinegap: 0
OS2WinAscent: 2100
OS2WinAOffset: 0
OS2WinDescent: 1000
OS2WinDOffset: 0
HheadAscent: 2100
HheadAOffset: 0
HheadDescent: -1000
HheadDOffset: 0
OS2SubXSize: 1434
OS2SubYSize: 1331
OS2SubXOff: 0
OS2SubYOff: 293
OS2SupXSize: 1434
OS2SupYSize: 1331
OS2SupXOff: 0
OS2SupYOff: 928
OS2StrikeYSize: 102
OS2StrikeYPos: 512
OS2Vendor: 'pars'
OS2CodePages: 20000051.41000000
OS2UnicodeRanges: 00002003.80000000.00000008.00000000
Lookup: 4 0 1 "gsub_ligature_dfl_liga_arab_FAR_Lookup_01"  {"gsub_ligature_dfl_liga_arab_FAR_Lookup_01_Subtable_01"  } ['liga' ('arab' <'FAR ' > ) ]
Lookup: 4 0 1 "gsub_ligature_dfl_liga_arab_FAR_Lookup_02"  {"gsub_ligature_dfl_liga_arab_FAR_Lookup_02_Subtable_01"  } ['liga' ('arab' <'FAR ' > ) ]
Lookup: 3 0 0 "gsub_alternate_dfl_aalt_arab_FAR_Lookup_01"  {"gsub_alternate_dfl_aalt_arab_FAR_Lookup_01_Subtable_01"  } ['aalt' ('arab' <'FAR ' > ) ]
Lookup: 1 1 0 "gsub_single_rtl_fina_arab_FAR_Lookup_01"  {"gsub_single_rtl_fina_arab_FAR_Lookup_01_Subtable_01"  } ['fina' ('arab' <'FAR ' > ) ]
Lookup: 1 1 0 "gsub_single_rtl_init_arab_FAR_Lookup_01"  {"gsub_single_rtl_init_arab_FAR_Lookup_01_Subtable_01"  } ['init' ('arab' <'FAR ' > ) ]

StartChar: .notdef
Encoding: 65536 -1 0
Width: 1122
GlyphClass: 2
Flags: W
LayerCount: 2
Fore
SplineSet
624 299 m 0,0,1
 624 269 624 269 602 246.5 c 128,-1,2
 580 224 580 224 548 224 c 0,3,4
 518 224 518 224 496.5 246.5 c 128,-1,5
 475 269 475 269 475 299 c 0,6,7
 475 331 475 331 496.5 352.5 c 128,-1,8
 518 374 518 374 551 374 c 0,9,10
 581 374 581 374 602.5 352.5 c 128,-1,11
 624 331 624 331 624 299 c 0,0,1
732 780 m 0,12,13
 732 737 732 737 708.5 710 c 128,-1,14
 685 683 685 683 648 683 c 0,15,16
 616 683 616 683 597 701.5 c 128,-1,17
 578 720 578 720 578 749 c 0,18,19
 578 770 578 770 588 785 c 128,-1,20
 598 800 598 800 610.5 810.5 c 128,-1,21
 623 821 623 821 633 829 c 128,-1,22
 643 837 643 837 643 843 c 0,23,24
 643 863 643 863 623.5 875 c 128,-1,25
 604 887 604 887 574 887 c 0,26,27
 536 887 536 887 512 866 c 128,-1,28
 488 845 488 845 488 813 c 0,29,30
 488 795 488 795 498.5 769 c 128,-1,31
 509 743 509 743 521.5 718 c 128,-1,32
 534 693 534 693 545.5 673 c 128,-1,33
 557 653 557 653 559 648 c 0,34,35
 570 619 570 619 576.5 583.5 c 128,-1,36
 583 548 583 548 583 513 c 0,37,38
 583 492 583 492 581.5 470.5 c 128,-1,39
 580 449 580 449 578 424 c 1,40,-1
 539 424 l 1,41,-1
 539 442 l 1,42,-1
 543 472 l 1,43,44
 543 505 543 505 498 544 c 0,45,46
 425 609 425 609 416 620 c 0,47,48
 371 673 371 673 371 740 c 0,49,50
 371 781 371 781 386 815.5 c 128,-1,51
 401 850 401 850 426.5 875.5 c 128,-1,52
 452 901 452 901 486.5 915 c 128,-1,53
 521 929 521 929 560 929 c 0,54,55
 595 929 595 929 626.5 918.5 c 128,-1,56
 658 908 658 908 681.5 888.5 c 128,-1,57
 705 869 705 869 718.5 841.5 c 128,-1,58
 732 814 732 814 732 780 c 0,12,13
132 31 m 1,59,-1
 992 31 l 1,60,-1
 992 1122 l 1,61,-1
 132 1122 l 1,62,-1
 132 31 l 1,59,-1
100 0 m 1,63,-1
 100 1154 l 1,64,-1
 1022 1154 l 1,65,-1
 1022 0 l 1,66,-1
 100 0 l 1,63,-1
EndSplineSet
EndChar

StartChar: exclam
Encoding: 33 33 4
Width: 652
VWidth: 1639
GlyphClass: 2
Flags: W
LayerCount: 2
Fore
SplineSet
100 1195.55957031 m 1,0,-1
 314.83984375 1246.40039062 l 1,1,2
 321.130859375 1242.26269531 321.130859375 1242.26269531 337.799804688 1246.40039062 c 1,3,4
 344.090820312 1242.26269531 344.090820312 1242.26269531 360.759765625 1246.40039062 c 1,5,6
 373.63671875 1211.74023438 373.63671875 1211.74023438 387 1138.16015625 c 1,7,8
 411.893554688 1025.45605469 411.893554688 1025.45605469 426.360351562 915.120117188 c 0,9,10
 456.107421875 695.850585938 456.107421875 695.850585938 450.959960938 446.080078125 c 0,11,12
 450.46875 426.405273438 450.46875 426.405273438 450.370117188 387.098632812 c 0,13,14
 449.938476562 295.176757812 449.938476562 295.176757812 444.400390625 250.919921875 c 1,13,-1
 291.879882812 241.080078125 l 1,14,-1
 191.83984375 237.799804688 l 1,15,16
 191.83984375 277.309570312 191.83984375 277.309570312 195.228515625 356.327148438 c 0,17,18
 199.294921875 451.149414062 199.294921875 451.149414062 198.400390625 498.559570312 c 0,17,18
 189.518554688 871.38671875 189.518554688 871.38671875 100 1149.63964844 c 1,19,-1
 106.560546875 1151.28027344 l 1,20,-1
 100 1172.59960938 l 1,21,-1
 106.560546875 1174.24023438 l 1,22,-1
 100 1195.55957031 l 1,0,-1
398.48046875 296.83984375 m 1,23,24
 405.096679688 351.416015625 405.096679688 351.416015625 405.040039062 498.559570312 c 0,25,26
 404.752929688 745.03515625 404.752929688 745.03515625 364.040039062 975.799804688 c 0,27,28
 353 1047.61523438 353 1047.61523438 331.240234375 1134.87988281 c 1,29,30
 323.861328125 1180.90332031 323.861328125 1180.90332031 316.48046875 1187.36035156 c 0,31,32
 312.469726562 1189.29101562 312.469726562 1189.29101562 277.120117188 1180.79980469 c 0,33,34
 261.375976562 1177.51953125 261.375976562 1177.51953125 229.888671875 1168.86035156 c 0,35,36
 182.109375 1155.96191406 182.109375 1155.96191406 159.040039062 1152.91992188 c 1,35,36
 160.099609375 1141.26855469 160.099609375 1141.26855469 182.85546875 1055.89746094 c 0,37,38
 184.357421875 1050.10644531 184.357421875 1050.10644531 185.280273438 1046.3203125 c 0,37,38
 209.48046875 930.123046875 209.48046875 930.123046875 223 831.48046875 c 1,39,40
 242.01171875 672.565429688 242.01171875 672.565429688 244.3203125 544.48046875 c 0,41,42
 245.2578125 495.706054688 245.2578125 495.706054688 242.844726562 397.161132812 c 0,43,44
 241.06640625 322.970703125 241.06640625 322.970703125 241.040039062 287 c 1,43,-1
 398.48046875 296.83984375 l 1,23,24
159.040039062 -24.599609375 m 1,44,45
 159.219726562 7.162109375 159.219726562 7.162109375 175.440429688 155.799804688 c 0,46,47
 176.259765625 164 176.259765625 164 177.900390625 179.580078125 c 0,48,49
 179.596679688 195.776367188 179.596679688 195.776367188 180.360351562 203.360351562 c 0,48,49
 180.9140625 205.022460938 180.9140625 205.022460938 181.278320312 209.154296875 c 0,50,51
 183.220703125 217.408203125 183.220703125 217.408203125 185.280273438 219.759765625 c 0,50,51
 191.065429688 224.71875 191.065429688 224.71875 239.00390625 224.403320312 c 0,52,53
 243.657226562 224.515625 243.657226562 224.515625 245.959960938 224.6796875 c 0,52,53
 327.052734375 232.831054688 327.052734375 232.831054688 439.48046875 232.879882812 c 1,54,55
 439.169921875 92.4677734375 439.169921875 92.4677734375 416.520507812 -26.240234375 c 1,56,-1
 159.040039062 -24.599609375 l 1,44,45
390.280273438 185.3203125 m 1,57,58
 341.202148438 178.84375 341.202148438 178.84375 278.759765625 178.759765625 c 0,59,60
 237.96484375 178.110351562 237.96484375 178.110351562 231.200195312 173.83984375 c 0,61,62
 229.560546875 172.200195312 229.560546875 172.200195312 227.919921875 168.919921875 c 0,63,64
 226.280273438 165.639648438 226.280273438 165.639648438 225.459960938 162.360351562 c 0,65,66
 224.640625 159.080078125 224.640625 159.080078125 224.640625 154.16015625 c 0,67,68
 224.640625 149.240234375 224.640625 149.240234375 224.640625 146.780273438 c 0,69,70
 224.640625 144.3203125 224.640625 144.3203125 224.640625 139.400390625 c 2,71,-1
 224.640625 134.48046875 l 2,63,64
 223.888671875 129.7421875 223.888671875 129.7421875 209.879882812 21.3203125 c 1,65,-1
 370.600585938 19.6796875 l 1,66,67
 390.064453125 125.084960938 390.064453125 125.084960938 390.280273438 185.3203125 c 1,57,58
EndSplineSet
EndChar

StartChar: percent
Encoding: 37 37 8
Width: 1169
VWidth: 1639
GlyphClass: 2
Flags: W
LayerCount: 2
Fore
SplineSet
691.66015625 1403.83984375 m 1,0,-1
 712.98046875 1394 l 1,1,-1
 714.620117188 1403.83984375 l 1,2,-1
 735.940429688 1394 l 1,3,-1
 737.580078125 1403.83984375 l 1,4,-1
 796.620117188 1372.6796875 l 1,5,-1
 931.100585938 1300.51953125 l 1,6,-1
 926.180664062 1279.20019531 l 1,7,-1
 931.100585938 1277.55957031 l 1,8,-1
 926.180664062 1256.24023438 l 1,9,-1
 931.100585938 1254.59960938 l 1,10,11
 870.77734375 940.275390625 870.77734375 940.275390625 701.5 529.719726562 c 0,12,13
 552.712890625 172.350585938 552.712890625 172.350585938 417.780273438 -29.51953125 c 1,14,-1
 399.740234375 -19.6796875 l 1,15,-1
 394.8203125 -29.51953125 l 1,16,-1
 376.780273438 -19.6796875 l 1,17,-1
 371.860351562 -29.51953125 l 1,18,19
 340.232421875 -15.8525390625 340.232421875 -15.8525390625 214.420898438 57.400390625 c 0,20,21
 212.33203125 58.6533203125 212.33203125 58.6533203125 204.025390625 62.564453125 c 0,22,23
 172.927734375 78.1435546875 172.927734375 78.1435546875 170.140625 85.2802734375 c 1,22,23
 170.140625 90.2001953125 170.140625 90.2001953125 177.0859375 99.822265625 c 2,24,-1
 178.340820312 101.6796875 l 1,24,25
 166.012695312 108.607421875 166.012695312 108.607421875 178.340820312 124.639648438 c 1,26,27
 168.114257812 131.396484375 168.114257812 131.396484375 176.700195312 145.959960938 c 0,28,29
 196.549804688 179.306640625 196.549804688 179.306640625 204.580078125 195.16015625 c 0,30,31
 265.993164062 299.313476562 265.993164062 299.313476562 324.30078125 413.280273438 c 0,32,33
 512.357421875 778.806640625 512.357421875 778.806640625 608.020507812 1075.83984375 c 0,34,35
 642.62890625 1188.06054688 642.62890625 1188.06054688 665.420898438 1285.75976562 c 0,36,37
 669.452148438 1301.21582031 669.452148438 1301.21582031 675.33984375 1333.92773438 c 0,38,39
 684.252929688 1382.02050781 684.252929688 1382.02050781 691.66015625 1403.83984375 c 1,0,-1
734.30078125 1336.59960938 m 1,38,39
 731.311523438 1330.79882812 731.311523438 1330.79882812 722.8203125 1289.04003906 c 0,40,41
 706.231445312 1213.05371094 706.231445312 1213.05371094 696.580078125 1175.87988281 c 0,42,43
 640.352539062 979.625976562 640.352539062 979.625976562 585.060546875 834.759765625 c 0,44,45
 496.958984375 604.958984375 496.958984375 604.958984375 360.380859375 347.6796875 c 0,46,47
 316.965820312 263.72265625 316.965820312 263.72265625 280.020507812 198.440429688 c 1,48,49
 242.327148438 137.564453125 242.327148438 137.564453125 234.100585938 118.080078125 c 1,50,51
 256.021484375 105.126953125 256.021484375 105.126953125 301.310546875 80.30078125 c 0,52,53
 331.365234375 63.7998046875 331.365234375 63.7998046875 345.620117188 55.759765625 c 0,52,53
 348.182617188 54.7353515625 348.182617188 54.7353515625 356.399414062 49.462890625 c 0,54,55
 378.041015625 36.6484375 378.041015625 36.6484375 384.98046875 37.7197265625 c 1,54,55
 388.661132812 40.5078125 388.661132812 40.5078125 398.100585938 57.400390625 c 0,56,57
 404.708007812 67.0712890625 404.708007812 67.0712890625 429.260742188 108.240234375 c 0,58,59
 479.946289062 193.688476562 479.946289062 193.688476562 540.780273438 318.16015625 c 0,60,61
 633.65625 504.350585938 633.65625 504.350585938 734.30078125 777.360351562 c 0,62,63
 840.880859375 1070.49316406 840.880859375 1070.49316406 876.98046875 1259.51953125 c 1,64,65
 848.12890625 1271.33398438 848.12890625 1271.33398438 734.30078125 1336.59960938 c 1,38,39
239.020507812 1293.95996094 m 1,66,67
 362.719726562 1310.73242188 362.719726562 1310.73242188 441.499023438 1236.96386719 c 0,68,69
 469.412109375 1209.71679688 469.412109375 1209.71679688 485.020507812 1175.87988281 c 0,68,69
 523.403320312 1091.1171875 523.403320312 1091.1171875 494.629882812 1007.81347656 c 1,70,71
 466.873046875 934.584960938 466.873046875 934.584960938 396.459960938 923.3203125 c 1,70,71
 239.038085938 902.674804688 239.038085938 902.674804688 161.865234375 1008.73339844 c 0,72,73
 152.553710938 1021.98242188 152.553710938 1021.98242188 145.540039062 1034.83984375 c 0,72,73
 126.0546875 1073.578125 126.0546875 1073.578125 125.860351562 1133.24023438 c 1,74,75
 123.11328125 1179.70703125 123.11328125 1179.70703125 129.140625 1202.12011719 c 0,76,77
 153.090820312 1279.32910156 153.090820312 1279.32910156 239.020507812 1293.95996094 c 1,66,67
275.100585938 1246.40039062 m 1,78,79
 249.579101562 1240.70703125 249.579101562 1240.70703125 229.180664062 1228.36035156 c 0,80,81
 211.959960938 1218.51953125 211.959960938 1218.51953125 199.66015625 1203.75976562 c 0,82,83
 142.862304688 1136.21582031 142.862304688 1136.21582031 212.265625 1049.67382812 c 0,84,85
 238.774414062 1017.72949219 238.774414062 1017.72949219 271.8203125 997.120117188 c 0,84,85
 320.5546875 968.221679688 320.5546875 968.221679688 350.540039062 969.240234375 c 1,86,87
 402.19140625 974.583007812 402.19140625 974.583007812 437.412109375 1023.00878906 c 0,88,89
 456.453125 1051.02734375 456.453125 1051.02734375 455.5 1077.48046875 c 0,88,89
 449.70703125 1154.72851562 449.70703125 1154.72851562 370.153320312 1211.57714844 c 0,90,91
 352.419921875 1223.83203125 352.419921875 1223.83203125 335.780273438 1231.63964844 c 0,90,91
 298.560546875 1247.71777344 298.560546875 1247.71777344 275.100585938 1246.40039062 c 1,78,79
773.66015625 354.240234375 m 0,92,93
 906.037109375 372.189453125 906.037109375 372.189453125 984.791992188 291.672851562 c 0,94,95
 1007.29003906 267.7265625 1007.29003906 267.7265625 1021.30078125 239.440429688 c 0,94,95
 1061.94042969 153.471679688 1061.94042969 153.471679688 1031.79296875 69.2529296875 c 1,96,97
 1003.11621094 -4.091796875 1003.11621094 -4.091796875 931.100585938 -16.400390625 c 1,96,97
 788.77734375 -35.0654296875 788.77734375 -35.0654296875 710.244140625 54.6904296875 c 0,98,99
 692.24609375 76.056640625 692.24609375 76.056640625 680.180664062 100.040039062 c 0,98,99
 662.33203125 139.434570312 662.33203125 139.434570312 662.140625 198.440429688 c 0,100,101
 662.60546875 250.220703125 662.60546875 250.220703125 667.060546875 265.6796875 c 0,102,103
 688.233398438 336.255859375 688.233398438 336.255859375 766.892578125 352.958007812 c 0,104,105
 771.087890625 353.783203125 771.087890625 353.783203125 773.66015625 354.240234375 c 0,92,93
809.740234375 306.6796875 m 1,104,105
 785.390625 300.69140625 785.390625 300.69140625 765.459960938 288.639648438 c 0,106,107
 750.11328125 279.020507812 750.11328125 279.020507812 735.940429688 262.400390625 c 0,108,109
 712.430664062 231.395507812 712.430664062 231.395507812 709.700195312 205 c 0,110,111
 705.798828125 136.729492188 705.798828125 136.729492188 788.078125 71.279296875 c 0,112,113
 797.244140625 64.185546875 797.244140625 64.185546875 804.8203125 59.0400390625 c 0,112,113
 857.502929688 26.4697265625 857.502929688 26.4697265625 890.100585938 31.16015625 c 0,114,115
 914.090820312 34.2890625 914.090820312 34.2890625 936.020507812 47.5595703125 c 0,116,117
 948.994140625 57.2705078125 948.994140625 57.2705078125 967.180664062 75.4404296875 c 1,118,119
 1023.34960938 144.447265625 1023.34960938 144.447265625 949.091796875 232.625 c 0,120,121
 926.4375 258.669921875 926.4375 258.669921875 899.940429688 277.16015625 c 0,120,121
 848.890625 309.8984375 848.890625 309.8984375 809.740234375 306.6796875 c 1,104,105
EndSplineSet
EndChar

StartChar: parenleft
Encoding: 40 40 11
Width: 721
VWidth: 1639
GlyphClass: 2
Flags: W
LayerCount: 2
Fore
SplineSet
339.267578125 -188.599609375 m 1,0,1
 328.607421875 -169.740234375 328.607421875 -169.740234375 304.828125 -133.66015625 c 0,2,3
 280.799804688 -96.970703125 280.799804688 -96.970703125 270.387695312 -78.7197265625 c 0,2,3
 216.22265625 20.3740234375 216.22265625 20.3740234375 178.547851562 127.919921875 c 0,4,5
 44.72265625 501.009765625 44.72265625 501.009765625 138.900390625 906.317382812 c 0,6,7
 159.056640625 992.139648438 159.056640625 992.139648438 188.387695312 1072.55957031 c 0,6,7
 248.91796875 1232.71679688 248.91796875 1232.71679688 365.5078125 1403.83984375 c 0,8,9
 383.178710938 1428.41503906 383.178710938 1428.41503906 417.98828125 1472.71972656 c 0,10,11
 435.26171875 1494.29003906 435.26171875 1494.29003906 437.66796875 1495.6796875 c 0,12,13
 442.728515625 1495.78808594 442.728515625 1495.78808594 454.067382812 1487.48046875 c 1,14,15
 459.282226562 1497.90820312 459.282226562 1497.90820312 473.001953125 1489.71777344 c 0,16,17
 476.000976562 1488.04589844 476.000976562 1488.04589844 477.028320312 1487.48046875 c 1,16,17
 484.813476562 1501.75390625 484.813476562 1501.75390625 512.275390625 1474.87890625 c 0,18,19
 515.314453125 1472.06054688 515.314453125 1472.06054688 516.387695312 1471.08007812 c 0,18,19
 528.372070312 1460.80761719 528.372070312 1460.80761719 552.41015625 1439.8046875 c 0,20,21
 598.415039062 1399.70117188 598.415039062 1399.70117188 621.34765625 1380.87988281 c 1,20,-1
 621.34765625 1379.24023438 l 1,21,22
 612.438476562 1366.42382812 612.438476562 1366.42382812 621.34765625 1357.91992188 c 1,23,-1
 621.34765625 1356.28027344 l 1,24,25
 612.438476562 1343.46386719 612.438476562 1343.46386719 621.34765625 1334.95996094 c 1,26,-1
 621.34765625 1333.3203125 l 1,27,28
 511.568359375 1220.39355469 511.568359375 1220.39355469 431.107421875 1018.44042969 c 1,29,30
 346.272460938 800.500976562 346.272460938 800.500976562 337.627929688 634.6796875 c 0,31,32
 334.275390625 550.262695312 334.275390625 550.262695312 362.227539062 413.280273438 c 0,33,34
 423.3671875 129.770507812 423.3671875 129.770507812 549.1875 -27.8798828125 c 1,35,-1
 549.1875 -29.51953125 l 1,36,-1
 537.708007812 -36.080078125 l 1,37,-1
 549.1875 -50.83984375 l 1,38,-1
 549.1875 -52.48046875 l 1,39,-1
 537.708007812 -59.0400390625 l 1,40,-1
 549.1875 -73.7998046875 l 1,41,-1
 549.1875 -75.4404296875 l 1,42,-1
 445.868164062 -147.599609375 l 1,43,-1
 385.1875 -188.599609375 l 1,44,45
 377.743164062 -180.248046875 377.743164062 -180.248046875 362.227539062 -188.599609375 c 1,46,47
 354.783203125 -180.248046875 354.783203125 -180.248046875 339.267578125 -188.599609375 c 1,0,1
467.1875 1428.44042969 m 1,48,49
 452.321289062 1417.53808594 452.321289062 1417.53808594 413.286132812 1359.42578125 c 0,50,51
 409.096679688 1353.31835938 409.096679688 1353.31835938 406.5078125 1349.71972656 c 0,50,51
 330.88671875 1242.77246094 330.88671875 1242.77246094 272.028320312 1115.20019531 c 0,52,53
 147.061523438 844.952148438 147.061523438 844.952148438 149.028320312 575.639648438 c 1,54,55
 153.592773438 237.838867188 153.592773438 237.838867188 335.151367188 -64.33984375 c 0,56,57
 352.73828125 -93.416015625 352.73828125 -93.416015625 370.427734375 -119.719726562 c 1,56,-1
 411.427734375 -93.48046875 l 1,57,-1
 480.307617188 -45.919921875 l 1,58,59
 474.2890625 -31.2861328125 474.2890625 -31.2861328125 458.98828125 -9.83984375 c 1,60,61
 445.001953125 13.0927734375 445.001953125 13.0927734375 422.908203125 54.1201171875 c 1,62,63
 367.42578125 168.46484375 367.42578125 168.46484375 337.627929688 275.51953125 c 0,64,65
 278.3671875 493.087890625 278.3671875 493.087890625 291.708007812 682.240234375 c 0,66,67
 305.80859375 874.217773438 305.80859375 874.217773438 395.028320312 1085.6796875 c 1,68,69
 467.448242188 1263.30664062 467.448242188 1263.30664062 552.467773438 1353 c 1,70,-1
 552.467773438 1354.63964844 l 1,71,-1
 467.1875 1428.44042969 l 1,48,49
EndSplineSet
EndChar

StartChar: parenright
Encoding: 41 41 12
Width: 815
VWidth: 1639
GlyphClass: 2
Flags: W
LayerCount: 2
Fore
SplineSet
168.881835938 1385.79980469 m 1,0,1
 186.1015625 1398.09960938 186.1015625 1398.09960938 221.361328125 1421.87988281 c 0,2,3
 257.134765625 1446.06835938 257.134765625 1446.06835938 273.841796875 1457.95996094 c 0,2,3
 321.447265625 1492.58203125 321.447265625 1492.58203125 322.358398438 1493.03808594 c 0,4,5
 327.788085938 1495.75292969 327.788085938 1495.75292969 332.881835938 1497.3203125 c 1,4,-1
 337.801757812 1487.48046875 l 1,5,-1
 355.841796875 1497.3203125 l 1,6,-1
 360.76171875 1487.48046875 l 1,7,-1
 378.801757812 1497.3203125 l 1,8,9
 619.549804688 1141.07714844 619.549804688 1141.07714844 615.1875 705.836914062 c 0,10,11
 612.407226562 480.98828125 612.407226562 480.98828125 541.161132812 270.599609375 c 1,10,11
 479.412109375 93.67578125 479.412109375 93.67578125 357.481445312 -86.919921875 c 1,12,13
 320.991210938 -136.569335938 320.991210938 -136.569335938 303.361328125 -159.080078125 c 0,14,15
 300.97265625 -161.46875 300.97265625 -161.46875 295.620117188 -169.053710938 c 0,16,17
 285.084960938 -182.537109375 285.084960938 -182.537109375 280.401367188 -185.3203125 c 1,16,17
 274.60546875 -185.328125 274.60546875 -185.328125 264.000976562 -177.120117188 c 1,18,19
 256.071289062 -187.461914062 256.071289062 -187.461914062 241.041015625 -177.120117188 c 1,20,21
 232.928710938 -191.994140625 232.928710938 -191.994140625 209.319335938 -169.59375 c 0,22,23
 206.056640625 -166.623046875 206.056640625 -166.623046875 204.961914062 -165.639648438 c 2,22,23
 121.321289062 -91.83984375 l 1,24,25
 95.1259765625 -73.12890625 95.1259765625 -73.12890625 103.875 -62.9248046875 c 0,26,27
 106.802734375 -60.232421875 106.802734375 -60.232421875 108.201171875 -59.0400390625 c 2,26,-1
 108.201171875 -57.400390625 l 1,27,28
 95.802734375 -46.1953125 95.802734375 -46.1953125 108.201171875 -36.080078125 c 1,29,-1
 108.201171875 -34.4404296875 l 1,30,31
 99.912109375 -26.3876953125 99.912109375 -26.3876953125 100.000976562 -21.3203125 c 1,32,33
 103.944335938 -13.6630859375 103.944335938 -13.6630859375 119.681640625 1.6396484375 c 1,34,35
 133.958984375 18.0625 133.958984375 18.0625 155.76171875 49.2001953125 c 0,36,37
 238.095703125 161.9296875 238.095703125 161.9296875 303.361328125 334.559570312 c 0,38,39
 373.818359375 520.565429688 373.818359375 520.565429688 380.44140625 677.3203125 c 0,40,41
 382.28125 749.3515625 382.28125 749.3515625 365.681640625 841.3203125 c 1,42,43
 343.962890625 978.96484375 343.962890625 978.96484375 290.241210938 1120.12011719 c 1,44,45
 258.549804688 1198.53515625 258.549804688 1198.53515625 219.721679688 1262.79980469 c 0,46,47
 213.259765625 1273.13867188 213.259765625 1273.13867188 198.848632812 1293.25195312 c 0,48,49
 176.75390625 1324.57714844 176.75390625 1324.57714844 168.881835938 1339.87988281 c 1,48,-1
 178.721679688 1344.79980469 l 1,49,-1
 168.881835938 1362.83984375 l 1,50,-1
 178.721679688 1367.75976562 l 1,51,-1
 168.881835938 1385.79980469 l 1,0,1
347.641601562 1430.08007812 m 1,52,-1
 311.561523438 1407.12011719 l 1,53,-1
 236.12109375 1354.63964844 l 1,54,55
 313.213867188 1220.98730469 313.213867188 1220.98730469 336.161132812 1166.04003906 c 0,56,57
 442.657226562 892.556640625 442.657226562 892.556640625 426.361328125 629.759765625 c 0,58,59
 414.684570312 459.78125 414.684570312 459.78125 341.081054688 265.6796875 c 0,60,61
 295.365234375 148.30078125 295.365234375 148.30078125 237.76171875 55.759765625 c 0,62,63
 228.592773438 40.94921875 228.592773438 40.94921875 205.973632812 12.49609375 c 0,64,65
 175.852539062 -26.01953125 175.852539062 -26.01953125 165.6015625 -45.919921875 c 1,64,-1
 252.521484375 -119.719726562 l 1,65,66
 382.486328125 62.0966796875 382.486328125 62.0966796875 426.361328125 150.879882812 c 0,67,68
 569.041015625 447.215820312 569.041015625 447.215820312 569.041015625 728.16015625 c 0,69,70
 568.552734375 895.661132812 568.552734375 895.661132812 508.361328125 1090.59960938 c 0,71,72
 472.263671875 1212.02246094 472.263671875 1212.02246094 408.321289062 1330.04003906 c 0,73,74
 398.481445312 1347.25976562 398.481445312 1347.25976562 377.981445312 1380.05957031 c 0,75,76
 357.184570312 1413.47558594 357.184570312 1413.47558594 347.641601562 1430.08007812 c 1,52,-1
EndSplineSet
EndChar

StartChar: plus
Encoding: 43 43 14
Width: 984
VWidth: 1639
GlyphClass: 2
Flags: W
LayerCount: 2
Fore
SplineSet
421.279296875 841.3203125 m 1,0,-1
 649.239257812 829.83984375 l 1,1,-1
 644.319335938 806.879882812 l 1,2,-1
 649.239257812 806.879882812 l 1,3,-1
 644.319335938 783.919921875 l 1,4,-1
 649.239257812 783.919921875 l 1,5,-1
 619.719726562 610.080078125 l 1,6,-1
 608.239257812 506.759765625 l 1,7,8
 782.430664062 506.453125 782.430664062 506.453125 975.599609375 469.040039062 c 1,9,-1
 975.599609375 446.080078125 l 1,10,-1
 975.599609375 423.120117188 l 1,11,12
 972.319335938 403.440429688 972.319335938 403.440429688 965.759765625 364.900390625 c 0,13,14
 959.107421875 325.783203125 959.107421875 325.783203125 955.919921875 306.6796875 c 0,13,14
 949.401367188 264.990234375 949.401367188 264.990234375 947.719726562 262.400390625 c 0,15,16
 942.799804688 255.83984375 942.799804688 255.83984375 925.633789062 262.10546875 c 2,17,-1
 924.759765625 262.400390625 l 1,17,18
 919.284179688 257.46484375 919.284179688 257.46484375 901.799804688 262.400390625 c 1,19,20
 898.51953125 259.120117188 898.51953125 259.120117188 882.569335938 261.860351562 c 2,21,-1
 880.479492188 262.400390625 l 2,21,22
 871.459960938 263.219726562 871.459960938 263.219726562 853.419921875 265.6796875 c 0,23,24
 834.833007812 268.14453125 834.833007812 268.14453125 826.359375 268.959960938 c 0,23,24
 754.252929688 279.73828125 754.252929688 279.73828125 662.359375 285.360351562 c 0,25,26
 653.755859375 285.974609375 653.755859375 285.974609375 636.030273438 285.821289062 c 0,27,28
 605.708007812 285.90234375 605.708007812 285.90234375 591.83984375 288.639648438 c 1,27,-1
 593.479492188 127.919921875 l 1,28,-1
 606.599609375 1.6396484375 l 1,29,-1
 608.239257812 -50.83984375 l 1,30,-1
 465.559570312 -63.9599609375 l 1,31,-1
 380.279296875 -67.240234375 l 1,32,33
 367.208984375 93.4375 367.208984375 93.4375 367.16015625 288.639648438 c 1,34,35
 154.366210938 271.020507812 154.366210938 271.020507812 11.279296875 268.959960938 c 1,36,-1
 8 485.440429688 l 1,37,-1
 190.040039062 498.559570312 l 1,38,-1
 377 508.400390625 l 1,39,40
 377.986328125 575.485351562 377.986328125 575.485351562 411.598632812 777.8203125 c 0,41,42
 417.666015625 814.649414062 417.666015625 814.649414062 421.279296875 841.3203125 c 1,0,-1
559.040039062 460.83984375 m 1,41,42
 559.275390625 552.436523438 559.275390625 552.436523438 580.359375 700.280273438 c 0,43,44
 582 710.120117188 582 710.120117188 585.279296875 730.620117188 c 0,45,46
 588.6484375 751.611328125 588.6484375 751.611328125 590.200195312 760.959960938 c 0,45,46
 595.484375 776.813476562 595.484375 776.813476562 591.83984375 782.280273438 c 0,47,48
 590.200195312 787.200195312 590.200195312 787.200195312 573.076171875 785.872070312 c 0,49,50
 572.16015625 785.559570312 572.16015625 785.559570312 570.51953125 785.559570312 c 2,51,-1
 568.879882812 785.559570312 l 1,49,50
 556.580078125 787.200195312 556.580078125 787.200195312 531.16015625 788.01953125 c 0,51,52
 505.23828125 789.01171875 505.23828125 789.01171875 493.439453125 790.48046875 c 0,51,52
 472.256835938 794.467773438 472.256835938 794.467773438 467.200195312 788.83984375 c 1,53,54
 464.467773438 783.262695312 464.467773438 783.262695312 460.639648438 760.959960938 c 0,55,56
 459 750.299804688 459 750.299804688 455.719726562 729.799804688 c 0,57,58
 452.353515625 708.69921875 452.353515625 708.69921875 450.799804688 698.639648438 c 0,57,58
 423.110351562 534.369140625 423.110351562 534.369140625 422.919921875 462.48046875 c 1,59,-1
 235.959960938 452.639648438 l 1,60,-1
 53.919921875 439.51953125 l 1,61,-1
 57.2001953125 318.16015625 l 1,62,-1
 414.719726562 334.559570312 l 1,63,-1
 418 75.4404296875 l 1,64,-1
 422.919921875 9.83984375 l 1,65,-1
 427.83984375 -14.759765625 l 1,66,-1
 462.279296875 -13.1201171875 l 1,67,-1
 555.759765625 -4.919921875 l 1,68,-1
 544.279296875 144.3203125 l 1,69,-1
 545.919921875 334.559570312 l 1,70,71
 679.818359375 334.419921875 679.818359375 334.419921875 775.51953125 326.360351562 c 1,72,73
 903.439453125 311.599609375 l 1,74,-1
 921.479492188 424.759765625 l 1,75,76
 874.66015625 428.556640625 874.66015625 428.556640625 781.564453125 441.022460938 c 0,77,78
 633.580078125 460.83984375 633.580078125 460.83984375 559.040039062 460.83984375 c 1,41,42
EndSplineSet
EndChar

StartChar: hyphen
Encoding: 45 45 16
AltUni2: 002212.ffffffff.0 0000ad.ffffffff.0
Width: 1211
VWidth: 1639
GlyphClass: 2
Flags: W
LayerCount: 2
Fore
SplineSet
120 459.200195312 m 1,0,1
 124.221679688 459.350585938 124.221679688 459.350585938 239.587890625 475.205078125 c 0,2,3
 249.052734375 476.458007812 249.052734375 476.458007812 256.120117188 477.240234375 c 0,2,3
 433.486328125 494.841796875 433.486328125 494.841796875 552.959960938 496.919921875 c 0,4,5
 755.510742188 502.465820312 755.510742188 502.465820312 905.559570312 492 c 0,6,7
 927.87890625 490.190429688 927.87890625 490.190429688 973.521484375 485.227539062 c 0,8,9
 1053.01953125 476.711914062 1053.01953125 476.711914062 1090.87988281 475.599609375 c 1,8,9
 1087.83691406 458.244140625 1087.83691406 458.244140625 1090.87988281 452.639648438 c 1,10,11
 1087.83691406 435.284179688 1087.83691406 435.284179688 1090.87988281 429.6796875 c 1,12,13
 1084.51660156 403.37890625 1084.51660156 403.37890625 1072.83984375 305.040039062 c 0,14,15
 1072.38378906 302.301757812 1072.38378906 302.301757812 1071.95019531 293.171875 c 0,16,17
 1069.81445312 264.6875 1069.81445312 264.6875 1064.63964844 259.120117188 c 0,16,17
 1061.62695312 257.76171875 1061.62695312 257.76171875 1048.24023438 259.120117188 c 1,18,19
 1017.08007812 256.287109375 1017.08007812 256.287109375 992.479492188 260.759765625 c 0,20,21
 987.674804688 261.234375 987.674804688 261.234375 810.440429688 275.51953125 c 1,22,23
 616.9375 287.71484375 616.9375 287.71484375 425.040039062 275.51953125 c 0,24,25
 253.000976562 265.108398438 253.000976562 265.108398438 174.120117188 246 c 1,26,27
 168.64453125 250.934570312 168.64453125 250.934570312 151.16015625 246 c 1,28,29
 145.684570312 250.934570312 145.684570312 250.934570312 128.200195312 246 c 1,30,-1
 120 459.200195312 l 1,0,1
1038.40039062 429.6796875 m 1,31,32
 974.58984375 440.56640625 974.58984375 440.56640625 808.799804688 447.719726562 c 0,33,34
 572.254882812 457.666015625 572.254882812 457.666015625 349.599609375 436.240234375 c 0,35,36
 323.594726562 433.428710938 323.594726562 433.428710938 271.583007812 425.998046875 c 0,37,38
 201.6875 416.11328125 201.6875 416.11328125 167.559570312 413.280273438 c 1,37,-1
 174.120117188 300.120117188 l 1,38,39
 470.387695312 338.1484375 470.387695312 338.1484375 749.759765625 326.360351562 c 1,40,41
 926.879882812 316.51953125 l 2,42,43
 940.157226562 315.821289062 940.157226562 315.821289062 967.350585938 312.631835938 c 0,44,45
 1004.1171875 308.3203125 1004.1171875 308.3203125 1022 308.3203125 c 1,44,-1
 1038.40039062 429.6796875 l 1,31,32
EndSplineSet
EndChar

StartChar: period
Encoding: 46 46 17
Width: 682
VWidth: 1639
GlyphClass: 2
Flags: W
LayerCount: 2
Fore
SplineSet
214.799804688 347.6796875 m 1,0,1
 339.982421875 364.654296875 339.982421875 364.654296875 418.333984375 289.060546875 c 0,2,3
 444.268554688 262.979492188 444.268554688 262.979492188 459.16015625 231.240234375 c 0,2,3
 498.243164062 144.931640625 498.243164062 144.931640625 470.107421875 61.3857421875 c 1,4,5
 442.97265625 -11.7861328125 442.97265625 -11.7861328125 372.240234375 -22.9599609375 c 1,4,5
 216.547851562 -43.37890625 216.547851562 -43.37890625 138.828125 59.6669921875 c 0,6,7
 128.819335938 73.4130859375 128.819335938 73.4130859375 121.3203125 86.919921875 c 0,6,7
 100.260742188 130.748046875 100.260742188 130.748046875 100 190.240234375 c 0,8,9
 100.444335938 244.142578125 100.444335938 244.142578125 104.919921875 260.759765625 c 0,10,11
 130.9296875 332.5703125 130.9296875 332.5703125 214.799804688 347.6796875 c 1,0,1
250.879882812 300.120117188 m 1,12,13
 222.626953125 293.270507812 222.626953125 293.270507812 206.599609375 283.719726562 c 0,14,15
 185.533203125 270.651367188 185.533203125 270.651367188 175.440429688 257.48046875 c 0,16,17
 150.336914062 224.528320312 150.336914062 224.528320312 147.560546875 198.440429688 c 0,18,19
 141.931640625 134.650390625 141.931640625 134.650390625 219.990234375 69.7646484375 c 0,20,21
 231.360351562 60.5849609375 231.360351562 60.5849609375 241.040039062 54.1201171875 c 0,20,21
 295.487304688 20.3212890625 295.487304688 20.3212890625 326.3203125 22.9599609375 c 0,22,23
 350.310546875 26.0888671875 350.310546875 26.0888671875 372.240234375 39.3603515625 c 1,24,25
 395.313476562 56.6826171875 395.313476562 56.6826171875 403.400390625 67.240234375 c 0,26,27
 426.909179688 98.2451171875 426.909179688 98.2451171875 429.639648438 124.639648438 c 0,28,29
 430.1640625 134.411132812 430.1640625 134.411132812 421.440429688 167.280273438 c 1,30,31
 395.059570312 236.991210938 395.059570312 236.991210938 327.959960938 275.51953125 c 0,32,33
 281.282226562 303.026367188 281.282226562 303.026367188 250.879882812 300.120117188 c 1,12,13
EndSplineSet
EndChar

StartChar: slash
Encoding: 47 47 18
Width: 653
VWidth: 1639
GlyphClass: 2
Flags: W
LayerCount: 2
Fore
SplineSet
399.879882812 1353 m 1,0,-1
 422.83984375 1343.16015625 l 1,1,-1
 422.83984375 1353 l 1,2,-1
 445.799804688 1343.16015625 l 1,3,-1
 445.799804688 1353 l 1,4,5
 462.84765625 1347.88574219 462.84765625 1347.88574219 570.659179688 1299.13476562 c 0,6,7
 581.833984375 1294.140625 581.833984375 1294.140625 590.120117188 1290.6796875 c 0,6,7
 637.392578125 1272.19921875 637.392578125 1272.19921875 642.599609375 1266.08007812 c 0,8,9
 643.958984375 1263.06640625 643.958984375 1263.06640625 642.599609375 1249.6796875 c 1,10,11
 645.056640625 1217.97167969 645.056640625 1217.97167969 640.959960938 1193.91992188 c 0,12,13
 630.44140625 1094.80175781 630.44140625 1094.80175781 616.360351562 1005.3203125 c 0,14,15
 578.880859375 777.354492188 578.880859375 777.354492188 496.639648438 500.200195312 c 1,16,17
 456.393554688 355.779296875 456.393554688 355.779296875 413 234.51953125 c 1,18,19
 326.540039062 10.9697265625 326.540039062 10.9697265625 299.83984375 -42.6396484375 c 2,20,-1
 270.3203125 -101.6796875 l 2,21,22
 269.268554688 -103.256835938 269.268554688 -103.256835938 267.05859375 -108.342773438 c 0,23,24
 260.869140625 -120.180664062 260.869140625 -120.180664062 257.200195312 -123 c 1,23,24
 254.00390625 -123.033203125 254.00390625 -123.033203125 239.16015625 -116.440429688 c 1,25,26
 230.90625 -125.137695312 230.90625 -125.137695312 216.200195312 -116.440429688 c 1,27,28
 210.18359375 -127.26953125 210.18359375 -127.26953125 167.47265625 -105.133789062 c 0,29,30
 164.700195312 -103.790039062 164.700195312 -103.790039062 163.719726562 -103.3203125 c 0,29,30
 143.5234375 -94.1396484375 143.5234375 -94.1396484375 103.646484375 -75.3505859375 c 0,31,32
 36.3505859375 -43.71875 36.3505859375 -43.71875 3 -29.51953125 c 1,31,-1
 11.2001953125 -9.83984375 l 1,32,-1
 3 -6.5595703125 l 1,33,-1
 11.2001953125 13.1201171875 l 1,34,-1
 3 16.400390625 l 1,35,36
 20.4365234375 58.5390625 20.4365234375 58.5390625 57.2099609375 141.45703125 c 0,37,38
 103.528320312 246.073242188 103.528320312 246.073242188 124.360351562 298.48046875 c 0,37,38
 273.731445312 679.44921875 273.731445312 679.44921875 344.120117188 1002.04003906 c 1,39,40
 394.150390625 1222.25 394.150390625 1222.25 399.879882812 1353 c 1,0,-1
221.120117188 -62.3203125 m 1,41,42
 227.526367188 -47.6767578125 227.526367188 -47.6767578125 242.264648438 -19.6357421875 c 0,43,44
 253.9609375 2.7919921875 253.9609375 2.7919921875 258.83984375 13.1201171875 c 0,43,44
 285.731445312 72.1494140625 285.731445312 72.1494140625 331 185.3203125 c 0,45,46
 468.647460938 536.501953125 468.647460938 536.501953125 542.559570312 900.360351562 c 1,47,48
 573.173828125 1067.39941406 573.173828125 1067.39941406 583.559570312 1139.79980469 c 0,49,50
 589.793945312 1177.98339844 589.793945312 1177.98339844 591.759765625 1200.48046875 c 1,51,52
 591.759765625 1223.44042969 l 1,53,54
 587.255859375 1226.90625 587.255859375 1226.90625 552.400390625 1241.48046875 c 0,55,56
 541.385742188 1246.20019531 541.385742188 1246.20019531 518.854492188 1257.06347656 c 0,57,58
 469.817382812 1280.70703125 469.817382812 1280.70703125 444.16015625 1287.40039062 c 1,57,58
 418.361328125 1091.5390625 418.361328125 1091.5390625 398.240234375 990.559570312 c 0,59,60
 341.328125 720.80078125 341.328125 720.80078125 232.599609375 418.200195312 c 0,61,62
 183.942382812 280.288085938 183.942382812 280.288085938 129.280273438 154.16015625 c 0,63,64
 122.165039062 136.965820312 122.165039062 136.965820312 105.728515625 102.012695312 c 0,65,66
 76.4013671875 39.064453125 76.4013671875 39.064453125 66.9599609375 8.2001953125 c 1,65,-1
 221.120117188 -62.3203125 l 1,41,42
EndSplineSet
EndChar

StartChar: colon
Encoding: 58 58 29
Width: 694
VWidth: 1639
GlyphClass: 2
Flags: W
LayerCount: 2
Fore
SplineSet
272.200195312 831.48046875 m 1,0,1
 395.865234375 844.26953125 395.865234375 844.26953125 450.959960938 788.83984375 c 1,2,3
 491.576171875 744.409179688 491.576171875 744.409179688 491.959960938 662.559570312 c 0,4,5
 491.470703125 602.61328125 491.470703125 602.61328125 485.400390625 582.200195312 c 0,6,7
 462.783203125 508.696289062 462.783203125 508.696289062 384.8984375 474.491210938 c 0,8,9
 360.001953125 464.07421875 360.001953125 464.07421875 336.16015625 460.83984375 c 0,8,9
 201.124023438 445.825195312 201.124023438 445.825195312 139.360351562 510.040039062 c 0,10,11
 100.232421875 552.87890625 100.232421875 552.87890625 100 636.3203125 c 0,12,13
 101.186523438 718.955078125 101.186523438 718.955078125 137.720703125 764.240234375 c 1,14,15
 184.334960938 817.368164062 184.334960938 817.368164062 272.200195312 831.48046875 c 1,0,1
303.360351562 783.919921875 m 0,16,17
 221.450195312 772.75 221.450195312 772.75 173.888671875 706.571289062 c 0,18,19
 151.080078125 673.266601562 151.080078125 673.266601562 147.560546875 637.959960938 c 0,18,19
 142.3359375 580.4921875 142.3359375 580.4921875 212.872070312 534.232421875 c 0,20,21
 231.110351562 522.733398438 231.110351562 522.733398438 247.600585938 516.599609375 c 0,20,21
 277.963867188 505.213867188 277.963867188 505.213867188 291.879882812 506.759765625 c 0,22,23
 366.903320312 515.909179688 366.903320312 515.909179688 416.15625 580.985351562 c 0,24,25
 440.0234375 614.004882812 440.0234375 614.004882812 444.400390625 647.799804688 c 0,24,25
 450.23828125 710.555664062 450.23828125 710.555664062 388.056640625 757.366210938 c 0,26,27
 345.3125 788.098632812 345.3125 788.098632812 303.360351562 783.919921875 c 0,16,17
272.200195312 341.120117188 m 0,26,27
 399.533203125 353.908203125 399.533203125 353.908203125 454.240234375 296.83984375 c 1,28,29
 493.20703125 252.02734375 493.20703125 252.02734375 493.600585938 172.200195312 c 0,30,31
 493.110351562 112.252929688 493.110351562 112.252929688 487.040039062 91.83984375 c 0,32,33
 461.94140625 16.54296875 461.94140625 16.54296875 382.37890625 -16.962890625 c 0,34,35
 358.65234375 -26.46875 358.65234375 -26.46875 336.16015625 -29.51953125 c 0,34,35
 202.505859375 -44.3662109375 202.505859375 -44.3662109375 139.360351562 21.3203125 c 1,36,37
 102.038085938 64.6083984375 102.038085938 64.6083984375 101.640625 136.120117188 c 0,38,39
 102.056640625 193.712890625 102.056640625 193.712890625 106.560546875 211.559570312 c 0,40,41
 136.461914062 311.944335938 136.461914062 311.944335938 250.068359375 337.231445312 c 0,42,43
 261.799804688 339.694335938 261.799804688 339.694335938 272.200195312 341.120117188 c 0,26,27
303.360351562 293.559570312 m 0,42,43
 223.081054688 282.61328125 223.081054688 282.61328125 175.576171875 216.127929688 c 0,44,45
 152.762695312 182.650390625 152.762695312 182.650390625 149.200195312 147.599609375 c 0,44,45
 143.84765625 88.724609375 143.84765625 88.724609375 216.950195312 42.046875 c 0,46,47
 233.040039062 32.154296875 233.040039062 32.154296875 247.600585938 26.240234375 c 0,46,47
 274.306640625 16.822265625 274.306640625 16.822265625 291.879882812 16.400390625 c 1,48,49
 367.189453125 25.365234375 367.189453125 25.365234375 416.759765625 89.353515625 c 0,50,51
 441.560546875 122.86328125 441.560546875 122.86328125 446.040039062 157.440429688 c 0,50,51
 451.749023438 220.232421875 451.749023438 220.232421875 389.901367188 266.599609375 c 0,52,53
 346.298828125 297.856445312 346.298828125 297.856445312 303.360351562 293.559570312 c 0,42,43
EndSplineSet
EndChar

StartChar: equal
Encoding: 61 61 32
Width: 1057
VWidth: 1639
GlyphClass: 2
Flags: W
LayerCount: 2
Fore
SplineSet
8 647.799804688 m 1,0,1
 14.9541015625 648.024414062 14.9541015625 648.024414062 137.560546875 664.767578125 c 0,2,3
 150.599609375 666.486328125 150.599609375 666.486328125 160.520507812 667.48046875 c 0,2,3
 310.469726562 683.122070312 310.469726562 683.122070312 442.600585938 685.51953125 c 0,4,5
 645.150390625 691.06640625 645.150390625 691.06640625 795.200195312 680.599609375 c 0,6,7
 817.740234375 678.772460938 817.740234375 678.772460938 863.33203125 673.752929688 c 0,8,9
 941.263671875 665.306640625 941.263671875 665.306640625 978.879882812 664.200195312 c 1,8,-1
 977.240234375 610.080078125 l 1,9,-1
 955.919921875 446.080078125 l 1,10,11
 903.647460938 446.237304688 903.647460938 446.237304688 750.919921875 460.83984375 c 0,12,13
 609.5859375 474.307617188 609.5859375 474.307617188 440.959960938 469.040039062 c 0,14,15
 299.288085938 464.873046875 299.288085938 464.873046875 293.081054688 464.14453125 c 0,16,17
 280.520507812 462.578125 280.520507812 462.578125 270.400390625 460.83984375 c 0,16,17
 246.509765625 457.107421875 246.509765625 457.107421875 198.018554688 453.037109375 c 0,18,19
 139.38671875 447.952148438 139.38671875 447.952148438 111.3203125 442.799804688 c 0,18,19
 109.680664062 442.799804688 109.680664062 442.799804688 105.580078125 441.98046875 c 0,20,21
 101.48046875 441.16015625 101.48046875 441.16015625 98.2001953125 440.33984375 c 0,22,23
 94.919921875 439.51953125 94.919921875 439.51953125 89.1806640625 438.700195312 c 0,24,25
 83.4404296875 437.879882812 83.4404296875 437.879882812 79.33984375 437.059570312 c 0,26,27
 75.240234375 436.240234375 75.240234375 436.240234375 71.140625 436.240234375 c 0,28,29
 67.0400390625 436.240234375 67.0400390625 436.240234375 64.580078125 437.059570312 c 0,30,31
 62.1201171875 437.879882812 62.1201171875 437.879882812 62.1201171875 439.51953125 c 1,20,21
 41.1259765625 435.946289062 41.1259765625 435.946289062 39.16015625 439.51953125 c 1,22,-1
 16.2001953125 434.599609375 l 1,23,-1
 9.640625 572.360351562 l 1,24,-1
 8 647.799804688 l 1,0,1
926.400390625 618.280273438 m 1,25,26
 862.590820312 629.166015625 862.590820312 629.166015625 696.80078125 636.3203125 c 0,27,28
 433.390625 648.107421875 433.390625 648.107421875 57.2001953125 601.879882812 c 1,29,-1
 62.1201171875 488.719726562 l 1,30,31
 358.388671875 526.749023438 358.388671875 526.749023438 637.760742188 514.959960938 c 1,32,33
 639.385742188 514.870117188 l 1,34,-1
 641.01171875 514.779296875 l 1,35,-1
 642.637695312 514.689453125 l 1,36,-1
 644.264648438 514.598632812 l 1,37,-1
 645.892578125 514.508789062 l 1,38,-1
 647.520507812 514.418945312 l 1,39,-1
 649.1484375 514.328125 l 1,40,-1
 650.77734375 514.23828125 l 1,41,-1
 652.407226562 514.1484375 l 1,42,-1
 654.037109375 514.057617188 l 1,43,-1
 655.666992188 513.967773438 l 1,44,-1
 657.297851562 513.877929688 l 1,45,-1
 658.9296875 513.787109375 l 1,46,-1
 660.560546875 513.697265625 l 1,47,-1
 662.193359375 513.607421875 l 1,48,-1
 663.825195312 513.517578125 l 1,49,-1
 665.458007812 513.426757812 l 1,50,-1
 667.091796875 513.336914062 l 1,51,-1
 668.724609375 513.247070312 l 1,52,-1
 670.358398438 513.157226562 l 1,53,-1
 671.993164062 513.067382812 l 1,54,-1
 673.627929688 512.9765625 l 1,55,-1
 675.262695312 512.88671875 l 1,56,-1
 676.897460938 512.796875 l 1,57,-1
 678.533203125 512.70703125 l 1,58,-1
 680.168945312 512.6171875 l 1,59,-1
 681.8046875 512.52734375 l 1,60,-1
 683.44140625 512.4375 l 1,61,-1
 685.078125 512.346679688 l 1,62,-1
 686.71484375 512.256835938 l 1,63,-1
 688.352539062 512.166992188 l 1,64,-1
 689.989257812 512.077148438 l 1,65,-1
 691.626953125 511.987304688 l 1,66,-1
 693.264648438 511.897460938 l 1,67,-1
 694.903320312 511.807617188 l 1,68,-1
 696.541015625 511.717773438 l 1,69,-1
 698.1796875 511.627929688 l 1,70,-1
 699.818359375 511.538085938 l 1,71,-1
 701.45703125 511.448242188 l 1,72,-1
 703.095703125 511.358398438 l 1,73,-1
 704.734375 511.267578125 l 1,74,-1
 706.374023438 511.177734375 l 1,75,-1
 708.013671875 511.087890625 l 1,76,-1
 709.65234375 510.998046875 l 1,77,-1
 711.291992188 510.908203125 l 1,78,-1
 712.931640625 510.818359375 l 1,79,-1
 714.571289062 510.728515625 l 1,80,-1
 716.2109375 510.638671875 l 1,81,-1
 717.850585938 510.548828125 l 1,82,-1
 719.491210938 510.458984375 l 1,83,-1
 721.130859375 510.369140625 l 1,84,-1
 722.770507812 510.279296875 l 1,85,-1
 724.411132812 510.189453125 l 1,86,-1
 727.140625 510.040039062 l 1,87,-1
 728.788085938 509.950195312 l 1,88,-1
 730.435546875 509.859375 l 1,89,-1
 732.083007812 509.76953125 l 1,90,-1
 733.731445312 509.678710938 l 1,91,-1
 735.37890625 509.588867188 l 1,92,-1
 737.02734375 509.498046875 l 1,93,-1
 738.674804688 509.408203125 l 1,94,-1
 740.323242188 509.317382812 l 1,95,-1
 741.971679688 509.227539062 l 1,96,-1
 743.620117188 509.13671875 l 1,97,-1
 745.268554688 509.046875 l 1,98,-1
 746.916992188 508.956054688 l 1,99,-1
 748.565429688 508.866210938 l 1,100,-1
 750.213867188 508.775390625 l 1,101,-1
 751.861328125 508.684570312 l 1,102,-1
 753.509765625 508.594726562 l 1,103,-1
 755.158203125 508.50390625 l 1,104,-1
 756.806640625 508.4140625 l 1,105,-1
 758.455078125 508.323242188 l 1,106,-1
 760.103515625 508.232421875 l 1,107,-1
 761.750976562 508.142578125 l 1,108,-1
 763.399414062 508.051757812 l 1,109,-1
 765.046875 507.9609375 l 1,110,-1
 766.6953125 507.87109375 l 1,111,-1
 768.342773438 507.780273438 l 1,112,-1
 769.990234375 507.689453125 l 1,113,-1
 771.637695312 507.598632812 l 1,114,-1
 773.28515625 507.508789062 l 1,115,-1
 774.932617188 507.41796875 l 1,116,-1
 776.580078125 507.327148438 l 1,117,-1
 778.2265625 507.236328125 l 1,118,-1
 779.873046875 507.145507812 l 1,119,-1
 781.51953125 507.055664062 l 1,120,-1
 783.166015625 506.96484375 l 1,121,-1
 784.8125 506.874023438 l 1,122,-1
 786.458007812 506.783203125 l 1,123,-1
 788.103515625 506.692382812 l 1,124,-1
 789.749023438 506.6015625 l 1,125,-1
 791.39453125 506.510742188 l 1,126,-1
 793.0390625 506.419921875 l 1,127,-1
 794.68359375 506.329101562 l 1,128,-1
 796.328125 506.23828125 l 1,129,-1
 797.97265625 506.147460938 l 1,130,-1
 799.616210938 506.056640625 l 1,131,-1
 801.259765625 505.965820312 l 1,132,-1
 802.90234375 505.875 l 1,133,-1
 804.544921875 505.784179688 l 1,134,-1
 806.1875 505.693359375 l 1,135,-1
 807.830078125 505.602539062 l 1,136,-1
 809.471679688 505.510742188 l 1,137,-1
 811.11328125 505.419921875 l 1,138,-1
 812.75390625 505.329101562 l 1,139,-1
 814.39453125 505.23828125 l 1,140,-1
 816.520507812 505.120117188 l 2,34,35
 829.875 504.416992188 829.875 504.416992188 856.583007812 501.204101562 c 0,36,37
 892.194335938 496.919921875 892.194335938 496.919921875 910 496.919921875 c 1,36,-1
 926.400390625 618.280273438 l 1,25,26
86.720703125 93.48046875 m 1,37,38
 86.5595703125 177.734375 86.5595703125 177.734375 80.16015625 242.719726562 c 0,39,40
 78.5205078125 242.719726562 78.5205078125 242.719726562 79.33984375 264.860351562 c 2,41,-1
 80.16015625 287 l 1,41,42
 80.16015625 303.400390625 l 1,43,44
 82.9501953125 305.638671875 82.9501953125 305.638671875 96.560546875 308.3203125 c 0,45,46
 103.940429688 309.139648438 103.940429688 309.139648438 119.520507812 311.599609375 c 0,47,48
 135.575195312 314.06640625 135.575195312 314.06640625 142.48046875 314.879882812 c 0,47,48
 292.6328125 331.47265625 292.6328125 331.47265625 317.959960938 332.919921875 c 0,49,50
 564.583984375 350.532226562 564.583984375 350.532226562 795.200195312 341.120117188 c 0,51,52
 796.985351562 341.015625 796.985351562 341.015625 955.919921875 331.280273438 c 0,53,54
 1020.79785156 327.606445312 1020.79785156 327.606445312 1049.40039062 321.440429688 c 1,55,-1
 1049.40039062 298.48046875 l 1,56,-1
 1049.40039062 275.51953125 l 1,57,-1
 1024.80078125 103.3203125 l 1,58,-1
 1001.83984375 103.3203125 l 1,59,-1
 978.879882812 103.3203125 l 1,60,61
 939.045898438 113.036132812 939.045898438 113.036132812 794.998046875 119.844726562 c 0,62,63
 780.047851562 120.58984375 780.047851562 120.58984375 768.959960938 121.360351562 c 0,62,63
 560.942382812 134.318359375 560.942382812 134.318359375 380.280273438 123 c 0,64,65
 303.924804688 118.125 303.924804688 118.125 224.48046875 108.240234375 c 1,66,67
 142.826171875 93.921875 142.826171875 93.921875 139.200195312 93.48046875 c 2,68,69
 86.720703125 93.48046875 l 1,37,38
996.919921875 277.16015625 m 1,70,71
 966.853515625 278.071289062 966.853515625 278.071289062 906.720703125 284.955078125 c 0,72,73
 858.067382812 290.438476562 858.067382812 290.438476562 834.560546875 291.919921875 c 0,72,73
 656.803710938 303.024414062 656.803710938 303.024414062 524.600585938 296.83984375 c 0,74,75
 409.862304688 292.333007812 409.862304688 292.333007812 268.760742188 278.799804688 c 0,76,77
 250.704101562 276.865234375 250.704101562 276.865234375 213.46875 270.950195312 c 0,78,79
 155.095703125 261.87109375 155.095703125 261.87109375 127.720703125 260.759765625 c 1,78,-1
 132.640625 147.599609375 l 1,79,80
 165.5390625 149.427734375 165.5390625 149.427734375 232.294921875 158.16796875 c 0,81,82
 285.788085938 165.094726562 285.788085938 165.094726562 311.400390625 167.280273438 c 0,81,82
 516.684570312 180.935546875 516.684570312 180.935546875 749.280273438 170.559570312 c 0,83,84
 932.494140625 162.38671875 932.494140625 162.38671875 980.520507812 154.16015625 c 1,85,-1
 996.919921875 277.16015625 l 1,70,71
EndSplineSet
EndChar

StartChar: bracketleft
Encoding: 91 91 62
Width: 628
VWidth: 1639
GlyphClass: 2
Flags: W
LayerCount: 2
Fore
SplineSet
100 1841.71972656 m 1,0,-1
 528.040039062 1841.71972656 l 1,1,-1
 528.040039062 1722 l 1,2,-1
 314.840820312 1722 l 1,3,-1
 314.840820312 -24.599609375 l 1,4,-1
 528.040039062 -24.599609375 l 1,5,-1
 528.040039062 -144.3203125 l 1,6,-1
 100 -144.3203125 l 1,7,-1
 100 1841.71972656 l 1,0,-1
482.120117188 1795.79980469 m 1,8,-1
 145.919921875 1795.79980469 l 1,9,-1
 145.919921875 -98.400390625 l 1,10,-1
 482.120117188 -98.400390625 l 1,11,-1
 482.120117188 -70.51953125 l 1,12,-1
 268.919921875 -70.51953125 l 1,13,-1
 268.919921875 1767.91992188 l 1,14,-1
 482.120117188 1767.91992188 l 1,15,-1
 482.120117188 1795.79980469 l 1,8,-1
EndSplineSet
EndChar

StartChar: bracketright
Encoding: 93 93 64
Width: 680
VWidth: 1639
GlyphClass: 2
Flags: W
LayerCount: 2
Fore
SplineSet
100 1838.44042969 m 1,0,-1
 480.479492188 1838.44042969 l 1,1,-1
 480.479492188 -144.3203125 l 1,2,-1
 100 -144.3203125 l 1,3,-1
 100 -24.599609375 l 1,4,-1
 265.639648438 -24.599609375 l 1,5,-1
 265.639648438 1720.36035156 l 1,6,-1
 100 1720.36035156 l 1,7,-1
 100 1838.44042969 l 1,0,-1
434.559570312 1792.51953125 m 1,8,-1
 145.919921875 1792.51953125 l 1,9,-1
 145.919921875 1766.28027344 l 1,10,-1
 311.559570312 1766.28027344 l 1,11,-1
 311.559570312 -70.51953125 l 1,12,-1
 145.919921875 -70.51953125 l 1,13,-1
 145.919921875 -98.400390625 l 1,14,-1
 434.559570312 -98.400390625 l 1,15,-1
 434.559570312 1792.51953125 l 1,8,-1
EndSplineSet
EndChar

StartChar: guillemotleft
Encoding: 171 171 175
Width: 1072
VWidth: 1639
GlyphClass: 2
Flags: W
LayerCount: 2
Fore
SplineSet
719.318359375 885.599609375 m 1,0,-1
 727.518554688 874.120117188 l 1,1,-1
 743.91796875 885.599609375 l 1,2,-1
 750.478515625 874.120117188 l 1,3,-1
 766.877929688 885.599609375 l 1,4,5
 779.505859375 864.92578125 779.505859375 864.92578125 850.518554688 769.16015625 c 1,6,7
 874.555664062 740.315429688 874.555664062 740.315429688 869.797851562 731.897460938 c 0,8,9
 867.98828125 728.6953125 867.98828125 728.6953125 863.637695312 726.51953125 c 1,8,9
 873.303710938 709.861328125 873.303710938 709.861328125 863.637695312 703.559570312 c 1,10,11
 871.870117188 688.905273438 871.870117188 688.905273438 871.837890625 687.16015625 c 0,12,13
 867.708984375 679.485351562 867.708984375 679.485351562 848.877929688 665.83984375 c 1,14,15
 827.639648438 647.875976562 827.639648438 647.875976562 793.118164062 613.360351562 c 0,16,17
 697.3984375 515.76953125 697.3984375 515.76953125 696.358398438 424.759765625 c 0,18,19
 695.048828125 385.060546875 695.048828125 385.060546875 719.318359375 332.919921875 c 1,20,21
 752.11328125 270.981445312 752.11328125 270.981445312 809.518554688 213.200195312 c 0,22,23
 811.890625 210.827148438 811.890625 210.827148438 818.171875 205.69140625 c 0,24,25
 841.331054688 183.333007812 841.331054688 183.333007812 829.198242188 172.200195312 c 1,24,-1
 829.198242188 170.559570312 l 1,25,26
 841.596679688 159.35546875 841.596679688 159.35546875 829.198242188 149.240234375 c 1,27,-1
 829.198242188 147.599609375 l 1,28,29
 843.93359375 136.8828125 843.93359375 136.8828125 816.4140625 108.9140625 c 0,30,31
 812.548828125 104.836914062 812.548828125 104.836914062 811.158203125 103.3203125 c 0,30,31
 732.040039062 12.1201171875 732.040039062 12.1201171875 712.7578125 -13.1201171875 c 1,32,-1
 699.637695312 -1.6396484375 l 1,33,-1
 697.998046875 -1.6396484375 l 1,34,-1
 689.797851562 -13.1201171875 l 1,35,-1
 676.677734375 -1.6396484375 l 1,36,-1
 675.038085938 -1.6396484375 l 1,37,-1
 666.837890625 -13.1201171875 l 1,38,39
 612.489257812 23.357421875 612.489257812 23.357421875 556.958007812 100.040039062 c 1,40,41
 511.377929688 158.489257812 511.377929688 158.489257812 483.158203125 229.599609375 c 1,42,43
 430.57421875 371.578125 430.57421875 371.578125 463.478515625 513.3203125 c 0,44,45
 510.547851562 715.048828125 510.547851562 715.048828125 713.173828125 880.623046875 c 0,46,47
 717.061523438 883.779296875 717.061523438 883.779296875 719.318359375 885.599609375 c 1,0,-1
315.877929688 -13.1201171875 m 1,46,47
 271.697265625 16.494140625 271.697265625 16.494140625 215.837890625 85.2802734375 c 0,48,49
 87.9365234375 245.157226562 87.9365234375 245.157226562 101.255859375 439.231445312 c 0,50,51
 103.318359375 469.290039062 103.318359375 469.290039062 109.23828125 498.559570312 c 0,50,51
 122.21484375 559.1640625 122.21484375 559.1640625 158.438476562 634.6796875 c 1,52,53
 215.392578125 747.061523438 215.392578125 747.061523438 307.677734375 834.759765625 c 0,54,55
 310.684570312 837.569335938 310.684570312 837.569335938 350.318359375 872.48046875 c 1,56,57
 366.043945312 881.926757812 366.043945312 881.926757812 368.358398438 882.3203125 c 0,58,59
 372.389648438 880.573242188 372.389648438 880.573242188 378.198242188 874.120117188 c 1,60,61
 392.294921875 884.309570312 392.294921875 884.309570312 399.518554688 874.120117188 c 1,62,-1
 401.158203125 874.120117188 l 1,63,64
 414.73828125 889.05859375 414.73828125 889.05859375 430.0859375 865.78125 c 0,65,66
 434.375976562 859.438476562 434.375976562 859.438476562 435.598632812 857.719726562 c 0,65,66
 463.416015625 817.19140625 463.416015625 817.19140625 501.198242188 765.879882812 c 0,67,68
 519.1640625 740.728515625 519.1640625 740.728515625 519.541992188 738.546875 c 0,69,70
 518.440429688 730.694335938 518.440429688 730.694335938 512.677734375 726.51953125 c 1,69,70
 522.122070312 710.516601562 522.122070312 710.516601562 512.677734375 703.559570312 c 1,71,72
 520.91015625 688.905273438 520.91015625 688.905273438 520.877929688 687.16015625 c 0,73,74
 516.749023438 679.485351562 516.749023438 679.485351562 497.91796875 665.83984375 c 1,75,76
 476.6796875 647.875976562 476.6796875 647.875976562 442.158203125 613.360351562 c 0,77,78
 346.848632812 516.22265625 346.848632812 516.22265625 343.7578125 424.759765625 c 1,79,80
 344.395507812 387.706054688 344.395507812 387.706054688 366.717773438 336.200195312 c 1,81,82
 398.951171875 273.170898438 398.951171875 273.170898438 458.55859375 213.200195312 c 0,83,84
 460.8203125 210.9375 460.8203125 210.9375 466.61328125 206.055664062 c 0,85,86
 489.458007812 183.473632812 489.458007812 183.473632812 478.23828125 172.200195312 c 1,85,-1
 478.23828125 170.559570312 l 1,86,87
 489.369140625 159.877929688 489.369140625 159.877929688 478.23828125 149.240234375 c 1,88,-1
 478.23828125 147.599609375 l 1,89,90
 492.973632812 136.8828125 492.973632812 136.8828125 465.454101562 108.9140625 c 0,91,92
 461.588867188 104.836914062 461.588867188 104.836914062 460.198242188 103.3203125 c 0,91,92
 375.788085938 6.2490234375 375.788085938 6.2490234375 372.844726562 2.3203125 c 0,93,94
 366.440429688 -6.37109375 366.440429688 -6.37109375 361.797851562 -13.1201171875 c 1,93,-1
 348.677734375 -1.6396484375 l 1,94,-1
 347.038085938 -1.6396484375 l 1,95,-1
 338.837890625 -13.1201171875 l 1,96,-1
 325.717773438 -1.6396484375 l 1,97,-1
 324.078125 -1.6396484375 l 1,98,-1
 315.877929688 -13.1201171875 l 1,46,47
386.3984375 816.719726562 m 1,99,100
 348.24609375 789.909179688 348.24609375 789.909179688 292.91796875 721.599609375 c 0,101,102
 155.333984375 546.284179688 155.333984375 546.284179688 148.598632812 408.360351562 c 0,103,104
 147.51953125 384.297851562 147.51953125 384.297851562 161.717773438 331.280273438 c 0,105,106
 187.30859375 227.598632812 187.30859375 227.598632812 265.038085938 127.919921875 c 0,107,108
 304.604492188 76.4443359375 304.604492188 76.4443359375 335.55859375 55.759765625 c 1,109,-1
 420.837890625 157.440429688 l 1,110,-1
 420.837890625 159.080078125 l 1,111,112
 345.9453125 233.973632812 345.9453125 233.973632812 319.158203125 295.200195312 c 0,113,114
 297.99609375 343.073242188 297.99609375 343.073242188 297.837890625 418.200195312 c 0,115,116
 298.651367188 512.727539062 298.651367188 512.727539062 330.637695312 575.639648438 c 0,117,118
 355.818359375 622.025390625 355.818359375 622.025390625 437.5625 698.369140625 c 0,119,120
 449.803710938 709.848632812 449.803710938 709.848632812 456.91796875 716.6796875 c 1,119,-1
 456.91796875 718.3203125 l 1,120,-1
 386.3984375 816.719726562 l 1,99,100
737.358398438 816.719726562 m 1,121,122
 701.952148438 791.224609375 701.952148438 791.224609375 648.797851562 728.16015625 c 0,123,124
 504.5703125 552.71484375 504.5703125 552.71484375 499.55859375 406.719726562 c 0,125,126
 500.022460938 374.237304688 500.022460938 374.237304688 515.958007812 319.799804688 c 0,127,128
 545.536132812 216.548828125 545.536132812 216.548828125 615.998046875 127.919921875 c 0,129,130
 660.327148438 74.3115234375 660.327148438 74.3115234375 686.518554688 55.759765625 c 1,131,132
 699.393554688 72.669921875 699.393554688 72.669921875 748.837890625 129.559570312 c 0,133,134
 750.330078125 131.549804688 750.330078125 131.549804688 755.704101562 137.017578125 c 0,135,136
 769.038085938 151.85546875 769.038085938 151.85546875 770.158203125 157.440429688 c 0,135,136
 770.158203125 162.360351562 770.158203125 162.360351562 764.41796875 169.740234375 c 0,137,138
 758.677734375 177.120117188 758.677734375 177.120117188 747.198242188 186.959960938 c 2,139,-1
 735.717773438 196.799804688 l 1,137,138
 690.747070312 248.671875 690.747070312 248.671875 671.7578125 291.919921875 c 0,139,140
 649.021484375 343.2265625 649.021484375 343.2265625 648.797851562 414.919921875 c 0,141,142
 649.245117188 486.043945312 649.245117188 486.043945312 658.637695312 521.51953125 c 0,143,144
 690.631835938 626.641601562 690.631835938 626.641601562 794.903320312 705.635742188 c 0,145,146
 802.197265625 711.060546875 802.197265625 711.060546875 807.877929688 715.040039062 c 1,145,-1
 786.55859375 747.83984375 l 1,146,-1
 737.358398438 816.719726562 l 1,121,122
EndSplineSet
EndChar

StartChar: guillemotright
Encoding: 187 187 176
Width: 1074
VWidth: 1639
GlyphClass: 2
Flags: W
LayerCount: 2
Fore
SplineSet
260.720703125 883.959960938 m 1,0,-1
 275.48046875 872.48046875 l 1,1,-1
 283.680664062 883.959960938 l 1,2,-1
 285.3203125 883.959960938 l 1,3,-1
 298.440429688 872.48046875 l 1,4,-1
 306.640625 883.959960938 l 1,5,-1
 308.280273438 883.959960938 l 1,6,7
 405.54296875 794.693359375 405.54296875 794.693359375 450.959960938 721.599609375 c 1,8,9
 550.461914062 554.436523438 550.461914062 554.436523438 511.25390625 366.177734375 c 0,10,11
 499.134765625 310.048828125 499.134765625 310.048828125 475.560546875 260.759765625 c 0,10,11
 414.75390625 138.111328125 414.75390625 138.111328125 319.760742188 42.6396484375 c 0,12,13
 315.520507812 38.5693359375 315.520507812 38.5693359375 270.560546875 -1.6396484375 c 1,14,15
 251.204101562 -11.30859375 251.204101562 -11.30859375 245.959960938 -3.2802734375 c 1,16,17
 228.26953125 -11.619140625 228.26953125 -11.619140625 223 -3.2802734375 c 1,18,19
 214.491210938 -10.2685546875 214.491210938 -10.2685546875 208.240234375 -11.48046875 c 1,20,21
 202.334960938 -9.8115234375 202.334960938 -9.8115234375 196.760742188 0 c 2,22,-1
 172.16015625 34.4404296875 l 2,23,24
 164.33203125 44.5517578125 164.33203125 44.5517578125 121.3203125 104.959960938 c 0,25,26
 101.715820312 130.344726562 101.715820312 130.344726562 100 134.48046875 c 0,27,28
 100 136.940429688 100 136.940429688 102.459960938 140.219726562 c 0,29,30
 104.490234375 144.489257812 104.490234375 144.489257812 104.919921875 145.959960938 c 0,29,30
 104.919921875 148.419921875 104.919921875 148.419921875 102.459960938 152.51953125 c 0,31,32
 100.404296875 157.369140625 100.404296875 157.369140625 100 159.080078125 c 0,31,32
 100 160.719726562 100 160.719726562 102.459960938 164 c 0,33,34
 104.46484375 167.827148438 104.46484375 167.827148438 104.919921875 168.919921875 c 0,33,34
 104.919921875 171.379882812 104.919921875 171.379882812 102.459960938 176.299804688 c 0,35,36
 100.377929688 181.766601562 100.377929688 181.766601562 100 183.6796875 c 0,35,36
 101.823242188 190.061523438 101.823242188 190.061523438 132.020507812 213.297851562 c 0,37,38
 136.048828125 216.62890625 136.048828125 216.62890625 137.720703125 218.120117188 c 0,37,38
 193.34765625 268.17578125 193.34765625 268.17578125 221.360351562 305.040039062 c 1,39,40
 249.310546875 346.139648438 249.310546875 346.139648438 260.720703125 373.919921875 c 0,41,42
 274.551757812 411.197265625 274.551757812 411.197265625 277.120117188 442.799804688 c 0,43,44
 281.662109375 535.155273438 281.662109375 535.155273438 167.637695312 652.162109375 c 0,45,46
 158.766601562 661.22265625 158.766601562 661.22265625 132.80078125 687.16015625 c 1,45,-1
 132.80078125 688.799804688 l 1,46,47
 141.1875 700.770507812 141.1875 700.770507812 132.80078125 710.120117188 c 1,48,-1
 132.80078125 711.759765625 l 1,49,50
 141.1875 723.731445312 141.1875 723.731445312 132.80078125 733.080078125 c 1,51,-1
 132.80078125 734.719726562 l 1,52,-1
 260.720703125 883.959960938 l 1,0,-1
611.680664062 883.959960938 m 1,53,-1
 626.440429688 872.48046875 l 1,54,-1
 634.640625 883.959960938 l 1,55,-1
 636.280273438 883.959960938 l 1,56,-1
 649.400390625 872.48046875 l 1,57,-1
 657.600585938 883.959960938 l 1,58,-1
 659.240234375 883.959960938 l 1,59,60
 763.279296875 792.608398438 763.279296875 792.608398438 815.040039062 698.639648438 c 0,61,62
 900.125976562 540.286132812 900.125976562 540.286132812 862.10546875 362.10546875 c 0,63,64
 858.48046875 345.666992188 858.48046875 345.666992188 854.400390625 331.280273438 c 0,63,64
 809.00390625 181.543945312 809.00390625 181.543945312 677.280273438 49.2001953125 c 0,65,66
 645.3125 17.5498046875 645.3125 17.5498046875 628.080078125 3.2802734375 c 0,67,68
 626.5703125 2.2734375 626.5703125 2.2734375 622.71875 -1.166015625 c 0,69,70
 611.849609375 -9.7802734375 611.849609375 -9.7802734375 606.760742188 -11.48046875 c 0,69,70
 604.30078125 -11.48046875 604.30078125 -11.48046875 601.020507812 -9.01953125 c 0,71,72
 596.750976562 -6.990234375 596.750976562 -6.990234375 595.280273438 -6.5595703125 c 0,71,72
 592.8203125 -6.5595703125 592.8203125 -6.5595703125 588.720703125 -9.01953125 c 0,73,74
 583.87109375 -11.076171875 583.87109375 -11.076171875 582.16015625 -11.48046875 c 0,73,74
 580.520507812 -11.48046875 580.520507812 -11.48046875 577.240234375 -9.01953125 c 0,75,76
 573.4140625 -7.015625 573.4140625 -7.015625 572.3203125 -6.5595703125 c 0,75,76
 570.133789062 -6.5595703125 570.133789062 -6.5595703125 565.760742188 -9.1513671875 c 0,77,78
 559.747070312 -11.48046875 559.747070312 -11.48046875 557.560546875 -11.48046875 c 0,77,78
 552.640625 -9.83984375 552.640625 -9.83984375 546.900390625 -3.2802734375 c 0,79,80
 541.16015625 3.2802734375 541.16015625 3.2802734375 534.600585938 14.759765625 c 2,81,-1
 528.040039062 26.240234375 l 1,79,80
 458.7421875 121.524414062 458.7421875 121.524414062 458.268554688 122.296875 c 0,81,82
 453.033203125 131.0078125 453.033203125 131.0078125 449.3203125 137.759765625 c 1,81,82
 456.669921875 146.794921875 456.669921875 146.794921875 449.3203125 160.719726562 c 1,83,84
 456.669921875 169.754882812 456.669921875 169.754882812 449.3203125 183.6796875 c 1,85,86
 462.509765625 194.064453125 462.509765625 194.064453125 510 237.799804688 c 1,87,88
 630.668945312 357.018554688 630.668945312 357.018554688 628.080078125 454.280273438 c 1,89,90
 625.352539062 494.065429688 625.352539062 494.065429688 601.840820312 544.48046875 c 1,91,92
 578.642578125 587.849609375 578.642578125 587.849609375 528.040039062 644.51953125 c 0,93,94
 524.4296875 648.130859375 524.4296875 648.130859375 514.336914062 656.22265625 c 0,95,96
 491.169921875 675.971679688 491.169921875 675.971679688 487.040039062 685.51953125 c 0,95,96
 486.220703125 687.98046875 486.220703125 687.98046875 488.680664062 692.900390625 c 0,97,98
 490.328125 698.366210938 490.328125 698.366210938 490.3203125 700.280273438 c 0,97,98
 490.3203125 702.740234375 490.3203125 702.740234375 488.680664062 706.01953125 c 0,99,100
 487.327148438 710.290039062 487.327148438 710.290039062 487.040039062 711.759765625 c 0,99,100
 487.040039062 713.962890625 487.040039062 713.962890625 488.96875 716.984375 c 0,101,102
 491.2265625 720.522460938 491.2265625 720.522460938 490.3203125 723.240234375 c 0,101,102
 490.3203125 725.700195312 490.3203125 725.700195312 488.680664062 728.98046875 c 0,103,104
 487.327148438 733.25 487.327148438 733.25 487.040039062 734.719726562 c 0,103,104
 488.01953125 742.553710938 488.01953125 742.553710938 516.313476562 771.845703125 c 0,105,106
 518.8984375 774.676757812 518.8984375 774.676757812 519.840820312 775.719726562 c 0,105,106
 588.403320312 859.518554688 588.403320312 859.518554688 611.680664062 883.959960938 c 1,53,-1
288.600585938 815.080078125 m 1,107,108
 271.944335938 803.62890625 271.944335938 803.62890625 228.138671875 746.228515625 c 0,109,110
 225.395507812 742.633789062 225.395507812 742.633789062 223 739.639648438 c 0,109,110
 221.62890625 737.811523438 221.62890625 737.811523438 216.850585938 732.875 c 0,111,112
 203.512695312 717.557617188 203.512695312 717.557617188 203.3203125 711.759765625 c 1,111,112
 206.463867188 704.043945312 206.463867188 704.043945312 232.840820312 678.959960938 c 1,113,114
 261.122070312 647.561523438 261.122070312 647.561523438 280.400390625 616.639648438 c 0,115,116
 330.127929688 539.19140625 330.127929688 539.19140625 324.680664062 413.280273438 c 1,117,118
 318.728515625 314.616210938 318.728515625 314.616210938 245.959960938 232.879882812 c 0,119,120
 218.3125 203.016601562 218.3125 203.016601562 190.200195312 177.120117188 c 0,121,122
 169.78515625 160.436523438 169.78515625 160.436523438 167.240234375 154.16015625 c 1,123,124
 168.162109375 148.256835938 168.162109375 148.256835938 183.640625 126.280273438 c 0,125,126
 219.916015625 79.7138671875 219.916015625 79.7138671875 234.48046875 55.759765625 c 1,127,128
 247.727539062 61.8759765625 247.727539062 61.8759765625 277.120117188 91.83984375 c 0,129,130
 319.376953125 134.5703125 319.376953125 134.5703125 362.400390625 193.51953125 c 1,131,132
 463.625976562 340.610351562 463.625976562 340.610351562 472.280273438 454.280273438 c 1,133,134
 473.791015625 497.379882812 473.791015625 497.379882812 455.879882812 557.599609375 c 0,135,136
 418.541015625 684.768554688 418.541015625 684.768554688 288.600585938 815.080078125 c 1,107,108
639.560546875 815.080078125 m 1,137,138
 628.311523438 806.081054688 628.311523438 806.081054688 580.86328125 747.87109375 c 0,139,140
 576.58203125 742.708984375 576.58203125 742.708984375 573.959960938 739.639648438 c 0,139,140
 572.588867188 737.811523438 572.588867188 737.811523438 567.810546875 732.875 c 0,141,142
 553.09765625 717.674804688 553.09765625 717.674804688 554.280273438 711.759765625 c 0,141,142
 557.372070312 704.087890625 557.372070312 704.087890625 585.440429688 677.3203125 c 1,143,144
 617.553710938 641.923828125 617.553710938 641.923828125 637.919921875 608.440429688 c 0,145,146
 702.061523438 501.538085938 702.061523438 501.538085938 667.9609375 364.763671875 c 0,147,148
 658.893554688 328.391601562 658.893554688 328.391601562 642.840820312 296.83984375 c 0,147,148
 614.336914062 243.970703125 614.336914062 243.970703125 567.400390625 201.719726562 c 0,149,150
 561.66015625 195.98046875 561.66015625 195.98046875 549.360351562 185.3203125 c 0,151,152
 536.603515625 174.073242188 536.603515625 174.073242188 531.3203125 168.919921875 c 2,151,152
 518.200195312 155.799804688 l 1,153,154
 518.200195312 152.51953125 518.200195312 152.51953125 519.840820312 147.599609375 c 0,155,156
 521.48046875 142.6796875 521.48046875 142.6796875 526.400390625 136.940429688 c 2,157,-1
 531.3203125 131.200195312 l 1,155,156
 570.680664062 77.080078125 l 2,157,158
 583.908203125 59.0576171875 583.908203125 59.0576171875 587.080078125 57.400390625 c 1,159,160
 593.146484375 58.6943359375 593.146484375 58.6943359375 600.200195312 65.599609375 c 0,161,162
 611.623046875 75.3916015625 611.623046875 75.3916015625 629.720703125 93.48046875 c 0,163,164
 694.76171875 159.236328125 694.76171875 159.236328125 736.3203125 227.959960938 c 0,165,166
 824.879882812 371.018554688 824.879882812 371.018554688 824.879882812 465.759765625 c 0,167,168
 824.879882812 500.200195312 824.879882812 500.200195312 804.014648438 569.206054688 c 2,169,-1
 803.560546875 570.719726562 l 1,169,170
 759.70703125 697.227539062 759.70703125 697.227539062 639.560546875 815.080078125 c 1,137,138
EndSplineSet
EndChar

StartChar: guilsinglleft
Encoding: 8249 8249 195
Width: 566
GlyphClass: 2
Flags: W
LayerCount: 2
Fore
SplineSet
350 70 m 1,0,1
 363 48 363 48 363 35 c 0,2,3
 363 26 363 26 352 26 c 0,4,5
 343 26 343 26 326 33 c 1,6,7
 273 73 273 73 230 128 c 128,-1,8
 187 183 187 183 155 255 c 0,9,10
 126 321 126 321 113.5 385 c 128,-1,11
 101 449 101 449 100 513 c 1,12,13
 100 656 100 656 164 783 c 1,14,15
 231 904 231 904 327 958 c 1,16,17
 354 969 354 969 358 969 c 0,18,19
 366 969 366 969 366 963 c 0,20,21
 366 953 366 953 343 912 c 1,22,23
 224 746 224 746 224 513 c 0,24,25
 224 249 224 249 350 70 c 1,0,1
EndSplineSet
EndChar

StartChar: guilsinglright
Encoding: 8250 8250 196
Width: 569
GlyphClass: 2
Flags: W
LayerCount: 2
Fore
SplineSet
115 70 m 1,0,1
 244 249 244 249 244 513 c 0,2,3
 244 751 244 751 122 913 c 1,4,5
 100 954 100 954 100 963 c 0,6,7
 100 969 100 969 108 969 c 0,8,9
 110 969 110 969 118 966.5 c 128,-1,10
 126 964 126 964 137 958 c 0,11,12
 188 931 188 931 228.5 887 c 128,-1,13
 269 843 269 843 301 783 c 0,14,15
 336 718 336 718 352 650.5 c 128,-1,16
 368 583 368 583 369 513 c 0,17,18
 369 450 369 450 353.5 385 c 128,-1,19
 338 320 338 320 309 255 c 0,20,21
 279 188 279 188 235 130 c 128,-1,22
 191 72 191 72 138 33 c 1,23,24
 124 26 124 26 113 26 c 0,25,26
 101 26 101 26 101 35 c 0,27,28
 101 47 101 47 115 70 c 1,0,1
EndSplineSet
EndChar

StartChar: afii57451
Encoding: 1611 1611 311
AltUni2: 00fe70.ffffffff.0
Width: -94
VWidth: 1639
GlyphClass: 2
Flags: HW
AnchorPoint: "GposMark2BaseAnchorHamzaErabAbove_01_01" 130.16 1497.32 mark 0
AnchorPoint: "GposMark2BaseAnchorHamzaErabBelow_01_01" 130.16 1776.12 mark 0
AnchorPoint: "GposMark2BaseAnchorClassErabAbove_01_02" 130.16 1497.32 mark 0
AnchorPoint: "GposMark2MarkAnchorHamzaErabAbove_01_01" 130.16 1497.32 mark 0
AnchorPoint: "GposMark2MarkAnchorHamzaErabBelow_01_01" 130.16 1776.12 mark 0
AnchorPoint: "GposMark2MarkAnchorShaddaErabAbove_01_02" 130.16 1497.32 mark 0
AnchorPoint: "GposMark2MarkAnchorShaddaErabBelow_01_02" 130.16 1776.12 mark 0
LayerCount: 2
Fore
SplineSet
-65 1776.12011719 m 1,0,-1
 325.319335938 1776.12011719 l 1,1,-1
 325.319335938 1648.20019531 l 1,2,-1
 -65 1648.20019531 l 1,3,-1
 -65 1776.12011719 l 1,0,-1
279.399414062 1730.20019531 m 1,4,-1
 -19.080078125 1730.20019531 l 1,5,-1
 -19.080078125 1694.12011719 l 1,6,-1
 279.399414062 1694.12011719 l 1,7,-1
 279.399414062 1730.20019531 l 1,4,-1
-65 1626.87988281 m 1,8,-1
 325.319335938 1626.87988281 l 1,9,-1
 325.319335938 1497.3203125 l 1,10,-1
 -65 1497.3203125 l 1,11,-1
 -65 1626.87988281 l 1,8,-1
279.399414062 1580.95996094 m 1,12,-1
 -19.080078125 1580.95996094 l 1,13,-1
 -19.080078125 1543.24023438 l 1,14,-1
 279.399414062 1543.24023438 l 1,15,-1
 279.399414062 1580.95996094 l 1,12,-1
EndSplineSet
EndChar

StartChar: afii57452
Encoding: 1612 1612 312
AltUni2: 00fe72.ffffffff.0
Width: -87
VWidth: 1639
GlyphClass: 2
Flags: HW
AnchorPoint: "GposMark2BaseAnchorHamzaErabAbove_01_01" 98.9624 1496.92 mark 0
AnchorPoint: "GposMark2BaseAnchorHamzaErabBelow_01_01" 98.9624 1775.65 mark 0
AnchorPoint: "GposMark2BaseAnchorClassErabAbove_01_02" 98.9624 1496.92 mark 0
AnchorPoint: "GposMark2MarkAnchorHamzaErabAbove_01_01" 98.9624 1496.92 mark 0
AnchorPoint: "GposMark2MarkAnchorHamzaErabBelow_01_01" 98.9624 1775.65 mark 0
AnchorPoint: "GposMark2MarkAnchorShaddaErabAbove_01_02" 98.9624 1496.92 mark 0
AnchorPoint: "GposMark2MarkAnchorShaddaErabBelow_01_02" 98.9624 1775.65 mark 0
LayerCount: 2
Fore
SplineSet
15.2001953125 1685.91992188 m 1,0,1
 19.169921875 1745.47265625 19.169921875 1745.47265625 25.5859375 1756.91210938 c 0,2,3
 30.466796875 1764.02050781 30.466796875 1764.02050781 34.8798828125 1767.91992188 c 0,4,5
 48.8974609375 1775.64550781 48.8974609375 1775.64550781 97.2001953125 1774.48046875 c 2,6,-1
 244.799804688 1774.48046875 l 2,7,8
 293.921875 1773.32226562 293.921875 1773.32226562 305.48046875 1763 c 1,9,10
 313.924804688 1752.82714844 313.924804688 1752.82714844 313.680664062 1725.28027344 c 0,11,12
 313.680664062 1711.33984375 313.680664062 1711.33984375 312.860351562 1682.63964844 c 0,13,14
 312.0703125 1653.43359375 312.0703125 1653.43359375 312.040039062 1640 c 0,15,16
 311.795898438 1563.43457031 311.795898438 1563.43457031 308.759765625 1543.24023438 c 0,17,18
 304.997070312 1513.13574219 304.997070312 1513.13574219 303.899414062 1511.36035156 c 0,19,20
 301.596679688 1508.40234375 301.596679688 1508.40234375 300.560546875 1507.16015625 c 0,21,22
 292.360351562 1500.59960938 292.360351562 1500.59960938 272.447265625 1497.55371094 c 2,23,-1
 271.040039062 1497.3203125 l 2,24,25
 266.462890625 1496.92382812 266.462890625 1496.92382812 193.959960938 1497.3203125 c 2,26,-1
 -99.599609375 1497.3203125 l 1,27,28
 -99.330078125 1576.58691406 -99.330078125 1576.58691406 -93.0400390625 1615.40039062 c 1,29,-1
 -75 1615.40039062 l 1,30,31
 -107.9140625 1671.09277344 -107.9140625 1671.09277344 -116 1697.40039062 c 1,32,-1
 -107.799804688 1699.04003906 l 1,33,-1
 -116 1720.36035156 l 1,34,-1
 -107.799804688 1722 l 1,35,-1
 -116 1743.3203125 l 1,36,-1
 -66.7998046875 1756.44042969 l 1,37,38
 -60.509765625 1752.30273438 -60.509765625 1752.30273438 -43.83984375 1756.44042969 c 1,39,40
 -37.5498046875 1752.30273438 -37.5498046875 1752.30273438 -20.8798828125 1756.44042969 c 1,41,-1
 13.560546875 1685.91992188 l 1,42,-1
 15.2001953125 1685.91992188 l 1,0,1
-50.3994140625 1543.24023438 m 1,43,-1
 167.719726562 1543.24023438 l 2,44,45
 173.208007812 1543.24023438 173.208007812 1543.24023438 186.213867188 1542.3984375 c 0,46,47
 237.479492188 1540.15820312 237.479492188 1540.15820312 253 1553.08007812 c 1,48,49
 265.4921875 1567.28320312 265.4921875 1567.28320312 264.48046875 1626.87988281 c 0,50,51
 264.48046875 1636.71972656 264.48046875 1636.71972656 265.299804688 1657.21972656 c 0,52,53
 266.079101562 1678.2109375 266.079101562 1678.2109375 266.120117188 1687.55957031 c 0,54,55
 265.045898438 1709.7109375 265.045898438 1709.7109375 261.200195312 1715.44042969 c 0,56,57
 250.3984375 1728.24121094 250.3984375 1728.24121094 221.83984375 1728.55957031 c 2,58,-1
 120.16015625 1728.55957031 l 2,59,60
 87.3896484375 1727.33105469 87.3896484375 1727.33105469 75.8798828125 1717.08007812 c 1,61,62
 67.41796875 1705.83886719 67.41796875 1705.83886719 64.400390625 1671.16015625 c 0,63,64
 63.2841796875 1660.00390625 63.2841796875 1660.00390625 61.8046875 1636.81054688 c 0,65,66
 58.6494140625 1590.66308594 58.6494140625 1590.66308594 54.560546875 1569.48046875 c 1,67,-1
 49.640625 1569.48046875 l 1,68,-1
 36.5205078125 1599 l 1,69,-1
 34.8798828125 1599 l 1,70,-1
 31.6005859375 1569.48046875 l 1,71,-1
 26.6806640625 1569.48046875 l 1,72,-1
 13.560546875 1599 l 1,73,-1
 11.919921875 1599 l 1,74,-1
 8.640625 1569.48046875 l 1,75,-1
 3.7197265625 1569.48046875 l 1,76,77
 -5.00390625 1590.77734375 -5.00390625 1590.77734375 -17.599609375 1592.44042969 c 1,78,-1
 -6.1201171875 1569.48046875 l 1,79,-1
 -47.1201171875 1569.48046875 l 1,80,-1
 -50.3994140625 1543.24023438 l 1,43,-1
89 1620.3203125 m 2,81,82
 90.1123046875 1625.88183594 90.1123046875 1625.88183594 90.841796875 1639.13183594 c 0,83,84
 93.1015625 1666.40429688 93.1015625 1666.40429688 98.83984375 1676.08007812 c 0,85,86
 106.51171875 1686.921875 106.51171875 1686.921875 134.919921875 1690.83984375 c 0,87,88
 154.225585938 1694.37597656 154.225585938 1694.37597656 234.959960938 1694.12011719 c 1,89,-1
 233.3203125 1574.40039062 l 1,90,-1
 89 1574.40039062 l 1,91,-1
 89 1597.36035156 l 1,92,-1
 89 1620.3203125 l 2,81,82
189.040039062 1646.55957031 m 1,93,94
 144.888671875 1640.42871094 144.888671875 1640.42871094 141.48046875 1620.3203125 c 1,95,-1
 187.400390625 1620.3203125 l 1,96,-1
 189.040039062 1646.55957031 l 1,93,94
EndSplineSet
EndChar

StartChar: afii57453
Encoding: 1613 1613 313
AltUni2: 00fe74.ffffffff.0
Width: -96
VWidth: 1639
GlyphClass: 2
Flags: HW
AnchorPoint: "GposMark2BaseAnchorClassErabBelow_01_02" -92.8403 -118.08 mark 0
LayerCount: 2
Fore
SplineSet
-288 -118.080078125 m 1,0,-1
 102.319335938 -118.080078125 l 1,1,-1
 102.319335938 -246 l 1,2,-1
 -288 -246 l 1,3,-1
 -288 -118.080078125 l 1,0,-1
56.3994140625 -164 m 1,4,-1
 -242.080078125 -164 l 1,5,-1
 -242.080078125 -200.080078125 l 1,6,-1
 56.3994140625 -200.080078125 l 1,7,-1
 56.3994140625 -164 l 1,4,-1
-288 -267.3203125 m 1,8,-1
 102.319335938 -267.3203125 l 1,9,-1
 102.319335938 -396.879882812 l 1,10,-1
 -288 -396.879882812 l 1,11,-1
 -288 -267.3203125 l 1,8,-1
56.3994140625 -313.240234375 m 1,12,-1
 -242.080078125 -313.240234375 l 1,13,-1
 -242.080078125 -350.959960938 l 1,14,-1
 56.3994140625 -350.959960938 l 1,15,-1
 56.3994140625 -313.240234375 l 1,12,-1
EndSplineSet
EndChar

StartChar: afii57454
Encoding: 1614 1614 314
AltUni2: 00fe76.ffffffff.0
Width: -83
VWidth: 1639
GlyphClass: 2
Flags: HW
AnchorPoint: "GposMark2BaseAnchorHamzaErabAbove_01_01" 102.16 1497.32 mark 0
AnchorPoint: "GposMark2BaseAnchorHamzaErabBelow_01_01" 102.16 1626.88 mark 0
AnchorPoint: "GposMark2BaseAnchorClassErabAbove_01_02" 102.16 1497.32 mark 0
AnchorPoint: "GposMark2MarkAnchorHamzaErabAbove_01_01" 102.16 1497.32 mark 0
AnchorPoint: "GposMark2MarkAnchorHamzaErabBelow_01_01" 102.16 1626.88 mark 0
AnchorPoint: "GposMark2MarkAnchorShaddaErabAbove_01_02" 102.16 1497.32 mark 0
AnchorPoint: "GposMark2MarkAnchorShaddaErabBelow_01_02" 102.16 1626.88 mark 0
LayerCount: 2
Fore
SplineSet
-93 1626.87988281 m 1,0,-1
 297.3203125 1626.87988281 l 1,1,-1
 297.3203125 1497.3203125 l 1,2,-1
 -93 1497.3203125 l 1,3,-1
 -93 1626.87988281 l 1,0,-1
251.400390625 1580.95996094 m 1,4,-1
 -47.080078125 1580.95996094 l 1,5,-1
 -47.080078125 1543.24023438 l 1,6,-1
 251.400390625 1543.24023438 l 1,7,-1
 251.400390625 1580.95996094 l 1,4,-1
EndSplineSet
EndChar

StartChar: afii57455
Encoding: 1615 1615 315
AltUni2: 00fe78.ffffffff.0
Width: -97
VWidth: 1639
GlyphClass: 2
Flags: HW
AnchorPoint: "GposMark2BaseAnchorHamzaErabAbove_01_01" 56.6401 1497.32 mark 0
AnchorPoint: "GposMark2BaseAnchorHamzaErabBelow_01_01" 56.6401 1775.54 mark 0
AnchorPoint: "GposMark2BaseAnchorClassErabAbove_01_02" 56.6401 1497.32 mark 0
AnchorPoint: "GposMark2MarkAnchorHamzaErabAbove_01_01" 56.6401 1497.32 mark 0
AnchorPoint: "GposMark2MarkAnchorHamzaErabBelow_01_01" 56.6401 1775.54 mark 0
AnchorPoint: "GposMark2MarkAnchorShaddaErabAbove_01_02" 56.6401 1497.32 mark 0
AnchorPoint: "GposMark2MarkAnchorShaddaErabBelow_01_02" 56.6401 1775.54 mark 0
LayerCount: 2
Fore
SplineSet
-143.440429688 1615.40039062 m 1,0,-1
 -69.640625 1615.40039062 l 2,1,2
 -45.8427734375 1616.51757812 -45.8427734375 1616.51757812 -43.400390625 1618.6796875 c 0,3,4
 -41.759765625 1620.3203125 -41.759765625 1620.3203125 -40.1201171875 1623.59960938 c 128,-1,5
 -38.48046875 1626.87988281 -38.48046875 1626.87988281 -38.48046875 1631.79980469 c 128,-1,6
 -38.48046875 1636.71972656 -38.48046875 1636.71972656 -38.48046875 1639.1796875 c 128,-1,7
 -38.48046875 1641.63964844 -38.48046875 1641.63964844 -38.48046875 1647.37988281 c 2,8,-1
 -38.48046875 1653.12011719 l 2,9,10
 -37.66015625 1663.78027344 -37.66015625 1663.78027344 -35.2001953125 1685.91992188 c 0,11,12
 -32.7373046875 1708.5546875 -32.7373046875 1708.5546875 -31.919921875 1718.71972656 c 0,13,14
 -27.20703125 1755.24023438 -27.20703125 1755.24023438 -18.7998046875 1764.63964844 c 1,15,16
 -3.6943359375 1775.54003906 -3.6943359375 1775.54003906 48.439453125 1774.48046875 c 2,17,-1
 171.439453125 1774.48046875 l 2,18,19
 230.36328125 1774.02832031 230.36328125 1774.02832031 240.319335938 1771.20019531 c 0,20,21
 245.240234375 1769.55957031 245.240234375 1769.55957031 249.33984375 1767.09960938 c 128,-1,22
 253.439453125 1764.63964844 253.439453125 1764.63964844 255.899414062 1760.54003906 c 128,-1,23
 258.359375 1756.44042969 258.359375 1756.44042969 260 1753.98046875 c 128,-1,24
 261.639648438 1751.51953125 261.639648438 1751.51953125 262.459960938 1744.95996094 c 128,-1,25
 263.280273438 1738.40039062 263.280273438 1738.40039062 263.280273438 1736.75976562 c 128,-1,26
 263.280273438 1735.12011719 263.280273438 1735.12011719 263.280273438 1726.09960938 c 2,27,-1
 263.280273438 1717.08007812 l 2,28,29
 263.280273438 1691.66015625 263.280273438 1691.66015625 261.639648438 1640.8203125 c 0,30,31
 260.034179688 1589.43359375 260.034179688 1589.43359375 260 1564.55957031 c 0,32,33
 258.583007812 1513.76171875 258.583007812 1513.76171875 245.240234375 1503.87988281 c 1,34,35
 232.208984375 1497.34179688 232.208984375 1497.34179688 204.240234375 1497.3203125 c 2,36,-1
 132.080078125 1497.3203125 l 1,37,-1
 -150 1497.3203125 l 1,38,39
 -149.73046875 1576.58691406 -149.73046875 1576.58691406 -143.440429688 1615.40039062 c 1,0,-1
-100.799804688 1543.24023438 m 1,40,-1
 110.759765625 1543.24023438 l 2,41,42
 116.99609375 1543.24023438 116.99609375 1543.24023438 131.293945312 1542.48046875 c 0,43,44
 181.796875 1540.5703125 181.796875 1540.5703125 199.319335938 1549.79980469 c 1,45,46
 214.500976562 1560.95605469 214.500976562 1560.95605469 214.080078125 1610.48046875 c 0,47,48
 214.080078125 1622.78027344 214.080078125 1622.78027344 214.899414062 1646.55957031 c 0,49,50
 215.684570312 1670.93359375 215.684570312 1670.93359375 215.719726562 1682.63964844 c 0,51,52
 214.99609375 1708.57226562 214.99609375 1708.57226562 212.439453125 1713.79980469 c 0,53,54
 202.401367188 1725.46582031 202.401367188 1725.46582031 178 1728.55957031 c 0,55,56
 173.329101562 1728.85058594 173.329101562 1728.85058594 71.3994140625 1728.55957031 c 0,57,58
 36.9033203125 1727.33789062 36.9033203125 1727.33789062 27.1201171875 1718.71972656 c 1,59,60
 17.2099609375 1707.21679688 17.2099609375 1707.21679688 14 1672.79980469 c 0,61,62
 13.1796875 1662.13964844 13.1796875 1662.13964844 10.7197265625 1640 c 0,63,64
 8.2568359375 1617.36523438 8.2568359375 1617.36523438 7.439453125 1607.20019531 c 0,65,66
 6.5576171875 1578.15625 6.5576171875 1578.15625 2.51953125 1572.75976562 c 0,67,68
 0.8798828125 1569.48046875 0.8798828125 1569.48046875 -4.0400390625 1568.66015625 c 128,-1,69
 -8.9599609375 1567.83984375 -8.9599609375 1567.83984375 -16.33984375 1568.66015625 c 2,70,-1
 -23.7197265625 1569.48046875 l 1,71,-1
 -97.5205078125 1569.48046875 l 1,72,-1
 -100.799804688 1543.24023438 l 1,40,-1
38.599609375 1620.3203125 m 2,73,74
 39.7119140625 1625.88183594 39.7119140625 1625.88183594 40.44140625 1639.13183594 c 0,75,76
 42.701171875 1666.40429688 42.701171875 1666.40429688 48.439453125 1676.08007812 c 0,77,78
 56.111328125 1686.921875 56.111328125 1686.921875 84.51953125 1690.83984375 c 0,79,80
 103.825195312 1694.37597656 103.825195312 1694.37597656 184.559570312 1694.12011719 c 1,81,-1
 182.919921875 1574.40039062 l 1,82,-1
 38.599609375 1574.40039062 l 1,83,-1
 38.599609375 1597.36035156 l 1,84,-1
 38.599609375 1620.3203125 l 2,73,74
138.639648438 1646.55957031 m 1,85,86
 94.48828125 1640.42871094 94.48828125 1640.42871094 91.080078125 1620.3203125 c 1,87,-1
 137 1620.3203125 l 1,88,-1
 138.639648438 1646.55957031 l 1,85,86
EndSplineSet
EndChar

StartChar: afii57456
Encoding: 1616 1616 316
AltUni2: 00fe7a.ffffffff.0
Width: -83
VWidth: 1639
GlyphClass: 2
Flags: HW
AnchorPoint: "GposMark2BaseAnchorClassErabBelow_01_02" -86.02 -116.44 mark 0
LayerCount: 2
Fore
SplineSet
-282 -116.440429688 m 1,0,-1
 109.959960938 -116.440429688 l 1,1,-1
 109.959960938 -244.360351562 l 1,2,-1
 -282 -244.360351562 l 1,3,-1
 -282 -116.440429688 l 1,0,-1
64.0400390625 -162.360351562 m 1,4,-1
 -236.080078125 -162.360351562 l 1,5,-1
 -236.080078125 -198.440429688 l 1,6,-1
 64.0400390625 -198.440429688 l 1,7,-1
 64.0400390625 -162.360351562 l 1,4,-1
EndSplineSet
EndChar

StartChar: afii57457
Encoding: 1617 1617 317
AltUni2: 00fe7c.ffffffff.0
Width: 50
VWidth: 1639
GlyphClass: 2
Flags: HW
AnchorPoint: "GposMark2BaseAnchorHamzaErabAbove_01_01" 191.289 1487.95 mark 0
AnchorPoint: "GposMark2BaseAnchorHamzaErabBelow_01_01" 191.289 1792.52 mark 0
AnchorPoint: "GposMark2BaseAnchorClassErabAbove_01_02" 191.289 1487.95 mark 0
AnchorPoint: "GposMark2MarkAnchorHamzaErabAbove_01_01" 191.289 1487.95 mark 0
AnchorPoint: "GposMark2MarkAnchorHamzaErabBelow_01_01" 191.289 1792.52 mark 0
AnchorPoint: "GposMark2MarkAnchorShaddaErabAbove_01_02" 191.289 1942.52 basemark 0
AnchorPoint: "GposMark2MarkAnchorShaddaErabBelow_01_02" 191.289 1337.95 basemark 0
LayerCount: 2
Fore
SplineSet
-18.830078125 1792.51953125 m 1,0,-1
 0.849609375 1784.3203125 l 1,1,-1
 4.1298828125 1792.51953125 l 1,2,-1
 23.8095703125 1784.3203125 l 1,3,-1
 27.08984375 1792.51953125 l 1,4,-1
 94.330078125 1766.28027344 l 1,5,6
 89.0146484375 1747.9609375 89.0146484375 1747.9609375 94.330078125 1743.3203125 c 1,7,8
 89.0146484375 1725.00097656 89.0146484375 1725.00097656 94.330078125 1720.36035156 c 1,9,10
 76.837890625 1663.51074219 76.837890625 1663.51074219 76.544921875 1659.06640625 c 0,11,12
 76.4248046875 1649.609375 76.4248046875 1649.609375 77.9296875 1643.28027344 c 0,13,14
 90.9296875 1617.79785156 90.9296875 1617.79785156 100.889648438 1620.3203125 c 1,15,16
 118.661132812 1632.80664062 118.661132812 1632.80664062 118.9296875 1664.59960938 c 0,17,18
 118.9296875 1681.8203125 118.9296875 1681.8203125 118.110351562 1715.44042969 c 0,19,20
 117.315429688 1749.640625 117.315429688 1749.640625 117.290039062 1766.28027344 c 1,21,-1
 140.25 1766.28027344 l 1,22,-1
 163.209960938 1766.28027344 l 1,23,-1
 237.009765625 1758.08007812 l 1,24,25
 237.375 1669.00195312 237.375 1669.00195312 241.9296875 1649.83984375 c 0,26,27
 250.263671875 1623.08886719 250.263671875 1623.08886719 266.530273438 1615.40039062 c 1,28,29
 279.92578125 1611.57226562 279.92578125 1611.57226562 286.575195312 1631.38867188 c 0,30,31
 287.610351562 1635.7890625 287.610351562 1635.7890625 287.849609375 1638.36035156 c 0,32,33
 289.692382812 1658.42675781 289.692382812 1658.42675781 264.889648438 1715.44042969 c 1,34,-1
 274.729492188 1717.08007812 l 1,35,-1
 264.889648438 1738.40039062 l 1,36,-1
 274.729492188 1740.04003906 l 1,37,-1
 264.889648438 1761.36035156 l 1,38,-1
 327.209960938 1776.12011719 l 1,39,-1
 328.849609375 1771.20019531 l 1,40,-1
 350.169921875 1776.12011719 l 1,41,-1
 351.809570312 1771.20019531 l 1,42,-1
 373.129882812 1776.12011719 l 1,43,44
 374.76953125 1772.83984375 374.76953125 1772.83984375 377.229492188 1767.91992188 c 128,-1,45
 379.689453125 1763 379.689453125 1763 380.509765625 1759.71972656 c 128,-1,46
 381.330078125 1756.44042969 381.330078125 1756.44042969 383.790039062 1750.70019531 c 128,-1,47
 386.25 1744.95996094 386.25 1744.95996094 386.25 1742.5 c 128,-1,48
 386.25 1740.04003906 386.25 1740.04003906 388.709960938 1732.66015625 c 2,49,-1
 391.169921875 1725.28027344 l 1,50,51
 435.577148438 1578.39257812 435.577148438 1578.39257812 371.891601562 1521.390625 c 0,52,53
 357.916015625 1508.88183594 357.916015625 1508.88183594 338.689453125 1502.24023438 c 0,54,55
 291.114257812 1487.95117188 291.114257812 1487.95117188 225.530273438 1500.59960938 c 0,56,57
 220.010742188 1501.97949219 220.010742188 1501.97949219 207.841796875 1507.62792969 c 0,58,59
 190.921875 1514.87402344 190.921875 1514.87402344 184.530273438 1515.36035156 c 0,60,61
 178.2734375 1515.36035156 178.2734375 1515.36035156 163.899414062 1508.58203125 c 0,62,63
 151.64453125 1503.25097656 151.64453125 1503.25097656 146.809570312 1502.24023438 c 0,64,65
 91.3876953125 1491.32128906 91.3876953125 1491.32128906 41.849609375 1507.16015625 c 0,66,67
 -51.978515625 1538.87695312 -51.978515625 1538.87695312 -53 1658.49121094 c 0,68,69
 -52.8388671875 1732.24804688 -52.8388671875 1732.24804688 -18.830078125 1792.51953125 c 1,0,-1
20.5302734375 1731.83984375 m 1,70,71
 -18.3271484375 1672.41210938 -18.3271484375 1672.41210938 9.31640625 1620.08496094 c 0,72,73
 19.3759765625 1603.23535156 19.3759765625 1603.23535156 33.6494140625 1592.44042969 c 1,74,75
 23.0283203125 1630.7265625 23.0283203125 1630.7265625 28.7294921875 1684.28027344 c 0,76,77
 29.1552734375 1689.80957031 29.1552734375 1689.80957031 31.248046875 1699.60351562 c 0,78,79
 33.8212890625 1723.59277344 33.8212890625 1723.59277344 20.5302734375 1731.83984375 c 1,70,71
330.490234375 1720.36035156 m 1,80,81
 329.5078125 1715.17675781 329.5078125 1715.17675781 335.41015625 1685.91992188 c 1,82,83
 349.369140625 1568.36328125 349.369140625 1568.36328125 297.689453125 1561.28027344 c 1,84,85
 274.534179688 1561.51367188 274.534179688 1561.51367188 264.889648438 1562.91992188 c 0,86,87
 233.599609375 1563.50097656 233.599609375 1563.50097656 225.530273438 1566.20019531 c 1,88,-1
 225.530273438 1564.55957031 l 1,89,90
 259.442382812 1545.33984375 259.442382812 1545.33984375 282.9296875 1546.51953125 c 0,91,92
 324.8984375 1550.33496094 324.8984375 1550.33496094 350.001953125 1601.06152344 c 0,93,94
 356.01171875 1614.16015625 356.01171875 1614.16015625 358.370117188 1625.24023438 c 0,95,96
 359.98046875 1640.05761719 359.98046875 1640.05761719 340.330078125 1697.40039062 c 0,97,98
 331.0546875 1719.50390625 331.0546875 1719.50390625 330.490234375 1720.36035156 c 1,80,81
191.08984375 1712.16015625 m 1,99,-1
 164.849609375 1715.44042969 l 1,100,101
 164.849609375 1700.6796875 164.849609375 1700.6796875 165.669921875 1670.33984375 c 0,102,103
 166.461914062 1639.49121094 166.461914062 1639.49121094 166.490234375 1625.24023438 c 0,104,105
 164.836914062 1587.70507812 164.836914062 1587.70507812 143.530273438 1572.75976562 c 0,106,107
 136.228515625 1569.45214844 136.228515625 1569.45214844 99.25 1566.20019531 c 1,108,109
 72.771484375 1566.40429688 72.771484375 1566.40429688 61.5302734375 1567.83984375 c 1,110,-1
 61.5302734375 1566.20019531 l 1,111,112
 101.235351562 1541.38378906 101.235351562 1541.38378906 133.689453125 1559.63964844 c 0,113,114
 136.764648438 1561.48535156 136.764648438 1561.48535156 142.915039062 1566.55859375 c 0,115,116
 153.711914062 1574.546875 153.711914062 1574.546875 158.290039062 1576.04003906 c 0,117,118
 161.056640625 1576.96191406 161.056640625 1576.96191406 165.6171875 1574.625 c 0,119,120
 169.977539062 1573.08691406 169.977539062 1573.08691406 171.41015625 1572.75976562 c 0,121,122
 173.870117188 1572.75976562 173.870117188 1572.75976562 177.149414062 1574.40039062 c 0,123,124
 181.419921875 1575.75292969 181.419921875 1575.75292969 182.889648438 1576.04003906 c 0,125,126
 187.229492188 1576.66015625 187.229492188 1576.66015625 192.75390625 1576.0625 c 0,127,128
 201.845703125 1576.52441406 201.845703125 1576.52441406 207.490234375 1579.3203125 c 1,129,130
 189.966796875 1621.71191406 189.966796875 1621.71191406 191.08984375 1712.16015625 c 1,99,-1
223.889648438 1567.83984375 m 1,131,-1
 222.25 1566.20019531 l 1,132,-1
 223.889648438 1567.83984375 l 1,131,-1
EndSplineSet
EndChar

StartChar: afii57458
Encoding: 1618 1618 318
AltUni2: 00fe7e.ffffffff.0
Width: 3
VWidth: 1639
GlyphClass: 2
Flags: HW
AnchorPoint: "GposMark2BaseAnchorHamzaErabAbove_01_01" 139.32 1480.28 mark 0
AnchorPoint: "GposMark2BaseAnchorHamzaErabBelow_01_01" 139.32 1886.89 mark 0
AnchorPoint: "GposMark2BaseAnchorClassErabAbove_01_02" 139.32 1480.28 mark 0
AnchorPoint: "GposMark2MarkAnchorHamzaErabAbove_01_01" 139.32 1480.28 mark 0
AnchorPoint: "GposMark2MarkAnchorHamzaErabBelow_01_01" 139.32 1886.89 mark 0
AnchorPoint: "GposMark2MarkAnchorShaddaErabAbove_01_02" 139.32 1480.28 mark 0
AnchorPoint: "GposMark2MarkAnchorShaddaErabBelow_01_02" 139.32 1886.89 mark 0
LayerCount: 2
Fore
SplineSet
93.400390625 1869.59960938 m 0,0,1
 236.00390625 1886.88867188 236.00390625 1886.88867188 296.759765625 1802.36035156 c 1,2,3
 324.391601562 1759.13671875 324.391601562 1759.13671875 324.639648438 1689.20019531 c 0,4,5
 324.21484375 1633.23242188 324.21484375 1633.23242188 319.719726562 1615.40039062 c 0,6,7
 296.634765625 1537.75 296.634765625 1537.75 218.446289062 1507.8515625 c 0,8,9
 201.325195312 1501.67382812 201.325195312 1501.67382812 185.240234375 1498.95996094 c 0,10,11
 38.4423828125 1480.27929688 38.4423828125 1480.27929688 -24.6796875 1579.3203125 c 1,12,13
 -45.8017578125 1617.49121094 -45.8017578125 1617.49121094 -46 1679.36035156 c 0,14,15
 -45.5751953125 1735.32714844 -45.5751953125 1735.32714844 -41.080078125 1753.16015625 c 0,16,17
 -18.052734375 1832.70703125 -18.052734375 1832.70703125 62.3359375 1861.62988281 c 0,18,19
 78.3896484375 1867.07421875 78.3896484375 1867.07421875 93.400390625 1869.59960938 c 0,0,1
247.559570312 1612.12011719 m 1,20,21
 289.842773438 1648.36230469 289.842773438 1648.36230469 270.703125 1714.11035156 c 0,22,23
 266.91796875 1725.9453125 266.91796875 1725.9453125 262.3203125 1735.12011719 c 0,24,25
 226.790039062 1806.18066406 226.790039062 1806.18066406 158.200195312 1818.11035156 c 0,26,27
 119.374023438 1823.69921875 119.374023438 1823.69921875 85.2001953125 1805.63964844 c 1,28,29
 59.427734375 1789.95019531 59.427734375 1789.95019531 52.400390625 1781.04003906 c 1,30,31
 118.62890625 1818.04980469 118.62890625 1818.04980469 187.478515625 1793.44726562 c 0,32,33
 221.169921875 1780.09765625 221.169921875 1780.09765625 239.360351562 1754.79980469 c 0,34,35
 274.373046875 1704.46875 274.373046875 1704.46875 252.610351562 1627.09277344 c 0,36,37
 250.01953125 1618.49902344 250.01953125 1618.49902344 247.559570312 1612.12011719 c 1,20,21
132.759765625 1751.51953125 m 0,38,39
 98.2294921875 1749.70214844 98.2294921875 1749.70214844 70.685546875 1708.40527344 c 0,40,41
 59.587890625 1690.26269531 59.587890625 1690.26269531 58.9599609375 1676.08007812 c 0,42,43
 60.80078125 1641.10546875 60.80078125 1641.10546875 102.075195312 1614.5078125 c 0,44,45
 119.704101562 1603.14648438 119.704101562 1603.14648438 134.400390625 1603.91992188 c 0,46,47
 168.828125 1603.91992188 168.828125 1603.91992188 196.719726562 1644.73730469 c 0,48,49
 208.26171875 1663.25097656 208.26171875 1663.25097656 208.200195312 1677.71972656 c 0,50,51
 206.3828125 1712.25097656 206.3828125 1712.25097656 165.084960938 1739.79492188 c 0,52,53
 146.942382812 1750.89160156 146.942382812 1750.89160156 132.759765625 1751.51953125 c 0,38,39
17.9599609375 1736.75976562 m 1,54,-1
 16.3203125 1735.12011719 l 1,55,-1
 17.9599609375 1736.75976562 l 1,54,-1
16.3203125 1733.48046875 m 1,56,-1
 14.6796875 1731.83984375 l 1,57,-1
 16.3203125 1733.48046875 l 1,56,-1
14.6796875 1728.55957031 m 1,58,59
 -3.3603515625 1705.59960938 -3.3603515625 1705.59960938 9.1708984375 1650.54980469 c 2,60,-1
 9.759765625 1648.20019531 l 1,61,-1
 11.400390625 1648.20019531 l 1,62,63
 8.8154296875 1695.87988281 8.8154296875 1695.87988281 14.6796875 1728.55957031 c 1,58,59
181.959960938 1558 m 1,64,-1
 180.3203125 1556.36035156 l 1,65,-1
 181.959960938 1558 l 1,64,-1
177.040039062 1556.36035156 m 1,66,-1
 104.879882812 1553.08007812 l 1,67,68
 143.22265625 1545.04785156 143.22265625 1545.04785156 177.040039062 1554.71972656 c 1,69,-1
 177.040039062 1556.36035156 l 1,66,-1
EndSplineSet
EndChar

StartChar: uni0654
Encoding: 1620 1620 320
Width: 31
VWidth: 1639
GlyphClass: 2
Flags: HW
AnchorPoint: "GposMark2BaseAnchorClassErabAbove_01_02" 163.44 1497.15 mark 0
AnchorPoint: "GposMark2MarkAnchorHamzaErabAbove_01_01" 163.44 1935.46 basemark 0
AnchorPoint: "GposMark2MarkAnchorHamzaErabBelow_01_01" 163.44 1347.15 basemark 0
LayerCount: 2
Fore
SplineSet
74.8798828125 1615.40039062 m 1,0,1
 75.0244140625 1653.22070312 75.0244140625 1653.22070312 81.4404296875 1726.91992188 c 0,2,3
 85.1806640625 1764.32714844 85.1806640625 1764.32714844 89.5634765625 1770.54589844 c 0,4,5
 92.7158203125 1774.2421875 92.7158203125 1774.2421875 94.560546875 1776.12011719 c 0,6,7
 108.266601562 1785.45605469 108.266601562 1785.45605469 151.959960938 1784.3203125 c 2,8,-1
 291.360351562 1784.3203125 l 2,9,10
 338.422851562 1783.09863281 338.422851562 1783.09863281 348.759765625 1772.83984375 c 0,11,12
 350.400390625 1769.55957031 350.400390625 1769.55957031 352.040039062 1767.09960938 c 128,-1,13
 353.6796875 1764.63964844 353.6796875 1764.63964844 354.5 1759.71972656 c 128,-1,14
 355.3203125 1754.79980469 355.3203125 1754.79980469 355.3203125 1753.16015625 c 128,-1,15
 355.3203125 1751.51953125 355.3203125 1751.51953125 355.3203125 1744.95996094 c 2,16,-1
 355.3203125 1738.40039062 l 2,17,18
 355.215820312 1687.09375 355.215820312 1687.09375 353.6796875 1662.95996094 c 1,19,-1
 284.799804688 1662.95996094 l 2,20,21
 258.337890625 1661.45507812 258.337890625 1661.45507812 248.719726562 1649.83984375 c 1,22,23
 242.196289062 1638.48828125 242.196289062 1638.48828125 242.16015625 1618.6796875 c 1,24,-1
 361.879882812 1618.6796875 l 1,25,26
 360.231445312 1605.4921875 360.231445312 1605.4921875 359.4140625 1578.90917969 c 0,27,28
 358.43359375 1551.59667969 358.43359375 1551.59667969 356.959960938 1538.3203125 c 0,29,30
 351.739257812 1511.55664062 351.739257812 1511.55664062 348.759765625 1507.16015625 c 1,31,32
 337.220703125 1499.29980469 337.220703125 1499.29980469 320.879882812 1498.95996094 c 0,33,34
 305.677734375 1497.15429688 305.677734375 1497.15429688 247.080078125 1497.3203125 c 2,35,-1
 -35 1497.3203125 l 1,36,37
 -34.73046875 1576.58691406 -34.73046875 1576.58691406 -28.439453125 1615.40039062 c 1,38,-1
 74.8798828125 1615.40039062 l 1,0,1
307.759765625 1708.87988281 m 1,39,40
 304.815429688 1732.75390625 304.815429688 1732.75390625 278.240234375 1738.40039062 c 0,41,42
 273.635742188 1738.73535156 273.635742188 1738.73535156 184.759765625 1738.40039062 c 0,43,44
 152.734375 1737.46289062 152.734375 1737.46289062 143.759765625 1731.83984375 c 0,45,46
 127.396484375 1718.57617188 127.396484375 1718.57617188 127.360351562 1682.63964844 c 0,47,48
 126.704101562 1667.55175781 126.704101562 1667.55175781 124.342773438 1637.37597656 c 0,49,50
 120.8828125 1591.56542969 120.8828125 1591.56542969 120.799804688 1569.48046875 c 1,51,-1
 17.48046875 1569.48046875 l 1,52,-1
 14.2001953125 1543.24023438 l 1,53,-1
 235.600585938 1543.24023438 l 2,54,55
 288.426757812 1543.24023438 288.426757812 1543.24023438 300.180664062 1555.14550781 c 0,56,57
 306.706054688 1563.29101562 306.706054688 1563.29101562 309.400390625 1572.75976562 c 1,58,-1
 194.600585938 1572.75976562 l 1,59,60
 194.600585938 1587.51953125 194.600585938 1587.51953125 195.419921875 1616.21972656 c 0,61,62
 196.2109375 1645.50585938 196.2109375 1645.50585938 196.240234375 1659.6796875 c 0,63,64
 197.745117188 1692.04980469 197.745117188 1692.04980469 207.719726562 1700.6796875 c 0,65,66
 219.309570312 1708.84863281 219.309570312 1708.84863281 243.799804688 1708.87988281 c 2,67,-1
 307.759765625 1708.87988281 l 1,39,40
EndSplineSet
EndChar

StartChar: uni0655
Encoding: 1621 1621 321
Width: 32
VWidth: 1639
GlyphClass: 2
Flags: HW
AnchorPoint: "GposMark2BaseAnchorClassErabBelow_01_02" -56.5601 -115.304 mark 0
LayerCount: 2
Fore
SplineSet
-145.120117188 -285.360351562 m 1,0,1
 -144.975585938 -247.5390625 -144.975585938 -247.5390625 -138.559570312 -173.83984375 c 0,2,3
 -134.819335938 -136.432617188 -134.819335938 -136.432617188 -130.436523438 -130.21484375 c 0,4,5
 -127.284179688 -126.517578125 -127.284179688 -126.517578125 -125.439453125 -124.639648438 c 0,6,7
 -111.733398438 -115.303710938 -111.733398438 -115.303710938 -68.0400390625 -116.440429688 c 2,8,-1
 71.3603515625 -116.440429688 l 2,9,10
 118.422851562 -117.661132812 118.422851562 -117.661132812 128.759765625 -127.919921875 c 0,11,12
 130.400390625 -131.200195312 130.400390625 -131.200195312 132.040039062 -133.66015625 c 128,-1,13
 133.6796875 -136.120117188 133.6796875 -136.120117188 134.5 -141.040039062 c 128,-1,14
 135.3203125 -145.959960938 135.3203125 -145.959960938 135.3203125 -147.599609375 c 128,-1,15
 135.3203125 -149.240234375 135.3203125 -149.240234375 135.3203125 -155.799804688 c 2,16,-1
 135.3203125 -162.360351562 l 2,17,18
 135.215820312 -213.666992188 135.215820312 -213.666992188 133.6796875 -237.799804688 c 1,19,-1
 64.7998046875 -237.799804688 l 2,20,21
 38.337890625 -239.305664062 38.337890625 -239.305664062 28.7197265625 -250.919921875 c 1,22,23
 22.1962890625 -262.271484375 22.1962890625 -262.271484375 22.16015625 -282.080078125 c 1,24,-1
 141.879882812 -282.080078125 l 1,25,26
 140.231445312 -295.267578125 140.231445312 -295.267578125 139.4140625 -321.850585938 c 0,27,28
 138.43359375 -349.163085938 138.43359375 -349.163085938 136.959960938 -362.440429688 c 0,29,30
 131.739257812 -389.203125 131.739257812 -389.203125 128.759765625 -393.599609375 c 1,31,32
 117.220703125 -401.4609375 117.220703125 -401.4609375 100.879882812 -401.799804688 c 0,33,34
 85.677734375 -403.60546875 85.677734375 -403.60546875 27.080078125 -403.440429688 c 2,35,-1
 -255 -403.440429688 l 1,36,37
 -254.73046875 -324.172851562 -254.73046875 -324.172851562 -248.439453125 -285.360351562 c 1,38,-1
 -145.120117188 -285.360351562 l 1,0,1
87.759765625 -191.879882812 m 1,39,40
 84.8154296875 -168.005859375 84.8154296875 -168.005859375 58.240234375 -162.360351562 c 0,41,42
 53.6357421875 -162.024414062 53.6357421875 -162.024414062 -35.240234375 -162.360351562 c 0,43,44
 -67.265625 -163.297851562 -67.265625 -163.297851562 -76.240234375 -168.919921875 c 0,45,46
 -92.603515625 -182.18359375 -92.603515625 -182.18359375 -92.6396484375 -218.120117188 c 0,47,48
 -93.2958984375 -233.208007812 -93.2958984375 -233.208007812 -95.6572265625 -263.383789062 c 0,49,50
 -99.1171875 -309.194335938 -99.1171875 -309.194335938 -99.2001953125 -331.280273438 c 1,51,-1
 -202.51953125 -331.280273438 l 1,52,-1
 -205.799804688 -357.51953125 l 1,53,-1
 15.6005859375 -357.51953125 l 2,54,55
 68.4267578125 -357.51953125 68.4267578125 -357.51953125 80.1806640625 -345.615234375 c 0,56,57
 86.7060546875 -337.469726562 86.7060546875 -337.469726562 89.400390625 -328 c 1,58,-1
 -25.3994140625 -328 l 1,59,60
 -25.3994140625 -313.240234375 -25.3994140625 -313.240234375 -24.580078125 -284.540039062 c 0,61,62
 -23.7890625 -255.25390625 -23.7890625 -255.25390625 -23.759765625 -241.080078125 c 0,63,64
 -22.2548828125 -208.709960938 -22.2548828125 -208.709960938 -12.2802734375 -200.080078125 c 0,65,66
 -0.6904296875 -191.912109375 -0.6904296875 -191.912109375 23.7998046875 -191.879882812 c 2,67,-1
 87.759765625 -191.879882812 l 1,39,40
EndSplineSet
EndChar

StartChar: uni0656
Encoding: 1622 1622 322
Width: 25
VWidth: 1639
GlyphClass: 2
Flags: HW
AnchorPoint: "GposMark2BaseAnchorClassErabBelow_01_02" -48.04 -114.8 mark 0
LayerCount: 2
Fore
SplineSet
-110.360351562 -116.440429688 m 1,0,-1
 -87.400390625 -119.719726562 l 1,1,2
 -82.48046875 -114.799804688 -82.48046875 -114.799804688 -65.6025390625 -119.426757812 c 2,3,-1
 -64.4404296875 -119.719726562 l 1,4,5
 -60.7529296875 -116.834960938 -60.7529296875 -116.834960938 -49.6796875 -118.080078125 c 0,6,7
 -43.1201171875 -118.900390625 -43.1201171875 -118.900390625 -29.1796875 -121.360351562 c 0,8,9
 -14.7734375 -123.828125 -14.7734375 -123.828125 -8.6796875 -124.639648438 c 0,10,11
 3.9560546875 -125.973632812 3.9560546875 -125.973632812 7.7197265625 -129.559570312 c 0,12,13
 7.6953125 -131.279296875 7.6953125 -131.279296875 6.080078125 -145.959960938 c 1,14,15
 7.451171875 -165.873046875 7.451171875 -165.873046875 4.4404296875 -201.719726562 c 0,16,17
 -1.9013671875 -286.510742188 -1.9013671875 -286.510742188 6.080078125 -328 c 1,18,19
 9.2578125 -354.952148438 9.2578125 -354.952148438 12.6396484375 -370.639648438 c 0,20,21
 14.4140625 -383.547851562 14.4140625 -383.547851562 11 -385.400390625 c 1,22,23
 14.57421875 -406.39453125 14.57421875 -406.39453125 11 -408.360351562 c 1,24,-1
 15.919921875 -431.3203125 l 1,25,-1
 -93.9599609375 -431.3203125 l 1,26,-1
 -112 -306.6796875 l 1,27,-1
 -110.360351562 -116.440429688 l 1,0,-1
-43.1201171875 -172.200195312 m 1,28,-1
 -64.4404296875 -168.919921875 l 1,29,-1
 -66.080078125 -259.120117188 l 1,30,-1
 -48.0400390625 -385.400390625 l 1,31,-1
 -39.83984375 -385.400390625 l 1,32,-1
 -46.400390625 -303.400390625 l 1,33,-1
 -43.1201171875 -172.200195312 l 1,28,-1
EndSplineSet
EndChar

StartChar: uni0670
Encoding: 1648 1648 326
Width: 25
VWidth: 1639
GlyphClass: 2
Flags: HW
AnchorPoint: "GposMark2BaseAnchorHamzaErabAbove_01_01" 118.96 1497.32 mark 0
AnchorPoint: "GposMark2BaseAnchorHamzaErabBelow_01_01" 118.96 1813.84 mark 0
AnchorPoint: "GposMark2BaseAnchorClassErabAbove_01_02" 118.96 1497.32 mark 0
AnchorPoint: "GposMark2MarkAnchorHamzaErabAbove_01_01" 118.96 1497.32 mark 0
AnchorPoint: "GposMark2MarkAnchorHamzaErabBelow_01_01" 118.96 1813.84 mark 0
AnchorPoint: "GposMark2MarkAnchorShaddaErabAbove_01_02" 118.96 1497.32 mark 0
AnchorPoint: "GposMark2MarkAnchorShaddaErabBelow_01_02" 118.96 1813.84 mark 0
LayerCount: 2
Fore
SplineSet
56.6396484375 1812.20019531 m 1,0,-1
 79.599609375 1808.91992188 l 1,1,2
 84.51953125 1813.83984375 84.51953125 1813.83984375 101.397460938 1809.21289062 c 2,3,-1
 102.559570312 1808.91992188 l 1,4,5
 106.247070312 1811.8046875 106.247070312 1811.8046875 117.3203125 1810.55957031 c 0,6,7
 123.879882812 1809.74023438 123.879882812 1809.74023438 137.8203125 1807.28027344 c 0,8,9
 152.2265625 1804.8125 152.2265625 1804.8125 158.3203125 1804 c 0,10,11
 170.956054688 1802.66699219 170.956054688 1802.66699219 174.719726562 1799.08007812 c 0,12,13
 174.6953125 1797.36035156 174.6953125 1797.36035156 173.080078125 1782.6796875 c 1,14,15
 174.451171875 1762.76757812 174.451171875 1762.76757812 171.440429688 1726.91992188 c 0,16,17
 165.098632812 1642.12890625 165.098632812 1642.12890625 173.080078125 1600.63964844 c 1,18,19
 176.2578125 1573.6875 176.2578125 1573.6875 179.639648438 1558 c 0,20,21
 181.4140625 1545.09179688 181.4140625 1545.09179688 178 1543.24023438 c 1,22,23
 181.57421875 1522.24609375 181.57421875 1522.24609375 178 1520.28027344 c 1,24,-1
 182.919921875 1497.3203125 l 1,25,-1
 73.0400390625 1497.3203125 l 1,26,-1
 55 1621.95996094 l 1,27,-1
 56.6396484375 1812.20019531 l 1,0,-1
123.879882812 1756.44042969 m 1,28,-1
 102.559570312 1759.71972656 l 1,29,-1
 100.919921875 1669.51953125 l 1,30,-1
 118.959960938 1543.24023438 l 1,31,-1
 127.16015625 1543.24023438 l 1,32,-1
 120.599609375 1625.24023438 l 1,33,-1
 123.879882812 1756.44042969 l 1,28,-1
EndSplineSet
EndChar

StartChar: uni0674
Encoding: 1652 1652 327
Width: 110
GlyphClass: 2
Flags: HW
AnchorPoint: "GposMark2BaseAnchorClassErabAbove_01_02" 359.5 1014 mark 0
AnchorPoint: "GposMark2MarkAnchorHamzaErabAbove_01_01" 359.5 1579 basemark 0
AnchorPoint: "GposMark2MarkAnchorHamzaErabBelow_01_01" 359.5 864 basemark 0
LayerCount: 2
Fore
SplineSet
533 1178 m 2,0,1
 528 1160 528 1160 521 1145 c 128,-1,2
 514 1130 514 1130 509 1129 c 0,3,4
 461 1118 461 1118 421 1109 c 128,-1,5
 381 1100 381 1100 363 1095 c 0,6,7
 317 1082 317 1082 274 1062 c 128,-1,8
 231 1042 231 1042 196 1018 c 1,9,10
 192 1014 192 1014 188 1014 c 0,11,12
 185 1014 185 1014 180 1018 c 128,-1,13
 175 1022 175 1022 175 1025 c 256,14,15
 175 1028 175 1028 180 1032 c 1,16,-1
 180 1031 l 1,17,18
 191 1051 191 1051 217 1076 c 128,-1,19
 243 1101 243 1101 283 1136 c 1,20,21
 195 1171 195 1171 195 1233 c 0,22,23
 195 1282 195 1282 269 1355 c 1,24,25
 346 1429 346 1429 410 1429 c 0,26,27
 421 1429 421 1429 433.5 1425.5 c 128,-1,28
 446 1422 446 1422 456 1415.5 c 128,-1,29
 466 1409 466 1409 472.5 1400.5 c 128,-1,30
 479 1392 479 1392 479 1382 c 0,31,32
 479 1368 479 1368 475.5 1353.5 c 128,-1,33
 472 1339 472 1339 466 1327 c 128,-1,34
 460 1315 460 1315 452.5 1307.5 c 128,-1,35
 445 1300 445 1300 437 1300 c 0,36,37
 433 1300 433 1300 425.5 1307.5 c 128,-1,38
 418 1315 418 1315 408 1323.5 c 128,-1,39
 398 1332 398 1332 385.5 1339.5 c 128,-1,40
 373 1347 373 1347 359 1347 c 256,41,42
 345 1347 345 1347 329 1339.5 c 128,-1,43
 313 1332 313 1332 299 1321.5 c 128,-1,44
 285 1311 285 1311 276 1299 c 128,-1,45
 267 1287 267 1287 267 1277 c 0,46,47
 267 1259 267 1259 279 1244 c 128,-1,48
 291 1229 291 1229 309.5 1218 c 128,-1,49
 328 1207 328 1207 352 1201 c 128,-1,50
 376 1195 376 1195 400 1195 c 0,51,52
 403 1195 403 1195 424 1200 c 128,-1,53
 445 1205 445 1205 470 1210.5 c 128,-1,54
 495 1216 495 1216 517 1221 c 128,-1,55
 539 1226 539 1226 544 1226 c 1,56,-1
 533 1178 l 2,0,1
EndSplineSet
EndChar

StartChar: afii57388
Encoding: 1548 1548 329
Width: 692
VWidth: 1639
GlyphClass: 2
Flags: W
LayerCount: 2
Fore
SplineSet
369.6796875 336.200195312 m 1,0,1
 463.252929688 286.060546875 463.252929688 286.060546875 482.83984375 193.51953125 c 0,2,3
 484.669921875 180.834960938 484.669921875 180.834960938 484.479492188 131.200195312 c 0,4,5
 483.298828125 54.7607421875 483.298828125 54.7607421875 451.6796875 16.400390625 c 1,6,7
 416.202148438 -21.041015625 416.202148438 -21.041015625 338.51953125 -21.3203125 c 0,8,9
 228.817382812 -20.2041015625 228.817382812 -20.2041015625 181.080078125 16.400390625 c 0,10,11
 104.40625 77.1748046875 104.40625 77.1748046875 104 223.040039062 c 0,12,13
 104.587890625 302.225585938 104.587890625 302.225585938 125.319335938 359.16015625 c 1,14,15
 146.799804688 409.447265625 146.799804688 409.447265625 174.51953125 437.879882812 c 0,16,17
 245.577148438 511.474609375 245.577148438 511.474609375 334.1953125 524.845703125 c 0,18,19
 353.48828125 527.409179688 353.48828125 527.409179688 369.6796875 526.440429688 c 0,18,19
 373.65234375 525.778320312 373.65234375 525.778320312 385.69921875 527.16796875 c 0,20,21
 404.715820312 528.697265625 404.715820312 528.697265625 410.6796875 526.440429688 c 1,20,21
 416.087890625 521.366210938 416.087890625 521.366210938 425.439453125 496.919921875 c 0,22,23
 448.4375 443.805664062 448.4375 443.805664062 456.599609375 416.559570312 c 1,24,-1
 448.399414062 414.919921875 l 1,25,-1
 456.599609375 393.599609375 l 1,26,-1
 448.399414062 391.959960938 l 1,27,-1
 456.599609375 370.639648438 l 1,28,29
 433.4765625 366.4921875 433.4765625 366.4921875 369.6796875 336.200195312 c 1,0,1
369.6796875 473.959960938 m 1,30,31
 242.63671875 447.67578125 242.63671875 447.67578125 184.305664062 339.1484375 c 0,32,33
 173.26171875 317.922851562 173.26171875 317.922851562 166.319335938 296.83984375 c 0,32,33
 149.706054688 250.696289062 149.706054688 250.696289062 151.559570312 211.559570312 c 0,34,35
 158.71484375 107.8125 158.71484375 107.8125 241.517578125 53.6513671875 c 0,36,37
 280.000976562 29.4775390625 280.000976562 29.4775390625 323.759765625 24.599609375 c 0,36,37
 376.791992188 20.1806640625 376.791992188 20.1806640625 416.155273438 75.953125 c 0,38,39
 441.029296875 113.131835938 441.029296875 113.131835938 436.919921875 147.599609375 c 0,38,39
 423.749023438 232.268554688 423.749023438 232.268554688 343.77734375 280.978515625 c 0,40,41
 316.581054688 296.8984375 316.581054688 296.8984375 289.319335938 303.400390625 c 1,40,-1
 304.080078125 321.440429688 l 1,41,-1
 289.319335938 326.360351562 l 1,42,-1
 304.080078125 344.400390625 l 1,43,-1
 289.319335938 349.3203125 l 1,44,45
 310.973632812 379.09375 310.973632812 379.09375 380.016601562 407.302734375 c 0,46,47
 389.162109375 411.079101562 389.162109375 411.079101562 394.279296875 413.280273438 c 1,46,-1
 369.6796875 473.959960938 l 1,30,31
EndSplineSet
EndChar

StartChar: afii57403
Encoding: 1563 1563 334
Width: 696
VWidth: 1639
GlyphClass: 2
Flags: W
LayerCount: 2
Fore
SplineSet
369.6796875 806.879882812 m 1,0,1
 463.252929688 756.740234375 463.252929688 756.740234375 482.83984375 664.200195312 c 0,2,3
 484.669921875 651.514648438 484.669921875 651.514648438 484.479492188 601.879882812 c 0,4,5
 483.298828125 525.440429688 483.298828125 525.440429688 451.6796875 487.080078125 c 1,6,7
 416.202148438 449.638671875 416.202148438 449.638671875 338.51953125 449.360351562 c 0,8,9
 228.817382812 450.4765625 228.817382812 450.4765625 181.080078125 487.080078125 c 0,10,11
 104.40625 547.854492188 104.40625 547.854492188 104 693.719726562 c 0,12,13
 104.587890625 772.905273438 104.587890625 772.905273438 125.319335938 829.83984375 c 1,14,15
 146.799804688 880.127929688 146.799804688 880.127929688 174.51953125 908.559570312 c 0,16,17
 245.577148438 982.155273438 245.577148438 982.155273438 334.1953125 995.526367188 c 0,18,19
 353.48828125 998.088867188 353.48828125 998.088867188 369.6796875 997.120117188 c 0,18,19
 373.65234375 996.458007812 373.65234375 996.458007812 385.69921875 997.848632812 c 0,20,21
 404.715820312 999.376953125 404.715820312 999.376953125 410.6796875 997.120117188 c 1,20,21
 416.087890625 992.045898438 416.087890625 992.045898438 425.439453125 967.599609375 c 0,22,23
 448.4375 914.486328125 448.4375 914.486328125 456.599609375 887.240234375 c 1,24,-1
 448.399414062 885.599609375 l 1,25,-1
 456.599609375 864.280273438 l 1,26,-1
 448.399414062 862.639648438 l 1,27,-1
 456.599609375 841.3203125 l 1,28,29
 433.4765625 837.171875 433.4765625 837.171875 369.6796875 806.879882812 c 1,0,1
369.6796875 944.639648438 m 1,30,31
 242.63671875 918.35546875 242.63671875 918.35546875 184.305664062 809.828125 c 0,32,33
 173.26171875 788.602539062 173.26171875 788.602539062 166.319335938 767.51953125 c 0,32,33
 149.706054688 721.375976562 149.706054688 721.375976562 151.559570312 682.240234375 c 0,34,35
 158.71484375 578.493164062 158.71484375 578.493164062 241.517578125 524.331054688 c 0,36,37
 280.000976562 500.158203125 280.000976562 500.158203125 323.759765625 495.280273438 c 0,36,37
 376.791992188 490.860351562 376.791992188 490.860351562 416.155273438 546.6328125 c 0,38,39
 441.029296875 583.811523438 441.029296875 583.811523438 436.919921875 618.280273438 c 0,38,39
 423.749023438 702.948242188 423.749023438 702.948242188 343.77734375 751.658203125 c 0,40,41
 316.581054688 767.579101562 316.581054688 767.579101562 289.319335938 774.080078125 c 1,40,-1
 304.080078125 792.120117188 l 1,41,-1
 289.319335938 797.040039062 l 1,42,-1
 304.080078125 815.080078125 l 1,43,-1
 289.319335938 820 l 1,44,45
 310.973632812 849.774414062 310.973632812 849.774414062 380.016601562 877.983398438 c 0,46,47
 389.162109375 881.758789062 389.162109375 881.758789062 394.279296875 883.959960938 c 1,46,-1
 369.6796875 944.639648438 l 1,30,31
220.439453125 346.040039062 m 1,47,48
 345.622070312 363.013671875 345.622070312 363.013671875 423.973632812 287.420898438 c 0,49,50
 449.908203125 261.33984375 449.908203125 261.33984375 464.799804688 229.599609375 c 0,49,50
 503.8828125 143.291992188 503.8828125 143.291992188 475.747070312 59.7451171875 c 1,51,52
 448.612304688 -13.42578125 448.612304688 -13.42578125 377.879882812 -24.599609375 c 1,51,52
 222.1875 -45.0185546875 222.1875 -45.0185546875 144.467773438 58.02734375 c 0,53,54
 134.458984375 71.7734375 134.458984375 71.7734375 126.959960938 85.2802734375 c 0,53,54
 105.900390625 129.108398438 105.900390625 129.108398438 105.639648438 188.599609375 c 0,55,56
 106.083984375 242.502929688 106.083984375 242.502929688 110.559570312 259.120117188 c 0,57,58
 136.569335938 330.930664062 136.569335938 330.930664062 220.439453125 346.040039062 c 1,47,48
256.51953125 298.48046875 m 1,59,60
 228.266601562 291.630859375 228.266601562 291.630859375 212.239257812 282.080078125 c 0,61,62
 191.172851562 269.01171875 191.172851562 269.01171875 181.080078125 255.83984375 c 0,63,64
 155.9765625 222.888671875 155.9765625 222.888671875 153.200195312 196.799804688 c 0,65,66
 147.571289062 133.010742188 147.571289062 133.010742188 225.629882812 68.125 c 0,67,68
 237 58.9453125 237 58.9453125 246.6796875 52.48046875 c 0,67,68
 301.126953125 18.6806640625 301.126953125 18.6806640625 331.959960938 21.3203125 c 0,69,70
 355.950195312 24.44921875 355.950195312 24.44921875 377.879882812 37.7197265625 c 1,71,72
 400.953125 55.04296875 400.953125 55.04296875 409.040039062 65.599609375 c 0,73,74
 432.548828125 96.6044921875 432.548828125 96.6044921875 435.279296875 123 c 0,75,76
 435.803710938 132.771484375 435.803710938 132.771484375 427.080078125 165.639648438 c 1,77,78
 400.69921875 235.3515625 400.69921875 235.3515625 333.599609375 273.879882812 c 0,79,80
 286.921875 301.38671875 286.921875 301.38671875 256.51953125 298.48046875 c 1,59,60
EndSplineSet
EndChar

StartChar: afii57407
Encoding: 1567 1567 335
Width: 1155
VWidth: 1639
GlyphClass: 2
Flags: W
LayerCount: 2
Fore
SplineSet
892.83984375 282.080078125 m 1,0,-1
 710.799804688 282.080078125 l 1,1,-1
 659.959960938 282.080078125 l 2,2,3
 639.706054688 282.709960938 639.706054688 282.709960938 637 283.719726562 c 0,4,5
 632.719726562 286.591796875 632.719726562 286.591796875 628.799804688 300.120117188 c 1,6,7
 615.39453125 326.725585938 615.39453125 326.725585938 609.120117188 337.83984375 c 0,8,9
 576.755859375 394.485351562 576.755859375 394.485351562 523.83984375 447.719726562 c 0,10,11
 479.825195312 490.591796875 479.825195312 490.591796875 343.345703125 578.22265625 c 0,12,13
 206.094726562 666.348632812 206.094726562 666.348632812 156.508789062 741.895507812 c 0,14,15
 138.54296875 769.958007812 138.54296875 769.958007812 126.959960938 798.6796875 c 0,12,13
 104.134765625 855.497070312 104.134765625 855.497070312 104 949.559570312 c 0,14,15
 104.616210938 1056.27246094 104.616210938 1056.27246094 133.51953125 1131.59960938 c 0,16,17
 187.275390625 1265.06152344 187.275390625 1265.06152344 326.216796875 1337.69628906 c 0,18,19
 371.350585938 1360.83886719 371.350585938 1360.83886719 417.240234375 1372.6796875 c 0,18,19
 502.807617188 1395.61132812 502.807617188 1395.61132812 622.240234375 1384.16015625 c 0,20,21
 733.786132812 1372.24511719 733.786132812 1372.24511719 855.120117188 1318.55957031 c 0,22,23
 868.779296875 1312.08984375 868.779296875 1312.08984375 895.428710938 1297.28027344 c 0,24,25
 930.046875 1278.25976562 930.046875 1278.25976562 946.959960938 1271 c 1,24,-1
 937.120117188 1251.3203125 l 1,25,-1
 946.959960938 1248.04003906 l 1,26,-1
 937.120117188 1228.36035156 l 1,27,-1
 946.959960938 1225.08007812 l 1,28,29
 941.40625 1211.63964844 941.40625 1211.63964844 924 1187.36035156 c 0,30,31
 914.979492188 1172.59960938 914.979492188 1172.59960938 896.120117188 1143.90039062 c 0,32,33
 876.948242188 1114.61425781 876.948242188 1114.61425781 868.240234375 1100.44042969 c 0,32,33
 866.147460938 1097.82519531 866.147460938 1097.82519531 860.67578125 1088.08007812 c 0,34,35
 847.061523438 1063.83691406 847.061523438 1063.83691406 840.359375 1062.71972656 c 0,34,35
 837.592773438 1061.79785156 837.592773438 1061.79785156 833.032226562 1064.13476562 c 0,36,37
 828.671875 1065.67285156 828.671875 1065.67285156 827.240234375 1066 c 0,36,37
 824.780273438 1066 824.780273438 1066 821.5 1064.36035156 c 0,38,39
 817.23046875 1063.00683594 817.23046875 1063.00683594 815.759765625 1062.71972656 c 0,38,39
 813.606445312 1062.71972656 813.606445312 1062.71972656 809.966796875 1064.58496094 c 0,40,41
 804.629882812 1066.07421875 804.629882812 1066.07421875 802.639648438 1066 c 0,40,41
 800.4375 1066 800.4375 1066 797.416015625 1064.07226562 c 0,42,43
 792.833984375 1062.72753906 792.833984375 1062.72753906 791.16015625 1062.71972656 c 0,42,43
 784.049804688 1064.75097656 784.049804688 1064.75097656 769.112304688 1074.74316406 c 0,44,45
 760.075195312 1080.56933594 760.075195312 1080.56933594 756.719726562 1082.40039062 c 0,44,45
 733.744140625 1096.22460938 733.744140625 1096.22460938 689.479492188 1115.20019531 c 1,46,47
 606.938476562 1146.27148438 606.938476562 1146.27148438 550.080078125 1144.71972656 c 0,48,49
 451.336914062 1141.12890625 451.336914062 1141.12890625 389.15625 1065.16699219 c 0,50,51
 360.399414062 1028.6640625 360.399414062 1028.6640625 351.639648438 987.280273438 c 1,50,51
 344.293945312 939.533203125 344.293945312 939.533203125 389.359375 883.959960938 c 1,52,53
 430.2734375 829.848632812 430.2734375 829.848632812 550.840820312 757.850585938 c 0,54,55
 581.107421875 739.729492188 581.107421875 739.729492188 594.359375 731.440429688 c 0,54,55
 608.08203125 722.708007812 608.08203125 722.708007812 636.208007812 705.634765625 c 0,56,57
 719.895507812 654.416992188 719.895507812 654.416992188 755.080078125 623.200195312 c 0,56,57
 859.606445312 527.338867188 859.606445312 527.338867188 886.280273438 387.040039062 c 1,58,59
 892.756835938 340.01953125 892.756835938 340.01953125 892.83984375 282.080078125 c 1,0,-1
879.719726562 1236.55957031 m 1,60,61
 736.833007812 1311.73632812 736.833007812 1311.73632812 627.16015625 1330.04003906 c 0,62,63
 563.484375 1340.90722656 563.484375 1340.90722656 541.879882812 1339.87988281 c 0,64,65
 386.299804688 1329.43066406 386.299804688 1329.43066406 266.096679688 1211.50683594 c 0,66,67
 135.458007812 1083.34472656 135.458007812 1083.34472656 151.98046875 925.578125 c 0,68,69
 154.96875 899.677734375 154.96875 899.677734375 161.399414062 875.759765625 c 0,66,67
 194.251953125 759.750976562 194.251953125 759.750976562 334.950195312 660.858398438 c 0,68,69
 360.360351562 642.998046875 360.360351562 642.998046875 413.169921875 609.135742188 c 0,70,71
 508.06640625 547.959960938 508.06640625 547.959960938 548.439453125 513.3203125 c 0,68,69
 611.06640625 457.640625 611.06640625 457.640625 648.479492188 395.240234375 c 0,70,71
 662.64453125 373.323242188 662.64453125 373.323242188 673.080078125 347.6796875 c 0,72,73
 674.29296875 345.860351562 674.29296875 345.860351562 676.294921875 340.358398438 c 0,74,75
 680.607421875 331.446289062 680.607421875 331.446289062 682.919921875 329.639648438 c 0,74,75
 688.973632812 326.92578125 688.973632812 326.92578125 728.83984375 328 c 2,76,-1
 842 328 l 1,77,78
 808.857421875 502.765625 808.857421875 502.765625 679.639648438 601.879882812 c 0,79,80
 647.80078125 625.758789062 647.80078125 625.758789062 486.217773438 725.096679688 c 0,81,82
 475.884765625 731.469726562 475.884765625 731.469726562 468.080078125 736.360351562 c 0,81,82
 368.130859375 796.872070312 368.130859375 796.872070312 330.319335938 856.080078125 c 0,83,84
 307.127929688 893.405273438 307.127929688 893.405273438 304.080078125 961.040039062 c 0,85,86
 297.956054688 1107.51171875 297.956054688 1107.51171875 412.319335938 1166.04003906 c 0,87,88
 470.029296875 1194.11523438 470.029296875 1194.11523438 592.393554688 1190.90332031 c 0,89,90
 599.372070312 1190.71972656 599.372070312 1190.71972656 602.559570312 1190.63964844 c 0,89,90
 673.1953125 1187.53027344 673.1953125 1187.53027344 740.319335938 1159.48046875 c 0,91,92
 749.50390625 1155.54394531 749.50390625 1155.54394531 767.872070312 1145.57324219 c 0,93,94
 795.970703125 1130.72460938 795.970703125 1130.72460938 809.200195312 1126.6796875 c 1,93,-1
 879.719726562 1236.55957031 l 1,60,61
633.719726562 242.719726562 m 1,94,-1
 907.599609375 244.360351562 l 1,95,-1
 901.040039062 221.400390625 l 1,96,-1
 907.599609375 221.400390625 l 1,97,-1
 901.040039062 198.440429688 l 1,98,-1
 907.599609375 198.440429688 l 1,99,-1
 845.280273438 -22.9599609375 l 1,100,-1
 573.040039062 -24.599609375 l 1,101,-1
 579.599609375 -1.6396484375 l 1,102,-1
 573.040039062 -1.6396484375 l 1,103,-1
 579.599609375 21.3203125 l 1,104,-1
 573.040039062 21.3203125 l 1,105,-1
 633.719726562 242.719726562 l 1,94,-1
848.559570312 198.440429688 m 1,106,-1
 679.639648438 196.799804688 l 1,107,-1
 632.080078125 21.3203125 l 1,108,-1
 799.359375 22.9599609375 l 1,109,-1
 848.559570312 198.440429688 l 1,106,-1
EndSplineSet
EndChar

StartChar: afii57409
Encoding: 1569 1569 336
AltUni2: 00fe80.ffffffff.0
Width: 776
VWidth: 1639
GlyphClass: 2
Flags: HW
AnchorPoint: "GposMark2BaseAnchorHamzaErabAbove_01_01" 309.96 564.468 basechar 0
AnchorPoint: "GposMark2BaseAnchorHamzaErabBelow_01_01" 309.96 -174.6 basechar 0
LayerCount: 2
Fore
SplineSet
180.400390625 137.759765625 m 1,0,1
 180.607421875 256.967773438 180.607421875 256.967773438 190.240234375 331.280273438 c 1,2,3
 193.510742188 380.34375 193.510742188 380.34375 205.932617188 394.45703125 c 0,4,5
 208.723632812 397.32421875 208.723632812 397.32421875 209.919921875 398.51953125 c 0,6,7
 235.166015625 414.467773438 235.166015625 414.467773438 300.120117188 413.280273438 c 2,8,-1
 510.040039062 413.280273438 l 1,9,10
 581.892578125 411.05078125 581.892578125 411.05078125 600.240234375 395.240234375 c 1,11,12
 610.276367188 382.006835938 610.276367188 382.006835938 610.080078125 349.3203125 c 0,13,14
 609.850585938 268.288085938 609.850585938 268.288085938 606.799804688 246 c 1,15,-1
 478.879882812 246 l 2,16,17
 474.799804688 244.979492188 474.799804688 244.979492188 465.60546875 244.202148438 c 0,18,19
 444.677734375 241.205078125 444.677734375 241.205078125 437.879882812 234.51953125 c 0,20,21
 422.254882812 214.813476562 422.254882812 214.813476562 423.120117188 144.3203125 c 1,22,-1
 619.919921875 144.3203125 l 1,23,-1
 619.919921875 121.360351562 l 1,24,-1
 619.919921875 98.400390625 l 1,25,26
 614.786132812 72.18359375 614.786132812 72.18359375 608.440429688 24.599609375 c 0,27,28
 603.845703125 -4.439453125 603.845703125 -4.439453125 595.3203125 -11.48046875 c 0,29,30
 579.025390625 -24.576171875 579.025390625 -24.576171875 537.919921875 -24.599609375 c 2,31,-1
 432.959960938 -24.599609375 l 1,32,-1
 0 -24.599609375 l 1,33,-1
 1.6396484375 41 l 1,34,-1
 9.83984375 137.759765625 l 1,35,-1
 180.400390625 137.759765625 l 1,0,1
560.879882812 291.919921875 m 1,36,37
 566.745117188 336.831054688 566.745117188 336.831054688 549.400390625 352.599609375 c 1,38,39
 529.733398438 367.341796875 529.733398438 367.341796875 480.51953125 367.360351562 c 2,40,-1
 334.559570312 367.360351562 l 2,41,42
 277.036132812 366.40234375 277.036132812 366.40234375 260.759765625 355.879882812 c 0,43,44
 254.200195312 352.599609375 254.200195312 352.599609375 250.099609375 346.860351562 c 128,-1,45
 246 341.120117188 246 341.120117188 243.540039062 337.01953125 c 128,-1,46
 241.080078125 332.919921875 241.080078125 332.919921875 239.440429688 323.900390625 c 128,-1,47
 237.799804688 314.879882812 237.799804688 314.879882812 237.799804688 312.419921875 c 128,-1,48
 237.799804688 309.959960938 237.799804688 309.959960938 236.979492188 298.48046875 c 2,49,-1
 236.16015625 287 l 1,50,51
 226.404296875 190.280273438 226.404296875 190.280273438 226.3203125 91.83984375 c 1,52,-1
 55.759765625 91.83984375 l 1,53,-1
 50.83984375 21.3203125 l 1,54,-1
 403.440429688 21.3203125 l 1,55,-1
 490.360351562 21.3203125 l 2,56,57
 529.928710938 22.1630859375 529.928710938 22.1630859375 546.120117188 31.16015625 c 0,58,59
 562.018554688 40.943359375 562.018554688 40.943359375 566.4765625 90.14453125 c 0,60,61
 567.05078125 95.54296875 567.05078125 95.54296875 567.440429688 98.400390625 c 1,62,-1
 377.200195312 98.400390625 l 1,63,64
 377.200195312 118.900390625 377.200195312 118.900390625 378.01953125 160.719726562 c 0,65,66
 378.819335938 203.05859375 378.819335938 203.05859375 378.83984375 223.040039062 c 0,67,68
 379.903320312 267.125 379.903320312 267.125 391.959960938 282.080078125 c 0,69,70
 396.879882812 287 396.879882812 287 402.620117188 288.639648438 c 128,-1,71
 408.360351562 290.280273438 408.360351562 290.280273438 420.66015625 291.099609375 c 2,72,-1
 432.959960938 291.919921875 l 2,73,74
 449.989257812 293.165039062 449.989257812 293.165039062 560.879882812 291.919921875 c 1,36,37
EndSplineSet
EndChar

StartChar: afii57410
Encoding: 1570 1570 337
AltUni2: 00fe81.ffffffff.0
Width: 447
VWidth: 1639
GlyphClass: 2
Flags: W
LayerCount: 2
Fore
SplineSet
427.319335938 1741.6796875 m 1,0,1
 439.435546875 1734.65429688 439.435546875 1734.65429688 451.919921875 1741.6796875 c 1,2,3
 462.094726562 1733.265625 462.094726562 1733.265625 474.879882812 1741.6796875 c 1,4,-1
 535.559570312 1669.51953125 l 1,5,-1
 563.439453125 1633.44042969 l 1,6,-1
 551.959960938 1626.87988281 l 1,7,-1
 563.439453125 1610.48046875 l 1,8,-1
 551.959960938 1603.91992188 l 1,9,-1
 563.439453125 1587.51953125 l 1,10,11
 445.615234375 1507.83203125 445.615234375 1507.83203125 307.599609375 1512.08007812 c 0,12,13
 274.637695312 1512.86523438 274.637695312 1512.86523438 209.481445312 1522.69433594 c 0,14,15
 137.953125 1533.23925781 137.953125 1533.23925781 102.599609375 1533.40039062 c 0,14,15
 54.609375 1532.62109375 54.609375 1532.62109375 -0.7197265625 1503.87988281 c 0,16,17
 -3.5576171875 1502.6640625 -3.5576171875 1502.6640625 -9.685546875 1498.79589844 c 0,18,19
 -28.9873046875 1486.61328125 -28.9873046875 1486.61328125 -35.16015625 1498.95996094 c 1,18,19
 -51.1640625 1489.515625 -51.1640625 1489.515625 -58.1201171875 1498.95996094 c 1,20,21
 -75.044921875 1486.26660156 -75.044921875 1486.26660156 -91.9453125 1509.51367188 c 0,22,23
 -96.5849609375 1515.81054688 -96.5849609375 1515.81054688 -97.48046875 1517 c 0,22,23
 -108.23046875 1529.18359375 -108.23046875 1529.18359375 -128.399414062 1554.08007812 c 0,24,25
 -154.708007812 1586.31738281 -154.708007812 1586.31738281 -168 1600.63964844 c 1,24,-1
 -168 1602.28027344 l 1,25,-1
 -156.520507812 1608.83984375 l 1,26,-1
 -168 1623.59960938 l 1,27,-1
 -168 1625.24023438 l 1,28,-1
 -156.520507812 1631.79980469 l 1,29,-1
 -168 1646.55957031 l 1,30,-1
 -168 1648.20019531 l 1,31,32
 -66.0048828125 1726.39648438 -66.0048828125 1726.39648438 116.0859375 1711.68847656 c 0,33,34
 137.331054688 1709.92285156 137.331054688 1709.92285156 161.639648438 1707.24023438 c 0,33,34
 290.614257812 1693.16992188 290.614257812 1693.16992188 333.475585938 1700.01464844 c 0,35,36
 389.015625 1709.89746094 389.015625 1709.89746094 427.319335938 1741.6796875 c 1,0,1
494.559570312 1617.04003906 m 1,35,36
 486.891601562 1627.96777344 486.891601562 1627.96777344 458.479492188 1659.6796875 c 0,37,38
 448.591796875 1672.09960938 448.591796875 1672.09960938 443.719726562 1674.44042969 c 0,39,40
 439.186523438 1675.08789062 439.186523438 1675.08789062 403.35546875 1660.06738281 c 0,41,42
 399.55859375 1658.63476562 399.55859375 1658.63476562 397.799804688 1658.04003906 c 0,41,42
 357.780273438 1646.7578125 357.780273438 1646.7578125 310.879882812 1646.55957031 c 0,43,44
 236.341796875 1646.74511719 236.341796875 1646.74511719 137.040039062 1658.04003906 c 1,45,46
 53.0673828125 1669.66015625 53.0673828125 1669.66015625 32.080078125 1667.87988281 c 0,47,48
 -30.09765625 1660.44628906 -30.09765625 1660.44628906 -97.48046875 1618.6796875 c 1,49,50
 -90.24609375 1608.34570312 -90.24609375 1608.34570312 -73.5126953125 1588.08789062 c 0,51,52
 -63.671875 1576.08984375 -63.671875 1576.08984375 -59.759765625 1571.12011719 c 0,51,52
 -43.9072265625 1555.26660156 -43.9072265625 1555.26660156 -41.7197265625 1554.71972656 c 0,53,54
 -38.3837890625 1554.24316406 -38.3837890625 1554.24316406 -5.11328125 1567.91699219 c 0,55,56
 -2.01953125 1569.03613281 -2.01953125 1569.03613281 -0.7197265625 1569.48046875 c 0,55,56
 48.72265625 1580.72558594 48.72265625 1580.72558594 86.2001953125 1580.95996094 c 0,57,58
 166.6171875 1580.75976562 166.6171875 1580.75976562 246.919921875 1571.12011719 c 0,59,60
 256.842773438 1570.07519531 256.842773438 1570.07519531 277.866210938 1566.62597656 c 0,61,62
 324.4921875 1559.38476562 324.4921875 1559.38476562 345.319335938 1561.28027344 c 0,61,62
 389.109375 1566.43164062 389.109375 1566.43164062 483.286132812 1611.69335938 c 0,63,64
 490.100585938 1614.94824219 490.100585938 1614.94824219 494.559570312 1617.04003906 c 1,35,36
33.7197265625 1408.75976562 m 1,63,-1
 425.6796875 1408.75976562 l 1,64,-1
 430.599609375 -24.599609375 l 1,65,-1
 38.6396484375 -24.599609375 l 1,66,-1
 33.7197265625 1408.75976562 l 1,63,-1
379.759765625 1362.83984375 m 1,67,-1
 79.6396484375 1362.83984375 l 1,68,-1
 84.5595703125 21.3203125 l 1,69,-1
 384.6796875 21.3203125 l 1,70,-1
 379.759765625 1362.83984375 l 1,67,-1
EndSplineSet
AlternateSubs2: "gsub_alternate_dfl_aalt_arab_FAR_Lookup_01_Subtable_01" uniFE82 afii57410
Substitution2: "gsub_single_rtl_fina_arab_FAR_Lookup_01_Subtable_01" uniFE82
PairPos2: "gpos_pair_dfl_kern_arab_FAR_Lookup_01_Subtable_01" gafarabic dx=0 dy=0 dh=0 dv=0 dx=0 dy=0 dh=0 dv=0
EndChar

StartChar: uniFE83
Encoding: 1571 1571 339
AltUni2: 00fe83.ffffffff.0
Width: 475
VWidth: 1639
GlyphClass: 2
Flags: W
LayerCount: 2
Fore
SplineSet
4.8203125 1408.75976562 m 1,0,-1
 395.140625 1408.75976562 l 1,1,-1
 400.060546875 -24.599609375 l 1,2,-1
 8.1005859375 -24.599609375 l 1,3,-1
 4.8203125 1408.75976562 l 1,0,-1
349.220703125 1362.83984375 m 1,4,-1
 50.740234375 1362.83984375 l 1,5,-1
 54.0205078125 21.3203125 l 1,6,-1
 354.140625 21.3203125 l 1,7,-1
 349.220703125 1362.83984375 l 1,4,-1
113.879882812 1610.48046875 m 1,0,1
 114.025390625 1648.30078125 114.025390625 1648.30078125 120.440429688 1722 c 0,2,3
 124.180664062 1759.40722656 124.180664062 1759.40722656 128.564453125 1765.625 c 0,4,5
 131.715820312 1769.32226562 131.715820312 1769.32226562 133.560546875 1771.20019531 c 0,4,5
 147.266601562 1780.53613281 147.266601562 1780.53613281 190.959960938 1779.40039062 c 2,6,-1
 330.360351562 1779.40039062 l 2,7,8
 377.422851562 1778.17871094 377.422851562 1778.17871094 387.760742188 1767.91992188 c 0,9,10
 390.107421875 1765.10351562 390.107421875 1765.10351562 391.583007812 1762.02734375 c 0,11,12
 393.05859375 1758.95019531 393.05859375 1758.95019531 393.620117188 1754.48730469 c 0,13,14
 394.181640625 1750.02441406 394.181640625 1750.02441406 394.364257812 1748.09375 c 0,15,16
 394.546875 1746.16308594 394.546875 1746.16308594 394.43359375 1740.16015625 c 0,17,18
 394.3203125 1734.15820312 394.3203125 1734.15820312 394.3203125 1733.48046875 c 0,11,12
 394.215820312 1682.17382812 394.215820312 1682.17382812 392.680664062 1658.04003906 c 1,13,-1
 323.80078125 1658.04003906 l 2,14,15
 297.337890625 1656.53515625 297.337890625 1656.53515625 287.720703125 1644.91992188 c 1,16,17
 281.196289062 1633.56835938 281.196289062 1633.56835938 281.16015625 1613.75976562 c 1,18,-1
 400.879882812 1613.75976562 l 1,19,20
 399.231445312 1600.57226562 399.231445312 1600.57226562 398.4140625 1573.98925781 c 0,21,22
 397.43359375 1546.67675781 397.43359375 1546.67675781 395.959960938 1533.40039062 c 0,21,22
 390.739257812 1506.63671875 390.739257812 1506.63671875 387.760742188 1502.24023438 c 1,23,24
 376.220703125 1494.37988281 376.220703125 1494.37988281 359.879882812 1494.04003906 c 0,25,26
 344.678710938 1492.234375 344.678710938 1492.234375 286.080078125 1492.40039062 c 2,27,-1
 4 1492.40039062 l 1,28,29
 4.26953125 1571.66699219 4.26953125 1571.66699219 10.560546875 1610.48046875 c 1,30,-1
 113.879882812 1610.48046875 l 1,0,1
346.760742188 1703.95996094 m 1,31,32
 343.815429688 1727.83398438 343.815429688 1727.83398438 317.240234375 1733.48046875 c 0,33,34
 312.63671875 1733.81542969 312.63671875 1733.81542969 223.760742188 1733.48046875 c 0,35,36
 191.734375 1732.54296875 191.734375 1732.54296875 182.760742188 1726.91992188 c 0,37,38
 166.396484375 1713.65625 166.396484375 1713.65625 166.360351562 1677.71972656 c 0,39,40
 165.704101562 1662.63183594 165.704101562 1662.63183594 163.342773438 1632.45605469 c 0,41,42
 159.8828125 1586.64550781 159.8828125 1586.64550781 159.80078125 1564.55957031 c 1,41,-1
 56.48046875 1564.55957031 l 1,42,-1
 53.2001953125 1538.3203125 l 1,43,-1
 274.600585938 1538.3203125 l 2,44,45
 327.426757812 1538.3203125 327.426757812 1538.3203125 339.181640625 1550.22558594 c 0,46,47
 345.70703125 1558.37011719 345.70703125 1558.37011719 348.400390625 1567.83984375 c 1,46,-1
 233.600585938 1567.83984375 l 1,47,48
 233.600585938 1582.59960938 233.600585938 1582.59960938 234.419921875 1611.29980469 c 0,49,50
 235.2109375 1640.5859375 235.2109375 1640.5859375 235.240234375 1654.75976562 c 0,49,50
 236.745117188 1687.12988281 236.745117188 1687.12988281 246.720703125 1695.75976562 c 0,51,52
 258.310546875 1703.92871094 258.310546875 1703.92871094 282.80078125 1703.95996094 c 2,53,-1
 346.760742188 1703.95996094 l 1,31,32
EndSplineSet
AlternateSubs2: "gsub_alternate_dfl_aalt_arab_FAR_Lookup_01_Subtable_01" uniFE84 uniFE83
Substitution2: "gsub_single_rtl_fina_arab_FAR_Lookup_01_Subtable_01" uniFE84
EndChar

StartChar: uniFE84
Encoding: 65156 65156 340
Width: 719
VWidth: 1639
GlyphClass: 2
Flags: W
LayerCount: 2
Fore
SplineSet
37.6005859375 1405.48046875 m 1,0,-1
 429.560546875 1405.48046875 l 1,1,2
 429.560546875 1275.09960938 429.560546875 1275.09960938 432.020507812 1014.33984375 c 0,3,4
 434.469726562 753.033203125 434.469726562 753.033203125 434.48046875 623.200195312 c 0,3,4
 434.48046875 592.040039062 434.48046875 592.040039062 435.299804688 530.540039062 c 0,5,6
 436.106445312 468.474609375 436.106445312 468.474609375 436.120117188 437.879882812 c 0,5,6
 438.65234375 363.875 438.65234375 363.875 460.720703125 339.48046875 c 1,7,8
 487.6484375 317.622070312 487.6484375 317.622070312 552.560546875 318.16015625 c 0,9,10
 585.360351562 318.16015625 585.360351562 318.16015625 651.780273438 317.33984375 c 0,11,12
 718.729492188 316.533203125 718.729492188 316.533203125 751 316.51953125 c 1,11,-1
 751 270.599609375 l 1,12,13
 711.640625 270.599609375 711.640625 270.599609375 633.740234375 271.419921875 c 0,14,15
 555.278320312 272.228515625 555.278320312 272.228515625 516.48046875 272.240234375 c 0,14,15
 447.499023438 272.240234375 447.499023438 272.240234375 428.559570312 282.17578125 c 0,16,17
 420.916992188 286.185546875 420.916992188 286.185546875 414.799804688 291.919921875 c 0,16,17
 390.098632812 316.780273438 390.098632812 316.780273438 390.200195312 387.040039062 c 0,18,19
 390.200195312 418.200195312 390.200195312 418.200195312 389.379882812 480.51953125 c 0,20,21
 388.57421875 543.38671875 388.57421875 543.38671875 388.560546875 574 c 0,20,21
 388.560546875 705.200195312 388.560546875 705.200195312 386.100585938 966.780273438 c 0,22,23
 383.650390625 1228.91113281 383.650390625 1228.91113281 383.640625 1359.55957031 c 1,22,-1
 83.5205078125 1359.55957031 l 1,23,-1
 83.5205078125 441.16015625 l 2,24,25
 83.5205078125 282.171875 83.5205078125 282.171875 87.5751953125 250.923828125 c 0,26,27
 104.7265625 130.293945312 104.7265625 130.293945312 181.919921875 70.51953125 c 0,26,27
 246.439453125 22.130859375 246.439453125 22.130859375 385.922851562 21.361328125 c 0,28,29
 394.939453125 21.3203125 394.939453125 21.3203125 408.240234375 21.3203125 c 0,28,29
 465.640625 21.3203125 465.640625 21.3203125 579.620117188 22.1396484375 c 0,30,31
 694.157226562 22.9521484375 694.157226562 22.9521484375 751 22.9599609375 c 1,30,-1
 751 -24.599609375 l 1,31,-1
 368.879882812 -24.599609375 l 2,32,33
 237.447265625 -24.599609375 237.447265625 -24.599609375 184.404296875 -3.5498046875 c 0,34,35
 156.432617188 8.111328125 156.432617188 8.111328125 134.360351562 24.599609375 c 0,34,35
 39.1630859375 96.6416015625 39.1630859375 96.6416015625 35.7431640625 273.7265625 c 0,36,37
 35.205078125 301.5703125 35.205078125 301.5703125 36.6044921875 356.819335938 c 0,38,39
 37.6005859375 396.109375 37.6005859375 396.109375 37.6005859375 414.919921875 c 2,36,-1
 37.6005859375 1405.48046875 l 1,0,-1
122.879882812 1607.20019531 m 1,0,1
 123.025390625 1645.02148438 123.025390625 1645.02148438 129.440429688 1718.71972656 c 0,2,3
 133.180664062 1756.12695312 133.180664062 1756.12695312 137.563476562 1762.34570312 c 0,4,5
 140.715820312 1766.04199219 140.715820312 1766.04199219 142.560546875 1767.91992188 c 0,4,5
 156.266601562 1777.25683594 156.266601562 1777.25683594 199.959960938 1776.12011719 c 2,6,-1
 339.360351562 1776.12011719 l 2,7,8
 386.422851562 1774.8984375 386.422851562 1774.8984375 396.759765625 1764.63964844 c 0,9,10
 398.400390625 1761.36035156 398.400390625 1761.36035156 400.040039062 1758.90039062 c 0,11,12
 401.680664062 1756.44042969 401.680664062 1756.44042969 402.5 1751.51953125 c 0,13,14
 403.3203125 1746.59960938 403.3203125 1746.59960938 403.3203125 1744.95996094 c 0,15,16
 403.3203125 1743.3203125 403.3203125 1743.3203125 403.3203125 1736.75976562 c 2,17,-1
 403.3203125 1730.20019531 l 2,11,12
 403.215820312 1678.89355469 403.215820312 1678.89355469 401.680664062 1654.75976562 c 1,13,-1
 332.799804688 1654.75976562 l 2,14,15
 306.337890625 1653.25488281 306.337890625 1653.25488281 296.720703125 1641.63964844 c 1,16,17
 290.196289062 1630.28808594 290.196289062 1630.28808594 290.16015625 1610.48046875 c 1,18,-1
 409.879882812 1610.48046875 l 1,19,20
 408.231445312 1597.29199219 408.231445312 1597.29199219 407.4140625 1570.70898438 c 0,21,22
 406.43359375 1543.39648438 406.43359375 1543.39648438 404.959960938 1530.12011719 c 0,21,22
 399.739257812 1503.35644531 399.739257812 1503.35644531 396.759765625 1498.95996094 c 1,23,24
 385.220703125 1491.09960938 385.220703125 1491.09960938 368.879882812 1490.75976562 c 0,25,26
 353.678710938 1488.95410156 353.678710938 1488.95410156 295.080078125 1489.12011719 c 2,27,-1
 13 1489.12011719 l 1,28,29
 13.26953125 1568.38671875 13.26953125 1568.38671875 19.560546875 1607.20019531 c 1,30,-1
 122.879882812 1607.20019531 l 1,0,1
355.759765625 1700.6796875 m 1,31,32
 352.815429688 1724.55371094 352.815429688 1724.55371094 326.240234375 1730.20019531 c 0,33,34
 321.63671875 1730.53515625 321.63671875 1730.53515625 232.759765625 1730.20019531 c 0,35,36
 200.734375 1729.26269531 200.734375 1729.26269531 191.759765625 1723.63964844 c 0,37,38
 175.396484375 1710.37695312 175.396484375 1710.37695312 175.360351562 1674.44042969 c 0,39,40
 174.704101562 1659.3515625 174.704101562 1659.3515625 172.342773438 1629.17578125 c 0,41,42
 168.8828125 1583.36523438 168.8828125 1583.36523438 168.799804688 1561.28027344 c 1,41,-1
 65.48046875 1561.28027344 l 1,42,-1
 62.2001953125 1535.04003906 l 1,43,-1
 283.600585938 1535.04003906 l 2,44,45
 336.426757812 1535.04003906 336.426757812 1535.04003906 348.180664062 1546.9453125 c 0,46,47
 354.70703125 1555.09082031 354.70703125 1555.09082031 357.400390625 1564.55957031 c 1,46,-1
 242.600585938 1564.55957031 l 1,47,48
 242.600585938 1579.3203125 242.600585938 1579.3203125 243.419921875 1608.01953125 c 0,49,50
 244.2109375 1637.30664062 244.2109375 1637.30664062 244.240234375 1651.48046875 c 0,49,50
 245.745117188 1683.84960938 245.745117188 1683.84960938 255.720703125 1692.48046875 c 0,51,52
 267.310546875 1700.6484375 267.310546875 1700.6484375 291.799804688 1700.6796875 c 2,53,-1
 355.759765625 1700.6796875 l 1,31,32
EndSplineSet
EndChar

StartChar: uniFE85
Encoding: 1572 1572 341
AltUni2: 00fe85.ffffffff.0
Width: 1015
VWidth: 1639
GlyphClass: 2
Flags: W
LayerCount: 2
Fore
SplineSet
274.004882812 91.83984375 m 1,0,1
 0.34765625 180.018554688 0.34765625 180.018554688 -77.4443359375 359.543945312 c 0,2,3
 -83.8505859375 374.74609375 -83.8505859375 374.74609375 -88.435546875 388.6796875 c 0,2,3
 -153.110351562 599.053710938 -153.110351562 599.053710938 50.96484375 874.120117188 c 1,4,5
 136.142578125 985.826171875 136.142578125 985.826171875 219.884765625 1021.71972656 c 1,6,7
 255.362304688 1034.92480469 255.362304688 1034.92480469 336.32421875 1034.83984375 c 0,8,9
 510.57421875 1033.93359375 510.57421875 1033.93359375 620.044921875 965.959960938 c 0,10,11
 785.801757812 861.680664062 785.801757812 861.680664062 821.764648438 608.440429688 c 0,12,13
 877.551757812 219.807617188 877.551757812 219.807617188 665.96484375 -121.360351562 c 0,14,15
 588.618164062 -247.495117188 588.618164062 -247.495117188 505.245117188 -331.280273438 c 2,16,17
 462.604492188 -373.919921875 l 2,18,19
 446.750976562 -389.7734375 446.750976562 -389.7734375 441.28515625 -391.959960938 c 1,20,21
 437.9609375 -391.27734375 437.9609375 -391.27734375 428.165039062 -387.040039062 c 0,22,23
 425.705078125 -387.040039062 425.705078125 -387.040039062 422.424804688 -389.5 c 0,24,25
 418.155273438 -391.529296875 418.155273438 -391.529296875 416.684570312 -391.959960938 c 0,24,25
 414.53125 -391.959960938 414.53125 -391.959960938 410.891601562 -390.094726562 c 0,26,27
 405.5546875 -388.60546875 405.5546875 -388.60546875 403.564453125 -388.6796875 c 0,26,27
 401.104492188 -388.6796875 401.104492188 -388.6796875 397.82421875 -390.3203125 c 0,28,29
 393.5546875 -391.672851562 393.5546875 -391.672851562 392.084960938 -391.959960938 c 0,28,29
 385.067382812 -389.741210938 385.067382812 -389.741210938 369.125 -377.200195312 c 1,30,-1
 316.64453125 -344.400390625 l 2,31,32
 288.060546875 -326.899414062 288.060546875 -326.899414062 231.6953125 -290.220703125 c 0,33,34
 128.83203125 -223.48828125 128.83203125 -223.48828125 75.564453125 -195.16015625 c 1,33,-1
 90.32421875 -182.040039062 l 1,34,-1
 90.32421875 -180.400390625 l 1,35,-1
 75.564453125 -172.200195312 l 1,36,-1
 90.32421875 -159.080078125 l 1,37,-1
 90.32421875 -157.440429688 l 1,38,-1
 75.564453125 -149.240234375 l 1,39,40
 80.0126953125 -143.90234375 80.0126953125 -143.90234375 144.638671875 -80.404296875 c 0,41,42
 152.408203125 -72.654296875 152.408203125 -72.654296875 157.564453125 -67.240234375 c 0,41,42
 216.114257812 -1.6455078125 216.114257812 -1.6455078125 274.004882812 91.83984375 c 1,0,1
152.64453125 -168.919921875 m 1,43,44
 177.17578125 -181.493164062 177.17578125 -181.493164062 218.245117188 -209.919921875 c 1,45,-1
 344.524414062 -288.639648438 l 1,46,47
 393.724609375 -318.16015625 l 2,48,49
 410.541015625 -328.04296875 410.541015625 -328.04296875 413.404296875 -328 c 0,50,51
 419.887695312 -325.30859375 419.887695312 -325.30859375 431.444335938 -313.240234375 c 0,52,53
 438.82421875 -305.860351562 438.82421875 -305.860351562 452.764648438 -291.099609375 c 0,54,55
 467.305664062 -275.79296875 467.305664062 -275.79296875 474.084960938 -268.959960938 c 0,54,55
 561.696289062 -175.9453125 561.696289062 -175.9453125 631.524414062 -57.400390625 c 0,56,57
 784.459960938 197.333984375 784.459960938 197.333984375 787.32421875 442.799804688 c 0,58,59
 786.98828125 518.264648438 786.98828125 518.264648438 767.64453125 610.080078125 c 0,60,61
 723.344726562 836.504882812 723.344726562 836.504882812 555.775390625 930.741210938 c 0,62,63
 530.629882812 944.579101562 530.629882812 944.579101562 505.245117188 954.48046875 c 0,62,63
 430.729492188 980.61328125 430.729492188 980.61328125 359.28515625 985.639648438 c 0,64,65
 312.818359375 988.501953125 312.818359375 988.501953125 290.404296875 984 c 1,66,67
 223.458984375 964.181640625 223.458984375 964.181640625 155.924804688 897.080078125 c 0,68,69
 62.9296875 803.174804688 62.9296875 803.174804688 -11.35546875 649.440429688 c 1,70,71
 -59.201171875 542.706054688 -59.201171875 542.706054688 -53.9951171875 485.440429688 c 0,72,73
 -38.1572265625 331.022460938 -38.1572265625 331.022460938 152.505859375 212.853515625 c 0,74,75
 163.922851562 205.853515625 163.922851562 205.853515625 173.96484375 200.080078125 c 0,74,75
 236.849609375 164.95703125 236.849609375 164.95703125 290.404296875 147.599609375 c 0,76,77
 339.41015625 133.233398438 339.41015625 133.233398438 342.884765625 132.83984375 c 1,78,-1
 331.404296875 111.51953125 l 1,79,-1
 342.884765625 109.879882812 l 1,80,-1
 331.404296875 88.5595703125 l 1,81,-1
 342.884765625 86.919921875 l 1,82,83
 273.13671875 -29.3271484375 273.13671875 -29.3271484375 233.004882812 -78.7197265625 c 0,84,85
 215.125976562 -100.010742188 215.125976562 -100.010742188 180.524414062 -137.759765625 c 0,86,87
 155.595703125 -163.645507812 155.595703125 -163.645507812 152.64453125 -168.919921875 c 1,43,44
390.444335938 724.879882812 m 1,88,89
 461.7734375 731.974609375 461.7734375 731.974609375 493.764648438 715.040039062 c 1,90,91
 532.649414062 689.48046875 532.649414062 689.48046875 536.404296875 628.120117188 c 0,92,93
 543.600585938 531.111328125 543.600585938 531.111328125 516.724609375 449.360351562 c 0,94,95
 494.546875 387.135742188 494.546875 387.135742188 475.724609375 355.879882812 c 1,96,97
 455.873046875 331.065429688 455.873046875 331.065429688 453.403320312 329.66796875 c 0,98,99
 450.607421875 328.455078125 450.607421875 328.455078125 449.484375 328 c 0,98,99
 442.544921875 327.008789062 442.544921875 327.008789062 427.59375 328.608398438 c 0,100,101
 417.9453125 329.639648438 417.9453125 329.639648438 413.404296875 329.639648438 c 0,100,101
 310.572265625 329.639648438 310.572265625 329.639648438 257.041992188 391.380859375 c 0,102,103
 243.685546875 407.716796875 243.685546875 407.716796875 236.28515625 424.759765625 c 0,102,103
 228.249023438 448.532226562 228.249023438 448.532226562 228.084960938 482.16015625 c 0,104,105
 229.353515625 580.791992188 229.353515625 580.791992188 295.32421875 659.280273438 c 0,106,107
 344.528320312 716.25 344.528320312 716.25 390.444335938 724.879882812 c 1,88,89
424.884765625 675.6796875 m 0,108,109
 406.75 671.602539062 406.75 671.602539062 377.32421875 649.440429688 c 1,110,111
 327.58203125 608.080078125 327.58203125 608.080078125 295.32421875 544.48046875 c 0,112,113
 276.583984375 505.127929688 276.583984375 505.127929688 277.28515625 490.360351562 c 0,114,115
 283.5234375 430.0546875 283.5234375 430.0546875 364.571289062 394.5546875 c 0,116,117
 368.48046875 392.896484375 368.48046875 392.896484375 370.764648438 391.959960938 c 0,116,117
 405.953125 381.034179688 405.953125 381.034179688 411.764648438 382.120117188 c 0,118,119
 424.219726562 386.11328125 424.219726562 386.11328125 446.205078125 431.3203125 c 0,120,121
 501.4609375 547.8515625 501.4609375 547.8515625 485.564453125 611.719726562 c 0,122,123
 472.489257812 660.75390625 472.489257812 660.75390625 440.823242188 673.377929688 c 0,124,125
 432.055664062 676.052734375 432.055664062 676.052734375 424.884765625 675.6796875 c 0,108,109
572.484375 1238.20019531 m 1,0,1
 572.62890625 1276.02148438 572.62890625 1276.02148438 579.044921875 1349.71972656 c 0,2,3
 582.78515625 1387.12695312 582.78515625 1387.12695312 587.16796875 1393.34570312 c 0,4,5
 590.3203125 1397.04199219 590.3203125 1397.04199219 592.165039062 1398.91992188 c 0,4,5
 605.87109375 1408.25683594 605.87109375 1408.25683594 649.564453125 1407.12011719 c 2,6,-1
 788.96484375 1407.12011719 l 2,7,8
 836.02734375 1405.8984375 836.02734375 1405.8984375 846.364257812 1395.63964844 c 0,9,10
 848.004882812 1392.36035156 848.004882812 1392.36035156 849.64453125 1389.90039062 c 0,11,12
 851.28515625 1387.44042969 851.28515625 1387.44042969 852.104492188 1382.51953125 c 0,13,14
 852.924804688 1377.59960938 852.924804688 1377.59960938 852.924804688 1375.95996094 c 0,15,16
 852.924804688 1374.3203125 852.924804688 1374.3203125 852.924804688 1367.75976562 c 2,17,-1
 852.924804688 1361.20019531 l 2,11,12
 852.8203125 1309.89355469 852.8203125 1309.89355469 851.28515625 1285.75976562 c 1,13,-1
 782.404296875 1285.75976562 l 2,14,15
 755.942382812 1284.25488281 755.942382812 1284.25488281 746.32421875 1272.63964844 c 1,16,17
 739.80078125 1261.28808594 739.80078125 1261.28808594 739.764648438 1241.48046875 c 1,18,-1
 859.484375 1241.48046875 l 1,19,20
 857.8359375 1228.29199219 857.8359375 1228.29199219 857.018554688 1201.70898438 c 0,21,22
 856.038085938 1174.39648438 856.038085938 1174.39648438 854.564453125 1161.12011719 c 0,21,22
 849.34375 1134.35644531 849.34375 1134.35644531 846.364257812 1129.95996094 c 1,23,24
 834.825195312 1122.09960938 834.825195312 1122.09960938 818.484375 1121.75976562 c 0,25,26
 803.282226562 1119.95410156 803.282226562 1119.95410156 744.684570312 1120.12011719 c 2,27,-1
 462.604492188 1120.12011719 l 1,28,29
 462.874023438 1199.38671875 462.874023438 1199.38671875 469.165039062 1238.20019531 c 1,30,-1
 572.484375 1238.20019531 l 1,0,1
805.364257812 1331.6796875 m 1,31,32
 802.419921875 1355.55371094 802.419921875 1355.55371094 775.844726562 1361.20019531 c 0,33,34
 771.240234375 1361.53515625 771.240234375 1361.53515625 682.364257812 1361.20019531 c 0,35,36
 650.338867188 1360.26269531 650.338867188 1360.26269531 641.364257812 1354.63964844 c 0,37,38
 625.000976562 1341.37695312 625.000976562 1341.37695312 624.96484375 1305.44042969 c 0,39,40
 624.30859375 1290.3515625 624.30859375 1290.3515625 621.947265625 1260.17578125 c 0,41,42
 618.487304688 1214.36523438 618.487304688 1214.36523438 618.404296875 1192.28027344 c 1,41,-1
 515.084960938 1192.28027344 l 1,42,-1
 511.8046875 1166.04003906 l 1,43,-1
 733.205078125 1166.04003906 l 2,44,45
 786.03125 1166.04003906 786.03125 1166.04003906 797.78515625 1177.9453125 c 0,46,47
 804.310546875 1186.09082031 804.310546875 1186.09082031 807.004882812 1195.55957031 c 1,46,-1
 692.205078125 1195.55957031 l 1,47,48
 692.205078125 1210.3203125 692.205078125 1210.3203125 693.024414062 1239.01953125 c 0,49,50
 693.844726562 1267.71972656 693.844726562 1267.71972656 693.844726562 1282.48046875 c 0,49,50
 695.349609375 1314.84960938 695.349609375 1314.84960938 705.32421875 1323.48046875 c 0,51,52
 716.915039062 1331.6484375 716.915039062 1331.6484375 741.404296875 1331.6796875 c 2,53,-1
 805.364257812 1331.6796875 l 1,31,32
EndSplineSet
AlternateSubs2: "gsub_alternate_dfl_aalt_arab_FAR_Lookup_01_Subtable_01" uniFE86 uniFE85
Substitution2: "gsub_single_rtl_fina_arab_FAR_Lookup_01_Subtable_01" uniFE86
EndChar

StartChar: uniFE86
Encoding: 65158 65158 342
Width: 909
VWidth: 1639
GlyphClass: 2
Flags: W
LayerCount: 2
Fore
SplineSet
222.026367188 91.83984375 m 1,0,1
 77.4609375 138.959960938 77.4609375 138.959960938 -15.7734375 216.48046875 c 1,2,3
 -73.3828125 266.733398438 -73.3828125 266.733398438 -105.973632812 318.16015625 c 0,4,5
 -231.514648438 516.2890625 -231.514648438 516.2890625 -42.013671875 815.080078125 c 0,6,7
 53.4609375 964.330078125 53.4609375 964.330078125 149.866210938 1013.51953125 c 0,8,9
 194.372070312 1034.90625 194.372070312 1034.90625 294.186523438 1034.83984375 c 0,10,11
 536.178710938 1034.83984375 536.178710938 1034.83984375 661.206054688 885.084960938 c 0,12,13
 663.693359375 882.063476562 663.693359375 882.063476562 664.826171875 880.6796875 c 0,12,13
 730.9375 795.056640625 730.9375 795.056640625 758.306640625 670.759765625 c 0,14,15
 791.874023438 521.6875 791.874023438 521.6875 774.706054688 316.51953125 c 1,16,-1
 940.345703125 316.51953125 l 1,17,-1
 940.345703125 270.599609375 l 1,18,-1
 718.946289062 270.599609375 l 1,19,-1
 725.505859375 293.559570312 l 1,20,-1
 718.946289062 293.559570312 l 1,21,-1
 725.505859375 316.51953125 l 1,22,-1
 718.946289062 316.51953125 l 1,23,24
 749.037109375 446.323242188 749.037109375 446.323242188 715.666015625 611.719726562 c 0,25,26
 690.727539062 730.111328125 690.727539062 730.111328125 630.385742188 816.719726562 c 0,27,28
 536.641601562 950.305664062 536.641601562 950.305664062 350.791015625 979.837890625 c 0,29,30
 347.08984375 980.409179688 347.08984375 980.409179688 345.026367188 980.719726562 c 0,29,30
 256.028320312 993.602539062 256.028320312 993.602539062 199.06640625 967.599609375 c 0,31,32
 94.2001953125 917.833007812 94.2001953125 917.833007812 -15.0810546875 737.470703125 c 0,33,34
 -18.3193359375 732.110351562 -18.3193359375 732.110351562 -20.693359375 728.16015625 c 0,33,34
 -68.775390625 647.174804688 -68.775390625 647.174804688 -91.2138671875 574 c 0,35,36
 -108.806640625 515.5703125 -108.806640625 515.5703125 -105.973632812 487.080078125 c 0,37,38
 -91.646484375 339.7109375 -91.646484375 339.7109375 85.2607421875 223.625976562 c 0,39,40
 92.9111328125 218.661132812 92.9111328125 218.661132812 99.0263671875 214.83984375 c 0,39,40
 210.672851562 143.469726562 210.672851562 143.469726562 290.90625 132.83984375 c 1,41,-1
 279.42578125 111.51953125 l 1,42,-1
 290.90625 109.879882812 l 1,43,-1
 279.42578125 88.5595703125 l 1,44,-1
 290.90625 86.919921875 l 1,45,46
 259.981445312 12.1298828125 259.981445312 12.1298828125 162.986328125 -101.6796875 c 0,47,48
 155.114257812 -110.864257812 155.114257812 -110.864257812 137.270507812 -128.182617188 c 0,49,50
 110.377929688 -154.888671875 110.377929688 -154.888671875 100.666015625 -168.919921875 c 1,49,50
 115.056640625 -173.604492188 115.056640625 -173.604492188 166.266601562 -208.280273438 c 0,51,52
 187.5859375 -221.400390625 187.5859375 -221.400390625 229.40625 -247.639648438 c 0,53,54
 271.80078125 -274.220703125 271.80078125 -274.220703125 292.545898438 -287 c 2,53,-1
 341.74609375 -318.16015625 l 2,54,55
 356.05859375 -327.702148438 356.05859375 -327.702148438 361.42578125 -326.360351562 c 0,56,57
 367.986328125 -324.719726562 367.986328125 -324.719726562 377.416015625 -314.015625 c 0,58,59
 379.465820312 -313.240234375 379.465820312 -313.240234375 380.286132812 -311.599609375 c 2,60,-1
 381.106445312 -309.959960938 l 1,58,59
 412.7734375 -278.12890625 412.7734375 -278.12890625 427.026367188 -262.400390625 c 0,60,61
 498.841796875 -187.750976562 498.841796875 -187.750976562 566.42578125 -75.4404296875 c 0,62,63
 592.874023438 -32.1474609375 592.874023438 -32.1474609375 604.146484375 -9.83984375 c 1,64,65
 614.50390625 16.0546875 614.50390625 16.0546875 620.545898438 19.6796875 c 0,66,67
 625.279296875 21.828125 625.279296875 21.828125 643.505859375 21.3203125 c 2,68,-1
 705.826171875 21.3203125 l 2,69,70
 745.186523438 21.3203125 745.186523438 21.3203125 823.0859375 22.1396484375 c 0,71,72
 901.547851562 22.94921875 901.547851562 22.94921875 940.345703125 22.9599609375 c 1,71,-1
 940.345703125 -24.599609375 l 1,72,-1
 736.986328125 -24.599609375 l 1,73,-1
 686.146484375 -24.599609375 l 2,74,75
 669.518554688 -25.6982421875 669.518554688 -25.6982421875 666.465820312 -27.8798828125 c 0,76,77
 660.603515625 -33.541015625 660.603515625 -33.541015625 648.42578125 -59.0400390625 c 0,78,79
 629.33203125 -96.8642578125 629.33203125 -96.8642578125 612.345703125 -124.639648438 c 0,80,81
 549.353515625 -223.358398438 549.353515625 -223.358398438 469.666015625 -313.240234375 c 0,82,83
 449.970703125 -334.573242188 449.970703125 -334.573242188 413.90625 -370.639648438 c 0,84,85
 393.10546875 -390.255859375 393.10546875 -390.255859375 389.306640625 -391.959960938 c 0,86,87
 386.845703125 -391.959960938 386.845703125 -391.959960938 382.74609375 -390.3203125 c 0,88,89
 377.896484375 -388.94921875 377.896484375 -388.94921875 376.186523438 -388.6796875 c 0,88,89
 370.446289062 -387.860351562 370.446289062 -387.860351562 358.146484375 -390.3203125 c 0,90,91
 345.845703125 -392.780273438 345.845703125 -392.780273438 340.106445312 -391.959960938 c 0,90,91
 333.088867188 -389.741210938 333.088867188 -389.741210938 317.146484375 -377.200195312 c 1,92,-1
 264.666015625 -344.400390625 l 2,93,94
 236.08203125 -326.899414062 236.08203125 -326.899414062 179.716796875 -290.220703125 c 0,95,96
 76.853515625 -223.48828125 76.853515625 -223.48828125 23.5859375 -195.16015625 c 1,95,-1
 38.345703125 -182.040039062 l 1,96,-1
 38.345703125 -180.400390625 l 1,97,-1
 23.5859375 -172.200195312 l 1,98,-1
 38.345703125 -159.080078125 l 1,99,-1
 38.345703125 -157.440429688 l 1,100,-1
 23.5859375 -149.240234375 l 1,101,102
 28.0341796875 -143.90234375 28.0341796875 -143.90234375 92.66015625 -80.404296875 c 0,103,104
 100.4296875 -72.654296875 100.4296875 -72.654296875 105.5859375 -67.240234375 c 0,103,104
 164.135742188 -1.6455078125 164.135742188 -1.6455078125 222.026367188 91.83984375 c 1,0,1
338.465820312 724.879882812 m 1,105,106
 409.794921875 731.974609375 409.794921875 731.974609375 441.786132812 715.040039062 c 1,107,108
 480.670898438 689.48046875 480.670898438 689.48046875 484.42578125 628.120117188 c 0,109,110
 491.622070312 531.111328125 491.622070312 531.111328125 464.74609375 449.360351562 c 0,111,112
 442.568359375 387.135742188 442.568359375 387.135742188 423.74609375 355.879882812 c 1,113,114
 403.89453125 331.065429688 403.89453125 331.065429688 401.424804688 329.66796875 c 0,115,116
 398.62890625 328.455078125 398.62890625 328.455078125 397.505859375 328 c 0,115,116
 390.56640625 327.008789062 390.56640625 327.008789062 375.615234375 328.608398438 c 0,117,118
 365.966796875 329.639648438 365.966796875 329.639648438 361.42578125 329.639648438 c 0,117,118
 258.59375 329.639648438 258.59375 329.639648438 205.063476562 391.380859375 c 0,119,120
 191.70703125 407.716796875 191.70703125 407.716796875 184.306640625 424.759765625 c 0,119,120
 176.270507812 448.532226562 176.270507812 448.532226562 176.106445312 482.16015625 c 0,121,122
 177.375 580.791992188 177.375 580.791992188 243.345703125 659.280273438 c 0,123,124
 292.549804688 716.25 292.549804688 716.25 338.465820312 724.879882812 c 1,105,106
372.90625 675.6796875 m 0,125,126
 354.771484375 671.602539062 354.771484375 671.602539062 325.345703125 649.440429688 c 1,127,128
 275.603515625 608.080078125 275.603515625 608.080078125 243.345703125 544.48046875 c 0,129,130
 224.60546875 505.127929688 224.60546875 505.127929688 225.306640625 490.360351562 c 0,131,132
 231.544921875 430.0546875 231.544921875 430.0546875 312.592773438 394.5546875 c 0,133,134
 316.501953125 392.896484375 316.501953125 392.896484375 318.786132812 391.959960938 c 0,133,134
 353.974609375 381.034179688 353.974609375 381.034179688 359.786132812 382.120117188 c 0,135,136
 372.241210938 386.11328125 372.241210938 386.11328125 394.2265625 431.3203125 c 0,137,138
 449.482421875 547.8515625 449.482421875 547.8515625 433.5859375 611.719726562 c 0,139,140
 420.510742188 660.75390625 420.510742188 660.75390625 388.844726562 673.377929688 c 0,141,142
 380.077148438 676.052734375 380.077148438 676.052734375 372.90625 675.6796875 c 0,125,126
653.345703125 1238.20019531 m 1,0,1
 653.491210938 1276.02148438 653.491210938 1276.02148438 659.90625 1349.71972656 c 0,2,3
 663.646484375 1387.12695312 663.646484375 1387.12695312 668.030273438 1393.34570312 c 0,4,5
 671.181640625 1397.04199219 671.181640625 1397.04199219 673.026367188 1398.91992188 c 0,4,5
 686.732421875 1408.25683594 686.732421875 1408.25683594 730.42578125 1407.12011719 c 2,6,-1
 869.826171875 1407.12011719 l 2,7,8
 916.888671875 1405.8984375 916.888671875 1405.8984375 927.2265625 1395.63964844 c 0,9,10
 928.866210938 1392.36035156 928.866210938 1392.36035156 930.505859375 1389.90039062 c 0,11,12
 932.146484375 1387.44042969 932.146484375 1387.44042969 932.965820312 1382.51953125 c 0,13,14
 933.786132812 1377.59960938 933.786132812 1377.59960938 933.786132812 1375.95996094 c 0,15,16
 933.786132812 1374.3203125 933.786132812 1374.3203125 933.786132812 1367.75976562 c 2,17,-1
 933.786132812 1361.20019531 l 2,11,12
 933.681640625 1309.89355469 933.681640625 1309.89355469 932.146484375 1285.75976562 c 1,13,-1
 863.266601562 1285.75976562 l 2,14,15
 836.803710938 1284.25488281 836.803710938 1284.25488281 827.186523438 1272.63964844 c 1,16,17
 820.662109375 1261.28808594 820.662109375 1261.28808594 820.625976562 1241.48046875 c 1,18,-1
 940.345703125 1241.48046875 l 1,19,20
 938.697265625 1228.29199219 938.697265625 1228.29199219 937.879882812 1201.70898438 c 0,21,22
 936.899414062 1174.39648438 936.899414062 1174.39648438 935.42578125 1161.12011719 c 0,21,22
 930.205078125 1134.35644531 930.205078125 1134.35644531 927.2265625 1129.95996094 c 1,23,24
 915.686523438 1122.09960938 915.686523438 1122.09960938 899.345703125 1121.75976562 c 0,25,26
 884.14453125 1119.95410156 884.14453125 1119.95410156 825.545898438 1120.12011719 c 2,27,-1
 543.465820312 1120.12011719 l 1,28,29
 543.735351562 1199.38671875 543.735351562 1199.38671875 550.026367188 1238.20019531 c 1,30,-1
 653.345703125 1238.20019531 l 1,0,1
886.2265625 1331.6796875 m 1,31,32
 883.28125 1355.55371094 883.28125 1355.55371094 856.706054688 1361.20019531 c 0,33,34
 852.102539062 1361.53515625 852.102539062 1361.53515625 763.2265625 1361.20019531 c 0,35,36
 731.200195312 1360.26269531 731.200195312 1360.26269531 722.2265625 1354.63964844 c 0,37,38
 705.862304688 1341.37695312 705.862304688 1341.37695312 705.826171875 1305.44042969 c 0,39,40
 705.169921875 1290.3515625 705.169921875 1290.3515625 702.80859375 1260.17578125 c 0,41,42
 699.348632812 1214.36523438 699.348632812 1214.36523438 699.266601562 1192.28027344 c 1,41,-1
 595.946289062 1192.28027344 l 1,42,-1
 592.666015625 1166.04003906 l 1,43,-1
 814.06640625 1166.04003906 l 2,44,45
 866.893554688 1166.04003906 866.893554688 1166.04003906 878.647460938 1177.9453125 c 0,46,47
 885.172851562 1186.09082031 885.172851562 1186.09082031 887.866210938 1195.55957031 c 1,46,-1
 773.06640625 1195.55957031 l 1,47,48
 773.06640625 1210.3203125 773.06640625 1210.3203125 773.885742188 1239.01953125 c 0,49,50
 774.706054688 1267.71972656 774.706054688 1267.71972656 774.706054688 1282.48046875 c 0,49,50
 776.2109375 1314.84960938 776.2109375 1314.84960938 786.186523438 1323.48046875 c 0,51,52
 797.776367188 1331.6484375 797.776367188 1331.6484375 822.266601562 1331.6796875 c 2,53,-1
 886.2265625 1331.6796875 l 1,31,32
EndSplineSet
EndChar

StartChar: uniFE87
Encoding: 1573 1573 343
AltUni2: 00fe87.ffffffff.0
Width: 479
VWidth: 1639
GlyphClass: 2
Flags: W
LayerCount: 2
Fore
SplineSet
62.8203125 1408.75976562 m 1,0,-1
 453.140625 1408.75976562 l 1,1,-1
 458.060546875 -24.599609375 l 1,2,-1
 66.1005859375 -24.599609375 l 1,3,-1
 62.8203125 1408.75976562 l 1,0,-1
407.220703125 1362.83984375 m 1,4,-1
 108.740234375 1362.83984375 l 1,5,-1
 112.020507812 21.3203125 l 1,6,-1
 412.140625 21.3203125 l 1,7,-1
 407.220703125 1362.83984375 l 1,4,-1
171.879882812 -362.440429688 m 1,0,1
 172.025390625 -324.619140625 172.025390625 -324.619140625 178.440429688 -250.919921875 c 0,2,3
 182.180664062 -213.512695312 182.180664062 -213.512695312 186.564453125 -207.294921875 c 0,4,5
 189.715820312 -203.59765625 189.715820312 -203.59765625 191.560546875 -201.719726562 c 0,4,5
 205.266601562 -192.383789062 205.266601562 -192.383789062 248.959960938 -193.51953125 c 2,6,-1
 388.360351562 -193.51953125 l 2,7,8
 435.422851562 -194.741210938 435.422851562 -194.741210938 445.760742188 -205 c 1,9,10
 452.595703125 -214.864257812 452.595703125 -214.864257812 452.3203125 -239.440429688 c 0,11,12
 452.215820312 -290.74609375 452.215820312 -290.74609375 450.680664062 -314.879882812 c 1,13,-1
 381.80078125 -314.879882812 l 2,14,15
 355.337890625 -316.384765625 355.337890625 -316.384765625 345.720703125 -328 c 1,16,17
 339.196289062 -339.3515625 339.196289062 -339.3515625 339.16015625 -359.16015625 c 1,18,-1
 458.879882812 -359.16015625 l 1,19,20
 457.231445312 -372.34765625 457.231445312 -372.34765625 456.4140625 -398.930664062 c 0,21,22
 455.43359375 -426.243164062 455.43359375 -426.243164062 453.959960938 -439.51953125 c 0,21,22
 448.739257812 -466.283203125 448.739257812 -466.283203125 445.760742188 -470.6796875 c 1,23,24
 434.220703125 -478.541015625 434.220703125 -478.541015625 417.879882812 -478.879882812 c 0,25,26
 402.678710938 -480.685546875 402.678710938 -480.685546875 344.080078125 -480.51953125 c 2,27,-1
 62 -480.51953125 l 1,28,29
 62.26953125 -401.252929688 62.26953125 -401.252929688 68.560546875 -362.440429688 c 1,30,-1
 171.879882812 -362.440429688 l 1,0,1
404.760742188 -268.959960938 m 1,31,32
 401.815429688 -245.0859375 401.815429688 -245.0859375 375.240234375 -239.440429688 c 0,33,34
 370.63671875 -239.104492188 370.63671875 -239.104492188 281.760742188 -239.440429688 c 0,35,36
 249.734375 -240.377929688 249.734375 -240.377929688 240.760742188 -246 c 0,37,38
 224.396484375 -259.263671875 224.396484375 -259.263671875 224.360351562 -295.200195312 c 0,39,40
 223.704101562 -310.288085938 223.704101562 -310.288085938 221.342773438 -340.463867188 c 0,41,42
 217.8828125 -386.274414062 217.8828125 -386.274414062 217.80078125 -408.360351562 c 1,41,-1
 114.48046875 -408.360351562 l 1,42,-1
 111.200195312 -434.599609375 l 1,43,-1
 332.600585938 -434.599609375 l 2,44,45
 385.426757812 -434.599609375 385.426757812 -434.599609375 397.181640625 -422.694335938 c 0,46,47
 403.70703125 -414.549804688 403.70703125 -414.549804688 406.400390625 -405.080078125 c 1,46,-1
 291.600585938 -405.080078125 l 1,47,48
 291.600585938 -390.3203125 291.600585938 -390.3203125 292.419921875 -361.620117188 c 0,49,50
 293.2109375 -332.333984375 293.2109375 -332.333984375 293.240234375 -318.16015625 c 0,49,50
 294.745117188 -285.790039062 294.745117188 -285.790039062 304.720703125 -277.16015625 c 0,51,52
 316.310546875 -268.991210938 316.310546875 -268.991210938 340.80078125 -268.959960938 c 2,53,-1
 404.760742188 -268.959960938 l 1,31,32
EndSplineSet
AlternateSubs2: "gsub_alternate_dfl_aalt_arab_FAR_Lookup_01_Subtable_01" uniFE88 uniFE87
Substitution2: "gsub_single_rtl_fina_arab_FAR_Lookup_01_Subtable_01" uniFE88
EndChar

StartChar: uniFE88
Encoding: 65160 65160 344
Width: 977
VWidth: 1639
GlyphClass: 2
Flags: W
LayerCount: 2
Fore
SplineSet
295.520507812 1405.48046875 m 1,0,-1
 687.48046875 1405.48046875 l 1,1,2
 687.48046875 1275.09960938 687.48046875 1275.09960938 689.940429688 1014.33984375 c 0,3,4
 692.389648438 753.033203125 692.389648438 753.033203125 692.400390625 623.200195312 c 0,3,4
 692.400390625 592.040039062 692.400390625 592.040039062 693.219726562 530.540039062 c 0,5,6
 694.026367188 468.474609375 694.026367188 468.474609375 694.040039062 437.879882812 c 0,5,6
 696.572265625 363.875 696.572265625 363.875 718.640625 339.48046875 c 1,7,8
 745.568359375 317.622070312 745.568359375 317.622070312 810.48046875 318.16015625 c 0,9,10
 843.280273438 318.16015625 843.280273438 318.16015625 909.700195312 317.33984375 c 0,11,12
 976.649414062 316.533203125 976.649414062 316.533203125 1008.91992188 316.51953125 c 1,11,-1
 1008.91992188 270.599609375 l 1,12,13
 969.560546875 270.599609375 969.560546875 270.599609375 891.66015625 271.419921875 c 0,14,15
 813.198242188 272.228515625 813.198242188 272.228515625 774.400390625 272.240234375 c 0,14,15
 705.418945312 272.240234375 705.418945312 272.240234375 686.479492188 282.17578125 c 0,16,17
 678.836914062 286.185546875 678.836914062 286.185546875 672.719726562 291.919921875 c 0,16,17
 648.018554688 316.780273438 648.018554688 316.780273438 648.120117188 387.040039062 c 0,18,19
 648.120117188 418.200195312 648.120117188 418.200195312 647.299804688 480.51953125 c 0,20,21
 646.494140625 543.38671875 646.494140625 543.38671875 646.48046875 574 c 0,20,21
 646.48046875 705.200195312 646.48046875 705.200195312 644.020507812 966.780273438 c 0,22,23
 641.5703125 1228.91113281 641.5703125 1228.91113281 641.560546875 1359.55957031 c 1,22,-1
 341.440429688 1359.55957031 l 1,23,-1
 341.440429688 441.16015625 l 2,24,25
 341.440429688 282.171875 341.440429688 282.171875 345.495117188 250.923828125 c 0,26,27
 362.646484375 130.293945312 362.646484375 130.293945312 439.83984375 70.51953125 c 0,26,27
 504.359375 22.130859375 504.359375 22.130859375 643.842773438 21.361328125 c 0,28,29
 652.859375 21.3203125 652.859375 21.3203125 666.16015625 21.3203125 c 0,28,29
 723.560546875 21.3203125 723.560546875 21.3203125 837.540039062 22.1396484375 c 0,30,31
 952.077148438 22.9521484375 952.077148438 22.9521484375 1008.91992188 22.9599609375 c 1,30,-1
 1008.91992188 -24.599609375 l 1,31,-1
 626.799804688 -24.599609375 l 2,32,33
 495.3671875 -24.599609375 495.3671875 -24.599609375 442.32421875 -3.5498046875 c 0,34,35
 414.352539062 8.111328125 414.352539062 8.111328125 392.280273438 24.599609375 c 0,34,35
 297.083007812 96.6416015625 297.083007812 96.6416015625 293.663085938 273.7265625 c 0,36,37
 293.125 301.5703125 293.125 301.5703125 294.524414062 356.819335938 c 0,38,39
 295.520507812 396.109375 295.520507812 396.109375 295.520507812 414.919921875 c 2,36,-1
 295.520507812 1405.48046875 l 1,0,-1
170.879882812 -285.360351562 m 1,0,1
 171.024414062 -247.5390625 171.024414062 -247.5390625 177.440429688 -173.83984375 c 0,2,3
 181.180664062 -136.432617188 181.180664062 -136.432617188 185.563476562 -130.21484375 c 0,4,5
 188.715820312 -126.517578125 188.715820312 -126.517578125 190.560546875 -124.639648438 c 0,4,5
 204.266601562 -115.303710938 204.266601562 -115.303710938 247.959960938 -116.440429688 c 2,6,-1
 387.360351562 -116.440429688 l 2,7,8
 434.422851562 -117.661132812 434.422851562 -117.661132812 444.759765625 -127.919921875 c 0,9,10
 446.400390625 -131.200195312 446.400390625 -131.200195312 448.040039062 -133.66015625 c 0,11,12
 449.6796875 -136.120117188 449.6796875 -136.120117188 450.5 -141.040039062 c 0,13,14
 451.3203125 -145.959960938 451.3203125 -145.959960938 451.3203125 -147.599609375 c 0,15,16
 451.3203125 -149.240234375 451.3203125 -149.240234375 451.3203125 -155.799804688 c 2,17,-1
 451.3203125 -162.360351562 l 2,11,12
 451.215820312 -213.666992188 451.215820312 -213.666992188 449.6796875 -237.799804688 c 1,13,-1
 380.799804688 -237.799804688 l 2,14,15
 354.337890625 -239.305664062 354.337890625 -239.305664062 344.719726562 -250.919921875 c 1,16,17
 338.196289062 -262.271484375 338.196289062 -262.271484375 338.16015625 -282.080078125 c 1,18,-1
 457.879882812 -282.080078125 l 1,19,20
 456.231445312 -295.267578125 456.231445312 -295.267578125 455.4140625 -321.850585938 c 0,21,22
 454.43359375 -349.163085938 454.43359375 -349.163085938 452.959960938 -362.440429688 c 0,21,22
 447.739257812 -389.203125 447.739257812 -389.203125 444.759765625 -393.599609375 c 1,23,24
 433.220703125 -401.4609375 433.220703125 -401.4609375 416.879882812 -401.799804688 c 0,25,26
 401.677734375 -403.60546875 401.677734375 -403.60546875 343.080078125 -403.440429688 c 2,27,-1
 61 -403.440429688 l 1,28,29
 61.26953125 -324.172851562 61.26953125 -324.172851562 67.560546875 -285.360351562 c 1,30,-1
 170.879882812 -285.360351562 l 1,0,1
403.759765625 -191.879882812 m 1,31,32
 400.815429688 -168.005859375 400.815429688 -168.005859375 374.240234375 -162.360351562 c 0,33,34
 369.635742188 -162.024414062 369.635742188 -162.024414062 280.759765625 -162.360351562 c 0,35,36
 248.734375 -163.297851562 248.734375 -163.297851562 239.759765625 -168.919921875 c 0,37,38
 223.396484375 -182.18359375 223.396484375 -182.18359375 223.360351562 -218.120117188 c 0,39,40
 222.704101562 -233.208007812 222.704101562 -233.208007812 220.342773438 -263.383789062 c 0,41,42
 216.8828125 -309.194335938 216.8828125 -309.194335938 216.799804688 -331.280273438 c 1,41,-1
 113.48046875 -331.280273438 l 1,42,-1
 110.200195312 -357.51953125 l 1,43,-1
 331.600585938 -357.51953125 l 2,44,45
 384.426757812 -357.51953125 384.426757812 -357.51953125 396.180664062 -345.615234375 c 0,46,47
 402.706054688 -337.469726562 402.706054688 -337.469726562 405.400390625 -328 c 1,46,-1
 290.600585938 -328 l 1,47,48
 290.600585938 -313.240234375 290.600585938 -313.240234375 291.419921875 -284.540039062 c 0,49,50
 292.2109375 -255.25390625 292.2109375 -255.25390625 292.240234375 -241.080078125 c 0,49,50
 293.745117188 -208.709960938 293.745117188 -208.709960938 303.719726562 -200.080078125 c 0,51,52
 315.309570312 -191.912109375 315.309570312 -191.912109375 339.799804688 -191.879882812 c 2,53,-1
 403.759765625 -191.879882812 l 1,31,32
EndSplineSet
EndChar

StartChar: uniFE89
Encoding: 1574 1574 345
AltUni2: 00fe89.ffffffff.0
Width: 1503
VWidth: 1639
GlyphClass: 2
Flags: W
LayerCount: 2
Fore
SplineSet
344.879882812 918.400390625 m 1,0,1
 344.879882812 803.599609375 344.879882812 803.599609375 348.159179688 574.8203125 c 0,2,3
 351.423828125 345.48828125 351.423828125 345.48828125 351.439453125 231.240234375 c 0,2,3
 351.439453125 199.259765625 351.439453125 199.259765625 352.259765625 136.120117188 c 0,4,5
 353.065429688 72.4150390625 353.065429688 72.4150390625 353.079101562 41 c 0,4,5
 353.079101562 -27.8876953125 353.079101562 -27.8876953125 358.823242188 -42.45703125 c 0,6,7
 361.155273438 -47.6513671875 361.155273438 -47.6513671875 362.919921875 -50.83984375 c 0,6,7
 381.193359375 -84.576171875 381.193359375 -84.576171875 456.98828125 -82.3994140625 c 0,8,9
 470.893554688 -82 470.893554688 -82 476.079101562 -82 c 2,8,9
 790.959960938 -82 l 2,10,11
 845.1875 -81.0986328125 845.1875 -81.0986328125 879.51953125 -59.0400390625 c 1,12,13
 899.5 -41.4453125 899.5 -41.4453125 902.479492188 -29.51953125 c 1,14,15
 901.30859375 -23.306640625 901.30859375 -23.306640625 877.879882812 -24.599609375 c 2,16,-1
 794.239257812 -24.599609375 l 2,17,18
 654.9609375 -24.599609375 654.9609375 -24.599609375 605.108398438 -8.1416015625 c 0,19,20
 536.864257812 16.1171875 536.864257812 16.1171875 503.959960938 73.7998046875 c 0,19,20
 467.850585938 140.240234375 467.850585938 140.240234375 471.776367188 279.895507812 c 0,21,22
 472.681640625 312.5390625 472.681640625 312.5390625 472.799804688 318.16015625 c 0,21,22
 478.744140625 526.079101562 478.744140625 526.079101562 505.599609375 675.6796875 c 0,23,24
 533.740234375 835.336914062 533.740234375 835.336914062 590.879882812 898.719726562 c 0,25,26
 621.930664062 933.083007812 621.930664062 933.083007812 674.51953125 961.040039062 c 0,27,28
 763.998046875 1008.89941406 763.998046875 1008.89941406 928.719726562 1021.71972656 c 1,29,30
 1024.01953125 1027.38769531 1024.01953125 1027.38769531 1346.91992188 1026.63964844 c 1,31,-1
 1335.43945312 688.799804688 l 1,32,33
 1136.47363281 688.610351562 1136.47363281 688.610351562 1038.59960938 677.3203125 c 0,34,35
 937.690429688 665.98828125 937.690429688 665.98828125 897.559570312 621.559570312 c 1,36,37
 868.771484375 586.280273438 868.771484375 586.280273438 858.19921875 498.559570312 c 0,38,39
 845.651367188 407.588867188 845.651367188 407.588867188 846.79296875 390.981445312 c 0,40,41
 850.96875 350.375976562 850.96875 350.375976562 872.959960938 332.919921875 c 0,40,41
 898.734375 312.299804688 898.734375 312.299804688 979.8984375 315.9765625 c 0,42,43
 992.385742188 316.4765625 992.385742188 316.4765625 999.239257812 316.51953125 c 2,42,-1
 1305.91992188 316.51953125 l 1,43,44
 1305.91992188 -42.923828125 1305.91992188 -42.923828125 1302.26269531 -110.26953125 c 0,45,46
 1300.92285156 -134.37109375 1300.92285156 -134.37109375 1299.359375 -155.799804688 c 0,45,46
 1289.45117188 -281.302734375 1289.45117188 -281.302734375 1271.75097656 -322.149414062 c 0,47,48
 1262.59179688 -342.064453125 1262.59179688 -342.064453125 1251.79980469 -355.879882812 c 0,47,48
 1226.94433594 -383.159179688 1226.94433594 -383.159179688 1166.51953125 -403.440429688 c 1,49,50
 1087.69921875 -424.662109375 1087.69921875 -424.662109375 966.439453125 -424.759765625 c 2,51,-1
 308.799804688 -424.759765625 l 2,52,53
 166.338867188 -424.759765625 166.338867188 -424.759765625 113.397460938 -407.557617188 c 0,54,55
 53.62890625 -386.947265625 53.62890625 -386.947265625 15.2392578125 -342.759765625 c 0,54,55
 -48.2138671875 -266.92578125 -48.2138671875 -266.92578125 -47.6982421875 -103.592773438 c 0,56,57
 -47.6279296875 -88.32421875 -47.6279296875 -88.32421875 -47.080078125 -55.759765625 c 0,56,57
 -46.9462890625 -51.0458984375 -46.9462890625 -51.0458984375 -47.080078125 59.0400390625 c 0,58,59
 -47.080078125 211.559570312 -47.080078125 211.559570312 -49.5400390625 517.419921875 c 0,60,61
 -51.9912109375 823.823242188 -51.9912109375 823.823242188 -52 975.799804688 c 1,60,-1
 0.4794921875 975.799804688 l 1,61,-1
 93.9599609375 959.400390625 l 1,62,-1
 344.879882812 918.400390625 l 1,0,1
1299.359375 980.719726562 m 1,63,64
 1034.97363281 980.719726562 1034.97363281 980.719726562 976.279296875 975.951171875 c 0,65,66
 957.043945312 974.342773438 957.043945312 974.342773438 940.19921875 972.51953125 c 0,65,66
 794.848632812 957.2890625 794.848632812 957.2890625 702.399414062 905.280273438 c 1,67,68
 599.403320312 842.970703125 599.403320312 842.970703125 561.359375 683.879882812 c 1,69,70
 538.860351562 580.772460938 538.860351562 580.772460938 522 347.6796875 c 0,71,72
 513.546875 212.439453125 513.546875 212.439453125 534.9453125 153.58203125 c 0,73,74
 542.334960938 134.193359375 542.334960938 134.193359375 551.51953125 118.080078125 c 0,73,74
 602.088867188 28.1796875 602.088867188 28.1796875 751.622070312 21.9521484375 c 0,75,76
 769.689453125 21.2666015625 769.689453125 21.2666015625 840.159179688 21.3203125 c 2,75,-1
 917.239257812 21.3203125 l 2,76,77
 945.118164062 20.57421875 945.118164062 20.57421875 946.759765625 19.6796875 c 0,78,79
 951.61328125 14.8505859375 951.61328125 14.8505859375 951.6796875 -1.6396484375 c 1,80,81
 957.921875 -46.4951171875 957.921875 -46.4951171875 950.040039062 -72.16015625 c 0,82,83
 931.163085938 -127.380859375 931.163085938 -127.380859375 828.6796875 -127.919921875 c 2,84,-1
 459.6796875 -127.919921875 l 2,85,86
 452.052734375 -127.919921875 452.052734375 -127.919921875 434.38671875 -128.78515625 c 0,87,88
 340.84375 -130.420898438 340.84375 -130.420898438 317 -98.400390625 c 1,87,88
 306.080078125 -75.4873046875 306.080078125 -75.4873046875 307.159179688 -8.2001953125 c 0,89,90
 307.159179688 22.9599609375 307.159179688 22.9599609375 306.33984375 85.2802734375 c 0,91,92
 305.533203125 148.146484375 305.533203125 148.146484375 305.51953125 178.759765625 c 0,91,92
 305.51953125 294.379882812 305.51953125 294.379882812 302.239257812 525.620117188 c 0,93,94
 298.974609375 757.40625 298.974609375 757.40625 298.959960938 872.48046875 c 1,93,-1
 89.0400390625 906.919921875 l 1,94,-1
 -6.080078125 921.6796875 l 1,95,96
 -6.080078125 781.459960938 -6.080078125 781.459960938 -3.6201171875 500.200195312 c 0,97,98
 -1.169921875 218.397460938 -1.169921875 218.397460938 -1.16015625 78.7197265625 c 0,97,98
 -1.16015625 58.4208984375 -1.16015625 58.4208984375 -2.212890625 16.6123046875 c 0,99,100
 -6.505859375 -153.846679688 -6.505859375 -153.846679688 23.3876953125 -229.89453125 c 0,101,102
 41.2470703125 -273.5390625 41.2470703125 -273.5390625 69.359375 -306.6796875 c 0,99,100
 131.44140625 -376.153320312 131.44140625 -376.153320312 280.765625 -378.706054688 c 0,101,102
 291.823242188 -378.8671875 291.823242188 -378.8671875 339.959960938 -378.83984375 c 2,101,-1
 946.759765625 -378.83984375 l 2,102,103
 1042.54589844 -378.3828125 1042.54589844 -378.3828125 1122.23925781 -355.879882812 c 0,104,105
 1177.33691406 -339.568359375 1177.33691406 -339.568359375 1204.23925781 -311.599609375 c 1,106,107
 1244.25878906 -263.143554688 1244.25878906 -263.143554688 1251.79980469 -132.83984375 c 0,108,109
 1260.02734375 -18.74609375 1260.02734375 -18.74609375 1260 270.599609375 c 1,110,-1
 956.599609375 270.599609375 l 2,111,112
 948.178710938 270.599609375 948.178710938 270.599609375 929.645507812 269.682617188 c 0,113,114
 855.6953125 267.01171875 855.6953125 267.01171875 828.6796875 285.360351562 c 1,113,114
 805.467773438 303.2890625 805.467773438 303.2890625 802.439453125 342.759765625 c 1,115,116
 795.861328125 391.611328125 795.861328125 391.611328125 805.719726562 483.799804688 c 1,117,118
 815.381835938 593.307617188 815.381835938 593.307617188 826.624023438 623.498046875 c 0,119,120
 835.993164062 646.97265625 835.993164062 646.97265625 848.359375 662.559570312 c 0,119,120
 886.053710938 708.190429688 886.053710938 708.190429688 981.19921875 721.599609375 c 0,121,122
 1073.453125 734.755859375 1073.453125 734.755859375 1289.51953125 734.719726562 c 1,123,-1
 1299.359375 980.719726562 l 1,63,64
57.8798828125 987.280273438 m 1,0,1
 58.0244140625 1025.10058594 58.0244140625 1025.10058594 64.439453125 1098.79980469 c 0,2,3
 68.1806640625 1136.20703125 68.1806640625 1136.20703125 72.5634765625 1142.42578125 c 0,4,5
 75.71484375 1146.12207031 75.71484375 1146.12207031 77.5595703125 1148 c 0,4,5
 91.2666015625 1157.33691406 91.2666015625 1157.33691406 134.959960938 1156.20019531 c 2,6,-1
 274.359375 1156.20019531 l 2,7,8
 321.421875 1154.97851562 321.421875 1154.97851562 331.759765625 1144.71972656 c 0,9,10
 333.399414062 1141.44042969 333.399414062 1141.44042969 335.040039062 1138.98046875 c 0,11,12
 336.6796875 1136.51953125 336.6796875 1136.51953125 337.5 1131.59960938 c 0,13,14
 338.319335938 1126.6796875 338.319335938 1126.6796875 338.319335938 1125.04003906 c 0,15,16
 338.319335938 1123.40039062 338.319335938 1123.40039062 338.319335938 1116.83984375 c 2,17,-1
 338.319335938 1110.28027344 l 2,11,12
 338.21484375 1058.97363281 338.21484375 1058.97363281 336.6796875 1034.83984375 c 1,13,-1
 267.799804688 1034.83984375 l 2,14,15
 241.336914062 1033.33496094 241.336914062 1033.33496094 231.719726562 1021.71972656 c 1,16,17
 225.1953125 1010.36816406 225.1953125 1010.36816406 225.159179688 990.559570312 c 1,18,-1
 344.879882812 990.559570312 l 1,19,20
 343.231445312 977.372070312 343.231445312 977.372070312 342.413085938 950.7890625 c 0,21,22
 341.432617188 923.4765625 341.432617188 923.4765625 339.959960938 910.200195312 c 0,21,22
 334.739257812 883.436523438 334.739257812 883.436523438 331.759765625 879.040039062 c 1,23,24
 320.219726562 871.1796875 320.219726562 871.1796875 303.879882812 870.83984375 c 0,25,26
 288.677734375 869.034179688 288.677734375 869.034179688 230.079101562 869.200195312 c 2,27,-1
 -52 869.200195312 l 1,28,29
 -51.73046875 948.466796875 -51.73046875 948.466796875 -45.4404296875 987.280273438 c 1,30,-1
 57.8798828125 987.280273438 l 1,0,1
290.759765625 1080.75976562 m 1,31,32
 287.814453125 1104.63378906 287.814453125 1104.63378906 261.239257812 1110.28027344 c 0,33,34
 256.635742188 1110.61523438 256.635742188 1110.61523438 167.759765625 1110.28027344 c 0,35,36
 135.733398438 1109.34277344 135.733398438 1109.34277344 126.759765625 1103.71972656 c 0,37,38
 110.395507812 1090.45703125 110.395507812 1090.45703125 110.359375 1054.51953125 c 0,39,40
 109.703125 1039.43164062 109.703125 1039.43164062 107.341796875 1009.25585938 c 0,41,42
 103.881835938 963.4453125 103.881835938 963.4453125 103.799804688 941.360351562 c 1,41,-1
 0.4794921875 941.360351562 l 1,42,-1
 -2.80078125 915.120117188 l 1,43,-1
 218.599609375 915.120117188 l 2,44,45
 271.426757812 915.120117188 271.426757812 915.120117188 283.180664062 927.025390625 c 0,46,47
 289.706054688 935.170898438 289.706054688 935.170898438 292.399414062 944.639648438 c 1,46,-1
 177.599609375 944.639648438 l 1,47,48
 177.599609375 959.400390625 177.599609375 959.400390625 178.419921875 988.099609375 c 0,49,50
 179.209960938 1017.38574219 179.209960938 1017.38574219 179.239257812 1031.55957031 c 0,49,50
 180.744140625 1063.9296875 180.744140625 1063.9296875 190.719726562 1072.55957031 c 0,51,52
 202.309570312 1080.72851562 202.309570312 1080.72851562 226.799804688 1080.75976562 c 2,53,-1
 290.759765625 1080.75976562 l 1,31,32
EndSplineSet
AlternateSubs2: "gsub_alternate_dfl_aalt_arab_FAR_Lookup_01_Subtable_01" uniFE8A uniFE8B uniFE89 uniFE8C
Substitution2: "gsub_single_rtl_fina_arab_FAR_Lookup_01_Subtable_01" uniFE8A
Substitution2: "gsub_single_rtl_init_arab_FAR_Lookup_01_Subtable_01" uniFE8B
Substitution2: "gsub_single_rtl_medi_arab_FAR_Lookup_01_Subtable_01" uniFE8C
EndChar

StartChar: uniFE8A
Encoding: 65162 65162 346
Width: 1437
VWidth: 1639
GlyphClass: 2
Flags: W
LayerCount: 2
Fore
SplineSet
-20.83984375 1031.55957031 m 1,0,-1
 2.1201171875 1025 l 1,1,-1
 2.1201171875 1031.55957031 l 1,2,-1
 25.080078125 1025 l 1,3,-1
 25.080078125 1031.55957031 l 1,4,5
 55.2509765625 1024.59765625 55.2509765625 1024.59765625 231.846679688 966.647460938 c 0,6,7
 256.670898438 958.555664062 256.670898438 958.555664062 276 952.83984375 c 0,6,7
 286.66015625 949.559570312 286.66015625 949.559570312 308.799804688 942.1796875 c 0,8,9
 331.435546875 934.673828125 331.435546875 934.673828125 341.600585938 931.51953125 c 0,8,9
 362.563476562 925.303710938 362.563476562 925.303710938 366.200195312 921.6796875 c 0,10,11
 367.83984375 920.040039062 367.83984375 920.040039062 367.83984375 917.580078125 c 0,12,13
 367.83984375 915.120117188 367.83984375 915.120117188 367.83984375 910.200195312 c 2,14,-1
 367.83984375 905.280273438 l 1,12,-1
 367.83984375 862.639648438 l 1,13,-1
 367.83984375 697 l 1,14,-1
 367.83984375 168.919921875 l 1,15,-1
 367.83984375 34.4404296875 l 2,16,17
 368.625 -26.0322265625 368.625 -26.0322265625 379.3203125 -45.919921875 c 0,18,19
 402.428710938 -83.4716796875 402.428710938 -83.4716796875 482.94921875 -82.271484375 c 0,20,21
 502.079101562 -82.0068359375 502.079101562 -82.0068359375 503.959960938 -82 c 0,20,21
 553.98046875 -82 553.98046875 -82 654.83984375 -81.1796875 c 0,22,23
 756.235351562 -80.369140625 756.235351562 -80.369140625 805.720703125 -80.3603515625 c 0,22,23
 894.986328125 -78.525390625 894.986328125 -78.525390625 918.879882812 -26.240234375 c 1,24,25
 905.901367188 -23.6474609375 905.901367188 -23.6474609375 836.879882812 -24.599609375 c 0,26,27
 693.625976562 -24.599609375 693.625976562 -24.599609375 660.0625 -19.169921875 c 0,28,29
 544.935546875 1.4970703125 544.935546875 1.4970703125 505.600585938 88.5595703125 c 1,28,29
 491.662109375 123.69140625 491.662109375 123.69140625 485.919921875 177.120117188 c 0,30,31
 484.780273438 194.540039062 484.780273438 194.540039062 485.919921875 316.51953125 c 1,32,-1
 1468.28027344 316.51953125 l 1,33,-1
 1468.28027344 270.599609375 l 1,34,-1
 531.83984375 270.599609375 l 1,35,36
 532.493164062 182.193359375 532.493164062 182.193359375 551.520507812 136.120117188 c 0,37,38
 602.963867188 22.125 602.963867188 22.125 768 21.3203125 c 2,39,-1
 917.240234375 21.3203125 l 1,40,41
 961.439453125 18.71875 961.439453125 18.71875 964.799804688 16.400390625 c 1,42,43
 968.380859375 6.5087890625 968.380859375 6.5087890625 968.080078125 -21.3203125 c 0,44,45
 967.624023438 -61.8154296875 967.624023438 -61.8154296875 964.799804688 -72.16015625 c 0,46,47
 951.876953125 -109.100585938 951.876953125 -109.100585938 891 -123 c 1,48,49
 858.862304688 -128.087890625 858.862304688 -128.087890625 740.120117188 -127.919921875 c 2,50,-1
 502.3203125 -127.919921875 l 2,51,52
 492.401367188 -127.919921875 492.401367188 -127.919921875 469.502929688 -129.177734375 c 0,53,54
 376.25 -133.272460938 376.25 -133.272460938 346.520507812 -109.879882812 c 1,53,54
 322.200195312 -85.7216796875 322.200195312 -85.7216796875 321.919921875 -29.51953125 c 2,55,-1
 321.919921875 129.559570312 l 1,56,-1
 321.919921875 675.6796875 l 1,57,-1
 321.919921875 820 l 2,58,59
 321.919921875 823.466796875 321.919921875 823.466796875 322.6484375 833.482421875 c 0,60,61
 324.465820312 866.868164062 324.465820312 866.868164062 320.280273438 875.759765625 c 0,60,61
 317 879.040039062 317 879.040039062 302.807617188 883.077148438 c 0,62,63
 302.240234375 883.959960938 302.240234375 883.959960938 300.600585938 883.959960938 c 2,64,-1
 298.959960938 883.959960938 l 1,62,63
 279.3125 889.467773438 279.3125 889.467773438 244.83984375 902 c 0,64,65
 171.036132812 925.471679688 171.036132812 925.471679688 25.080078125 970.879882812 c 1,66,67
 25.080078125 821.639648438 25.080078125 821.639648438 22.6201171875 523.16015625 c 0,68,69
 20.1689453125 224.133789062 20.1689453125 224.133789062 20.16015625 75.4404296875 c 0,68,69
 20.16015625 57.158203125 20.16015625 57.158203125 19.3037109375 18.763671875 c 0,70,71
 15.3876953125 -156.891601562 15.3876953125 -156.891601562 46.603515625 -233.530273438 c 0,72,73
 64.646484375 -276 64.646484375 -276 92.3203125 -306.6796875 c 0,70,71
 158.327148438 -378.5546875 158.327148438 -378.5546875 305.52734375 -381.859375 c 0,72,73
 319.987304688 -382.146484375 319.987304688 -382.146484375 372.760742188 -382.120117188 c 2,72,-1
 946.760742188 -382.120117188 l 2,73,74
 1038.35253906 -381.791015625 1038.35253906 -381.791015625 1117.3203125 -365.719726562 c 0,75,76
 1181.14257812 -351.432617188 1181.14257812 -351.432617188 1209.16015625 -328 c 0,77,78
 1265.66210938 -278.388671875 1265.66210938 -278.388671875 1272.16992188 -136.013671875 c 0,79,80
 1272.52050781 -128.337890625 1272.52050781 -128.337890625 1273.1015625 -113.298828125 c 0,81,82
 1274.10742188 -88.12890625 1274.10742188 -88.12890625 1274.76074219 -77.080078125 c 0,79,80
 1275.41601562 -63.9599609375 1275.41601562 -63.9599609375 1277.77832031 -37.7197265625 c 0,81,82
 1281.22558594 2.1865234375 1281.22558594 2.1865234375 1281.3203125 21.3203125 c 1,81,-1
 1468.28027344 22.9599609375 l 1,82,-1
 1468.28027344 -24.599609375 l 1,83,-1
 1327.24023438 -24.599609375 l 1,84,85
 1327.11035156 -49.541015625 1327.11035156 -49.541015625 1319.04003906 -149.240234375 c 0,86,87
 1309.77929688 -257.998046875 1309.77929688 -257.998046875 1307.56054688 -268.959960938 c 0,88,89
 1290.37304688 -342.950195312 1290.37304688 -342.950195312 1256.72070312 -373.919921875 c 0,90,91
 1227.0703125 -400.328125 1227.0703125 -400.328125 1163.24023438 -413.280273438 c 0,92,93
 1082.02929688 -427.94140625 1082.02929688 -427.94140625 974.640625 -428.040039062 c 2,94,-1
 339.959960938 -428.040039062 l 2,95,96
 198.495117188 -428.040039062 198.495117188 -428.040039062 149.524414062 -414.598632812 c 0,97,98
 87.8486328125 -396.5859375 87.8486328125 -396.5859375 48.0400390625 -355.879882812 c 0,97,98
 -30.5400390625 -274.72265625 -30.5400390625 -274.72265625 -28.8115234375 -82.7236328125 c 0,99,100
 -28.6142578125 -60.87109375 -28.6142578125 -60.87109375 -27.2490234375 -17.94921875 c 0,101,102
 -25.7939453125 29.3564453125 -25.7939453125 29.3564453125 -25.759765625 50.83984375 c 0,99,100
 -25.759765625 214.01953125 -25.759765625 214.01953125 -23.2998046875 541.200195312 c 0,101,102
 -20.84765625 868.922851562 -20.84765625 868.922851562 -20.83984375 1031.55957031 c 1,0,-1
57.8798828125 1233.28027344 m 1,0,1
 58.025390625 1271.10058594 58.025390625 1271.10058594 64.4404296875 1344.79980469 c 0,2,3
 68.1806640625 1382.20703125 68.1806640625 1382.20703125 72.564453125 1388.42578125 c 0,4,5
 75.7158203125 1392.12207031 75.7158203125 1392.12207031 77.560546875 1394 c 0,4,5
 91.2666015625 1403.33691406 91.2666015625 1403.33691406 134.959960938 1402.20019531 c 2,6,-1
 274.360351562 1402.20019531 l 2,7,8
 321.422851562 1400.97851562 321.422851562 1400.97851562 331.760742188 1390.71972656 c 0,9,10
 333.400390625 1387.44042969 333.400390625 1387.44042969 335.040039062 1384.98046875 c 0,11,12
 336.680664062 1382.51953125 336.680664062 1382.51953125 337.5 1377.59960938 c 0,13,14
 338.3203125 1372.6796875 338.3203125 1372.6796875 338.3203125 1371.04003906 c 0,15,16
 338.3203125 1369.40039062 338.3203125 1369.40039062 338.3203125 1362.83984375 c 2,17,-1
 338.3203125 1356.28027344 l 2,11,12
 338.215820312 1304.97363281 338.215820312 1304.97363281 336.680664062 1280.83984375 c 1,13,-1
 267.799804688 1280.83984375 l 2,14,15
 241.337890625 1279.33496094 241.337890625 1279.33496094 231.720703125 1267.71972656 c 1,16,17
 225.196289062 1256.36816406 225.196289062 1256.36816406 225.16015625 1236.55957031 c 1,18,-1
 344.879882812 1236.55957031 l 1,19,20
 343.231445312 1223.37207031 343.231445312 1223.37207031 342.4140625 1196.7890625 c 0,21,22
 341.43359375 1169.4765625 341.43359375 1169.4765625 339.959960938 1156.20019531 c 0,21,22
 334.739257812 1129.43652344 334.739257812 1129.43652344 331.760742188 1125.04003906 c 1,23,24
 320.220703125 1117.1796875 320.220703125 1117.1796875 303.879882812 1116.83984375 c 0,25,26
 288.678710938 1115.03417969 288.678710938 1115.03417969 230.080078125 1115.20019531 c 2,27,-1
 -52 1115.20019531 l 1,28,29
 -51.73046875 1194.46679688 -51.73046875 1194.46679688 -45.439453125 1233.28027344 c 1,30,-1
 57.8798828125 1233.28027344 l 1,0,1
290.760742188 1326.75976562 m 1,31,32
 287.815429688 1350.63378906 287.815429688 1350.63378906 261.240234375 1356.28027344 c 0,33,34
 256.63671875 1356.61523438 256.63671875 1356.61523438 167.760742188 1356.28027344 c 0,35,36
 135.734375 1355.34277344 135.734375 1355.34277344 126.760742188 1349.71972656 c 0,37,38
 110.396484375 1336.45703125 110.396484375 1336.45703125 110.360351562 1300.51953125 c 0,39,40
 109.704101562 1285.43164062 109.704101562 1285.43164062 107.342773438 1255.25585938 c 0,41,42
 103.8828125 1209.4453125 103.8828125 1209.4453125 103.799804688 1187.36035156 c 1,41,-1
 0.48046875 1187.36035156 l 1,42,-1
 -2.7998046875 1161.12011719 l 1,43,-1
 218.600585938 1161.12011719 l 2,44,45
 271.426757812 1161.12011719 271.426757812 1161.12011719 283.181640625 1173.02539062 c 0,46,47
 289.70703125 1181.17089844 289.70703125 1181.17089844 292.400390625 1190.63964844 c 1,46,-1
 177.600585938 1190.63964844 l 1,47,48
 177.600585938 1205.40039062 177.600585938 1205.40039062 178.419921875 1234.09960938 c 0,49,50
 179.2109375 1263.38574219 179.2109375 1263.38574219 179.240234375 1277.55957031 c 0,49,50
 180.745117188 1309.9296875 180.745117188 1309.9296875 190.720703125 1318.55957031 c 0,51,52
 202.310546875 1326.72851562 202.310546875 1326.72851562 226.799804688 1326.75976562 c 2,53,-1
 290.760742188 1326.75976562 l 1,31,32
EndSplineSet
EndChar

